G04 #@! TF.GenerationSoftware,KiCad,Pcbnew,(5.0.0)*
G04 #@! TF.CreationDate,2019-01-27T03:00:44-08:00*
G04 #@! TF.ProjectId,Voyager97,566F796167657239372E6B696361645F,rev?*
G04 #@! TF.SameCoordinates,Original*
G04 #@! TF.FileFunction,Profile,NP*
%FSLAX46Y46*%
G04 Gerber Fmt 4.6, Leading zero omitted, Abs format (unit mm)*
G04 Created by KiCad (PCBNEW (5.0.0)) date 01/27/19 03:00:44*
%MOMM*%
%LPD*%
G01*
G04 APERTURE LIST*
%ADD10C,0.150000*%
%ADD11C,0.200000*%
G04 APERTURE END LIST*
D10*
X264318750Y-115093750D02*
X264318750Y-123031250D01*
X265906250Y-123031250D02*
X265906250Y-115093750D01*
X265906250Y-123031250D02*
G75*
G02X264318750Y-123031250I-793750J0D01*
G01*
X264318750Y-115093750D02*
G75*
G02X265906250Y-115093750I793750J0D01*
G01*
X288131250Y-76993750D02*
X288131250Y-84931250D01*
X289718750Y-76993750D02*
X289718750Y-84931250D01*
X289718750Y-84931250D02*
G75*
G02X288131250Y-84931250I-793750J0D01*
G01*
X288131250Y-76993750D02*
G75*
G02X289718750Y-76993750I793750J0D01*
G01*
X277018750Y-103981250D02*
X277018750Y-96043750D01*
X278606250Y-96043750D02*
X278606250Y-103981250D01*
X278606250Y-103981250D02*
G75*
G02X277018750Y-103981250I-793750J0D01*
G01*
X277018750Y-96043750D02*
G75*
G02X278606250Y-96043750I793750J0D01*
G01*
X73818750Y-115093750D02*
X73818750Y-123031250D01*
X75406250Y-123031250D02*
X75406250Y-115093750D01*
X75406250Y-123031250D02*
G75*
G02X73818750Y-123031250I-793750J0D01*
G01*
X73818750Y-115093750D02*
G75*
G02X75406250Y-115093750I793750J0D01*
G01*
X61118750Y-96043750D02*
X61118750Y-103981250D01*
X62706250Y-103981250D02*
X62706250Y-96043750D01*
X62706250Y-103981250D02*
G75*
G02X61118750Y-103981250I-793750J0D01*
G01*
X61118750Y-96043750D02*
G75*
G02X62706250Y-96043750I793750J0D01*
G01*
X59531250Y-76993750D02*
X59531250Y-84931250D01*
X61118750Y-84931250D02*
X61118750Y-76993750D01*
D11*
X61118750Y-84931250D02*
G75*
G02X59531250Y-84931250I-793750J0D01*
G01*
X59531250Y-76993750D02*
G75*
G02X61118750Y-76993750I793750J0D01*
G01*
D10*
X65881250Y-91281250D02*
X273843750Y-91281250D01*
X273843750Y-89693750D02*
X65881250Y-89693750D01*
D11*
X273843750Y-89693750D02*
G75*
G02X273843750Y-91281250I0J-793750D01*
G01*
X65881250Y-91281250D02*
G75*
G02X65881250Y-89693750I0J793750D01*
G01*
D10*
X421481250Y-144462500D02*
X421481250Y-26987500D01*
X34925000Y-146843750D02*
X419100000Y-146843750D01*
X32543750Y-26987500D02*
X32543750Y-144462500D01*
X419100000Y-24606250D02*
X34925000Y-24606250D01*
D11*
X419100000Y-24606250D02*
G75*
G02X421481250Y-26987500I0J-2381250D01*
G01*
X421481250Y-144462500D02*
G75*
G02X419100000Y-146843750I-2381250J0D01*
G01*
X34925000Y-146843750D02*
G75*
G02X32543750Y-144462500I0J2381250D01*
G01*
X32543750Y-26987500D02*
G75*
G02X34925000Y-24606250I2381250J0D01*
G01*
M02*
