M48
;DRILL file {KiCad (5.0.0)} date 11/18/18 02:02:54
;FORMAT={-:-/ absolute / inch / decimal}
FMAT,2
INCH,TZ
T1C0.0157
T2C0.0236
T3C0.0394
T4C0.0409
T5C0.0579
%
G90
G05
M72
T1
X2.08Y-1.74
X2.12Y-1.72
X11.705Y-2.19
X11.865Y-2.025
X12.37Y-2.505
X12.37Y-4.02
X13.075Y-1.4
X13.075Y-1.44
X13.21Y-2.005
X13.255Y-1.395
X13.27Y-1.81
X13.355Y-1.325
X13.37Y-1.795
X13.38Y-1.645
X13.385Y-1.275
X13.47Y-2.26
X13.495Y-1.275
X13.5Y-2.525
X13.5Y-2.565
X13.5Y-2.6
X13.5Y-3.275
X13.5Y-3.315
X13.5Y-4.025
X13.5Y-4.065
X13.5Y-4.775
X13.5Y-4.815
X13.545Y-1.28
X13.63Y-1.395
X13.7Y-2.525
X13.7Y-2.565
X13.7Y-2.6
X13.7Y-3.275
X13.7Y-3.315
X13.7Y-4.025
X13.7Y-4.065
X13.7Y-4.775
X13.7Y-4.815
X13.72Y-1.605
X13.8Y-1.4
X13.8Y-1.44
X13.81Y-1.73
X13.92Y-1.75
X14.49Y-1.395
X14.5Y-2.1
X14.65Y-2.02
X14.8Y-2.06
X15.01Y-1.845
X15.145Y-1.875
X15.22Y-1.705
X15.225Y-2.575
X15.24Y-5.58
X15.255Y-3.31
X15.255Y-4.06
X15.255Y-4.81
T3
X2.2939Y-3.8489
X2.2939Y-4.0261
X2.5498Y-3.8489
X2.5498Y-4.0261
X14.7Y-1.775
X14.7Y-1.875
X14.7Y-1.975
X14.8Y-1.775
X14.8Y-1.875
X14.8Y-1.975
T4
X16.2Y-1.5125
X16.3Y-1.5125
X9.2625Y-5.6375
X9.3625Y-5.6375
X12.825Y-1.5125
X12.925Y-1.5125
X9.075Y-5.6375
X9.175Y-5.6375
X14.325Y-5.6375
X14.425Y-5.6375
X1.6687Y-4.1375
X1.7688Y-4.1375
X11.325Y-5.6375
X11.425Y-5.6375
X15.45Y-4.1375
X15.55Y-4.1375
X15.45Y-3.3875
X15.55Y-3.3875
X5.8875Y-4.1375
X5.9875Y-4.1375
X13.95Y-3.3875
X14.05Y-3.3875
X10.3875Y-4.1375
X10.4875Y-4.1375
X11.8875Y-3.3875
X11.9875Y-3.3875
X4.575Y-2.6375
X4.675Y-2.6375
X3.5437Y-5.6375
X3.6437Y-5.6375
X12.825Y-4.1375
X12.925Y-4.1375
X15.45Y-4.8875
X15.55Y-4.8875
X13.95Y-5.6375
X14.05Y-5.6375
X10.3875Y-5.6375
X10.4875Y-5.6375
X3.2625Y-4.8875
X3.3625Y-4.8875
X3.45Y-1.5125
X3.55Y-1.5125
X15.45Y-2.6375
X15.55Y-2.6375
X16.2Y-3.3875
X16.3Y-3.3875
X11.325Y-2.6375
X11.425Y-2.6375
X10.95Y-1.5125
X11.05Y-1.5125
X11.7Y-2.6375
X11.8Y-2.6375
X13.95Y-2.6375
X14.05Y-2.6375
X9.6375Y-4.1375
X9.7375Y-4.1375
X9.075Y-2.6375
X9.175Y-2.6375
X12.825Y-4.8875
X12.925Y-4.8875
X2.325Y-2.6375
X2.425Y-2.6375
X5.1375Y-4.1375
X5.2375Y-4.1375
X4.7625Y-4.8875
X4.8625Y-4.8875
X16.2Y-4.8875
X16.3Y-4.8875
X5.7Y-3.3875
X5.8Y-3.3875
X7.2Y-3.3875
X7.3Y-3.3875
X16.2Y-4.1375
X16.3Y-4.1375
X14.7Y-2.6375
X14.8Y-2.6375
X8.1375Y-4.1375
X8.2375Y-4.1375
X6.075Y-1.5125
X6.175Y-1.5125
X12.075Y-2.6375
X12.175Y-2.6375
X14.7Y-4.8875
X14.8Y-4.8875
X3.075Y-2.6375
X3.175Y-2.6375
X7.575Y-2.6375
X7.675Y-2.6375
X12.825Y-2.6375
X12.925Y-2.6375
X6.075Y-2.6375
X6.175Y-2.6375
X4.3875Y-4.1375
X4.4875Y-4.1375
X11.0437Y-4.8875
X11.1437Y-4.8875
X12.075Y-4.8875
X12.175Y-4.8875
X9.825Y-5.6375
X9.925Y-5.6375
X3.6375Y-4.1375
X3.7375Y-4.1375
X3.45Y-3.3875
X3.55Y-3.3875
X2.7Y-3.3875
X2.8Y-3.3875
X13.95Y-1.5125
X14.05Y-1.5125
X6.6375Y-4.1375
X6.7375Y-4.1375
X8.8875Y-4.1375
X8.9875Y-4.1375
X14.7Y-1.5125
X14.8Y-1.5125
X13.95Y-4.1375
X14.05Y-4.1375
X7.3875Y-4.1375
X7.4875Y-4.1375
X12.075Y-5.6375
X12.175Y-5.6375
X12.825Y-3.3875
X12.925Y-3.3875
X10.0125Y-4.8875
X10.1125Y-4.8875
X5.325Y-2.6375
X5.425Y-2.6375
X9.825Y-2.6375
X9.925Y-2.6375
X16.2Y-5.6375
X16.3Y-5.6375
X16.45Y-5.0125
X16.45Y-5.1125
X8.7Y-3.3875
X8.8Y-3.3875
X10.2Y-1.5125
X10.3Y-1.5125
X7.7625Y-4.8875
X7.8625Y-4.8875
X7.575Y-1.5125
X7.675Y-1.5125
X16.2Y-2.6375
X16.3Y-2.6375
X13.95Y-4.8875
X14.05Y-4.8875
X10.2Y-3.3875
X10.3Y-3.3875
X10.95Y-3.3875
X11.05Y-3.3875
X1.575Y-1.5125
X1.675Y-1.5125
X8.5125Y-4.8875
X8.6125Y-4.8875
X1.7625Y-3.3875
X1.8625Y-3.3875
X8.325Y-2.6375
X8.425Y-2.6375
X4.95Y-3.3875
X5.05Y-3.3875
X15.45Y-5.6375
X15.55Y-5.6375
X10.575Y-5.6375
X10.675Y-5.6375
X4.0125Y-4.8875
X4.1125Y-4.8875
X6.075Y-5.6375
X6.175Y-5.6375
X6.45Y-3.3875
X6.55Y-3.3875
X14.7Y-5.6375
X14.8Y-5.6375
X14.7Y-3.3875
X14.8Y-3.3875
X9.45Y-1.5125
X9.55Y-1.5125
X14.7Y-4.1375
X14.8Y-4.1375
X1.7625Y-5.6375
X1.8625Y-5.6375
X6.825Y-1.5125
X6.925Y-1.5125
X2.8875Y-5.6375
X2.9875Y-5.6375
X15.45Y-1.5125
X15.55Y-1.5125
X7.95Y-3.3875
X8.05Y-3.3875
X6.2625Y-4.8875
X6.3625Y-4.8875
X2.7Y-1.5125
X2.8Y-1.5125
X2.8875Y-4.1375
X2.9875Y-4.1375
X2.6062Y-5.6375
X2.7062Y-5.6375
X11.6062Y-4.1375
X11.7062Y-4.1375
X6.825Y-2.6375
X6.925Y-2.6375
X12.825Y-5.6375
X12.925Y-5.6375
X6.3563Y-5.6375
X6.4562Y-5.6375
X5.5125Y-4.8875
X5.6125Y-4.8875
X1.8562Y-4.1375
X1.9563Y-4.1375
X8.325Y-1.5125
X8.425Y-1.5125
X4.95Y-1.5125
X5.05Y-1.5125
X7.0125Y-4.8875
X7.1125Y-4.8875
X4.2Y-3.3875
X4.3Y-3.3875
X1.6687Y-5.6375
X1.7688Y-5.6375
X4.2Y-1.5125
X4.3Y-1.5125
X11.7Y-1.5125
X11.8Y-1.5125
X1.575Y-2.6375
X1.675Y-2.6375
X3.825Y-2.6375
X3.925Y-2.6375
X10.575Y-2.6375
X10.675Y-2.6375
X9.2625Y-4.8875
X9.3625Y-4.8875
X16.45Y-3.5125
X16.45Y-3.6125
X2.0437Y-4.8875
X2.1437Y-4.8875
X9.45Y-3.3875
X9.55Y-3.3875
T5
X8.225Y-1.2125
X8.2766Y-1.155
X8.4734Y-1.1353
X8.475Y-1.1125
X4.85Y-1.2125
X4.9016Y-1.155
X5.0984Y-1.1353
X5.1Y-1.1125
X6.9125Y-4.5875
X6.9641Y-4.53
X7.1609Y-4.5103
X7.1625Y-4.4875
X4.1Y-3.0875
X4.1516Y-3.03
X4.3484Y-3.0103
X4.35Y-2.9875
X1.5687Y-5.3375
X1.6203Y-5.28
X1.8172Y-5.2603
X1.8187Y-5.2375
X4.1Y-1.2125
X4.1516Y-1.155
X4.3484Y-1.1353
X4.35Y-1.1125
X11.6Y-1.2125
X11.6516Y-1.155
X11.8484Y-1.1353
X11.85Y-1.1125
X1.475Y-2.3375
X1.5266Y-2.28
X1.7234Y-2.2603
X1.725Y-2.2375
X3.725Y-2.3375
X3.7766Y-2.28
X3.9734Y-2.2603
X3.975Y-2.2375
X10.475Y-2.3375
X10.5266Y-2.28
X10.7234Y-2.2603
X10.725Y-2.2375
X9.1625Y-4.5875
X9.2141Y-4.53
X9.4109Y-4.5103
X9.4125Y-4.4875
X16.05Y-3.4625
X16.0728Y-3.4641
X16.0925Y-3.6609
X16.15Y-3.7125
X1.9437Y-4.5875
X1.9953Y-4.53
X2.1922Y-4.5103
X2.1938Y-4.4875
X9.35Y-3.0875
X9.4016Y-3.03
X9.5984Y-3.0103
X9.6Y-2.9875
X16.1Y-1.2125
X16.1516Y-1.155
X16.3484Y-1.1353
X16.35Y-1.1125
X9.1625Y-5.3375
X9.2141Y-5.28
X9.4109Y-5.2603
X9.4125Y-5.2375
X12.725Y-1.2125
X12.7766Y-1.155
X12.9734Y-1.1353
X12.975Y-1.1125
X8.975Y-5.3375
X9.0266Y-5.28
X9.2234Y-5.2603
X9.225Y-5.2375
X14.225Y-5.3375
X14.2766Y-5.28
X14.4734Y-5.2603
X14.475Y-5.2375
X1.5687Y-3.8375
X1.6203Y-3.78
X1.8172Y-3.7603
X1.8187Y-3.7375
X11.225Y-5.3375
X11.2766Y-5.28
X11.4734Y-5.2603
X11.475Y-5.2375
X15.35Y-3.8375
X15.4016Y-3.78
X15.5984Y-3.7603
X15.6Y-3.7375
X15.35Y-3.0875
X15.4016Y-3.03
X15.5984Y-3.0103
X15.6Y-2.9875
X5.7875Y-3.8375
X5.8391Y-3.78
X6.0359Y-3.7603
X6.0375Y-3.7375
X13.85Y-3.0875
X13.9016Y-3.03
X14.0984Y-3.0103
X14.1Y-2.9875
X10.2875Y-3.8375
X10.3391Y-3.78
X10.5359Y-3.7603
X10.5375Y-3.7375
X11.7875Y-3.0875
X11.8391Y-3.03
X12.0359Y-3.0103
X12.0375Y-2.9875
X4.475Y-2.3375
X4.5266Y-2.28
X4.7234Y-2.2603
X4.725Y-2.2375
X3.4438Y-5.3375
X3.4953Y-5.28
X3.6922Y-5.2603
X3.6938Y-5.2375
X12.725Y-3.8375
X12.7766Y-3.78
X12.9734Y-3.7603
X12.975Y-3.7375
X15.35Y-4.5875
X15.4016Y-4.53
X15.5984Y-4.5103
X15.6Y-4.4875
X13.85Y-5.3375
X13.9016Y-5.28
X14.0984Y-5.2603
X14.1Y-5.2375
X10.2875Y-5.3375
X10.3391Y-5.28
X10.5359Y-5.2603
X10.5375Y-5.2375
X3.1625Y-4.5875
X3.2141Y-4.53
X3.4109Y-4.5103
X3.4125Y-4.4875
X3.35Y-1.2125
X3.4016Y-1.155
X3.5984Y-1.1353
X3.6Y-1.1125
X15.35Y-2.3375
X15.4016Y-2.28
X15.5984Y-2.2603
X15.6Y-2.2375
X16.1Y-3.0875
X16.1516Y-3.03
X16.3484Y-3.0103
X16.35Y-2.9875
X11.225Y-2.3375
X11.2766Y-2.28
X11.4734Y-2.2603
X11.475Y-2.2375
X10.85Y-1.2125
X10.9016Y-1.155
X11.0984Y-1.1353
X11.1Y-1.1125
X11.6Y-2.3375
X11.6516Y-2.28
X11.8484Y-2.2603
X11.85Y-2.2375
X13.85Y-2.3375
X13.9016Y-2.28
X14.0984Y-2.2603
X14.1Y-2.2375
X9.5375Y-3.8375
X9.5891Y-3.78
X9.7859Y-3.7603
X9.7875Y-3.7375
X8.975Y-2.3375
X9.0266Y-2.28
X9.2234Y-2.2603
X9.225Y-2.2375
X12.725Y-4.5875
X12.7766Y-4.53
X12.9734Y-4.5103
X12.975Y-4.4875
X2.225Y-2.3375
X2.2766Y-2.28
X2.4734Y-2.2603
X2.475Y-2.2375
X5.0375Y-3.8375
X5.0891Y-3.78
X5.2859Y-3.7603
X5.2875Y-3.7375
X4.6625Y-4.5875
X4.7141Y-4.53
X4.9109Y-4.5103
X4.9125Y-4.4875
X16.1Y-4.5875
X16.1516Y-4.53
X16.3484Y-4.5103
X16.35Y-4.4875
X5.6Y-3.0875
X5.6516Y-3.03
X5.8484Y-3.0103
X5.85Y-2.9875
X7.1Y-3.0875
X7.1516Y-3.03
X7.3484Y-3.0103
X7.35Y-2.9875
X16.1Y-3.8375
X16.1516Y-3.78
X16.3484Y-3.7603
X16.35Y-3.7375
X14.6Y-2.3375
X14.6516Y-2.28
X14.8484Y-2.2603
X14.85Y-2.2375
X8.0375Y-3.8375
X8.0891Y-3.78
X8.2859Y-3.7603
X8.2875Y-3.7375
X5.975Y-1.2125
X6.0266Y-1.155
X6.2234Y-1.1353
X6.225Y-1.1125
X11.975Y-2.3375
X12.0266Y-2.28
X12.2234Y-2.2603
X12.225Y-2.2375
X14.6Y-4.5875
X14.6516Y-4.53
X14.8484Y-4.5103
X14.85Y-4.4875
X2.975Y-2.3375
X3.0266Y-2.28
X3.2234Y-2.2603
X3.225Y-2.2375
X7.475Y-2.3375
X7.5266Y-2.28
X7.7234Y-2.2603
X7.725Y-2.2375
X12.725Y-2.3375
X12.7766Y-2.28
X12.9734Y-2.2603
X12.975Y-2.2375
X5.975Y-2.3375
X6.0266Y-2.28
X6.2234Y-2.2603
X6.225Y-2.2375
X4.2875Y-3.8375
X4.3391Y-3.78
X4.5359Y-3.7603
X4.5375Y-3.7375
X10.9437Y-4.5875
X10.9953Y-4.53
X11.1922Y-4.5103
X11.1937Y-4.4875
X11.975Y-4.5875
X12.0266Y-4.53
X12.2234Y-4.5103
X12.225Y-4.4875
X9.725Y-5.3375
X9.7766Y-5.28
X9.9734Y-5.2603
X9.975Y-5.2375
X3.5375Y-3.8375
X3.5891Y-3.78
X3.7859Y-3.7603
X3.7875Y-3.7375
X3.35Y-3.0875
X3.4016Y-3.03
X3.5984Y-3.0103
X3.6Y-2.9875
X2.6Y-3.0875
X2.6516Y-3.03
X2.8484Y-3.0103
X2.85Y-2.9875
X13.85Y-1.2125
X13.9016Y-1.155
X14.0984Y-1.1353
X14.1Y-1.1125
X6.5375Y-3.8375
X6.5891Y-3.78
X6.7859Y-3.7603
X6.7875Y-3.7375
X8.7875Y-3.8375
X8.8391Y-3.78
X9.0359Y-3.7603
X9.0375Y-3.7375
X14.6Y-1.2125
X14.6516Y-1.155
X14.8484Y-1.1353
X14.85Y-1.1125
X13.85Y-3.8375
X13.9016Y-3.78
X14.0984Y-3.7603
X14.1Y-3.7375
X7.2875Y-3.8375
X7.3391Y-3.78
X7.5359Y-3.7603
X7.5375Y-3.7375
X11.975Y-5.3375
X12.0266Y-5.28
X12.2234Y-5.2603
X12.225Y-5.2375
X12.725Y-3.0875
X12.7766Y-3.03
X12.9734Y-3.0103
X12.975Y-2.9875
X9.9125Y-4.5875
X9.9641Y-4.53
X10.1609Y-4.5103
X10.1625Y-4.4875
X5.225Y-2.3375
X5.2766Y-2.28
X5.4734Y-2.2603
X5.475Y-2.2375
X9.725Y-2.3375
X9.7766Y-2.28
X9.9734Y-2.2603
X9.975Y-2.2375
X16.1Y-5.3375
X16.1516Y-5.28
X16.3484Y-5.2603
X16.35Y-5.2375
X16.05Y-4.9625
X16.0728Y-4.9641
X16.0925Y-5.1609
X16.15Y-5.2125
X8.6Y-3.0875
X8.6516Y-3.03
X8.8484Y-3.0103
X8.85Y-2.9875
X10.1Y-1.2125
X10.1516Y-1.155
X10.3484Y-1.1353
X10.35Y-1.1125
X7.6625Y-4.5875
X7.7141Y-4.53
X7.9109Y-4.5103
X7.9125Y-4.4875
X7.475Y-1.2125
X7.5266Y-1.155
X7.7234Y-1.1353
X7.725Y-1.1125
X16.1Y-2.3375
X16.1516Y-2.28
X16.3484Y-2.2603
X16.35Y-2.2375
X13.85Y-4.5875
X13.9016Y-4.53
X14.0984Y-4.5103
X14.1Y-4.4875
X10.1Y-3.0875
X10.1516Y-3.03
X10.3484Y-3.0103
X10.35Y-2.9875
X10.85Y-3.0875
X10.9016Y-3.03
X11.0984Y-3.0103
X11.1Y-2.9875
X1.475Y-1.2125
X1.5266Y-1.155
X1.7234Y-1.1353
X1.725Y-1.1125
X8.4125Y-4.5875
X8.4641Y-4.53
X8.6609Y-4.5103
X8.6625Y-4.4875
X1.6625Y-3.0875
X1.7141Y-3.03
X1.9109Y-3.0103
X1.9125Y-2.9875
X8.225Y-2.3375
X8.2766Y-2.28
X8.4734Y-2.2603
X8.475Y-2.2375
X4.85Y-3.0875
X4.9016Y-3.03
X5.0984Y-3.0103
X5.1Y-2.9875
X15.35Y-5.3375
X15.4016Y-5.28
X15.5984Y-5.2603
X15.6Y-5.2375
X10.475Y-5.3375
X10.5266Y-5.28
X10.7234Y-5.2603
X10.725Y-5.2375
X3.9125Y-4.5875
X3.9641Y-4.53
X4.1609Y-4.5103
X4.1625Y-4.4875
X5.975Y-5.3375
X6.0266Y-5.28
X6.2234Y-5.2603
X6.225Y-5.2375
X6.35Y-3.0875
X6.4016Y-3.03
X6.5984Y-3.0103
X6.6Y-2.9875
X14.6Y-5.3375
X14.6516Y-5.28
X14.8484Y-5.2603
X14.85Y-5.2375
X14.6Y-3.0875
X14.6516Y-3.03
X14.8484Y-3.0103
X14.85Y-2.9875
X9.35Y-1.2125
X9.4016Y-1.155
X9.5984Y-1.1353
X9.6Y-1.1125
X14.6Y-3.8375
X14.6516Y-3.78
X14.8484Y-3.7603
X14.85Y-3.7375
X1.6625Y-5.3375
X1.7141Y-5.28
X1.9109Y-5.2603
X1.9125Y-5.2375
X6.725Y-1.2125
X6.7766Y-1.155
X6.9734Y-1.1353
X6.975Y-1.1125
X2.7875Y-5.3375
X2.8391Y-5.28
X3.0359Y-5.2603
X3.0375Y-5.2375
X15.35Y-1.2125
X15.4016Y-1.155
X15.5984Y-1.1353
X15.6Y-1.1125
X7.85Y-3.0875
X7.9016Y-3.03
X8.0984Y-3.0103
X8.1Y-2.9875
X6.1625Y-4.5875
X6.2141Y-4.53
X6.4109Y-4.5103
X6.4125Y-4.4875
X2.6Y-1.2125
X2.6516Y-1.155
X2.8484Y-1.1353
X2.85Y-1.1125
X2.7875Y-3.8375
X2.8391Y-3.78
X3.0359Y-3.7603
X3.0375Y-3.7375
X2.5063Y-5.3375
X2.5578Y-5.28
X2.7547Y-5.2603
X2.7563Y-5.2375
X11.5062Y-3.8375
X11.5578Y-3.78
X11.7547Y-3.7603
X11.7562Y-3.7375
X6.725Y-2.3375
X6.7766Y-2.28
X6.9734Y-2.2603
X6.975Y-2.2375
X12.725Y-5.3375
X12.7766Y-5.28
X12.9734Y-5.2603
X12.975Y-5.2375
X6.2562Y-5.3375
X6.3078Y-5.28
X6.5047Y-5.2603
X6.5062Y-5.2375
X5.4125Y-4.5875
X5.4641Y-4.53
X5.6609Y-4.5103
X5.6625Y-4.4875
X1.7562Y-3.8375
X1.8078Y-3.78
X2.0047Y-3.7603
X2.0063Y-3.7375
T2
X13.2674Y-0.9968G85X13.2674Y-1.0204
G05
X13.2674Y-1.1515G85X13.2674Y-1.1948
G05
X13.6076Y-0.9968G85X13.6076Y-1.0204
G05
X13.6076Y-1.1515G85X13.6076Y-1.1948
G05
T0
M30
