G04 #@! TF.GenerationSoftware,KiCad,Pcbnew,(5.0.0)*
G04 #@! TF.CreationDate,2019-01-27T03:00:44-08:00*
G04 #@! TF.ProjectId,Voyager97,566F796167657239372E6B696361645F,rev?*
G04 #@! TF.SameCoordinates,Original*
G04 #@! TF.FileFunction,Copper,L1,Top,Signal*
G04 #@! TF.FilePolarity,Positive*
%FSLAX46Y46*%
G04 Gerber Fmt 4.6, Leading zero omitted, Abs format (unit mm)*
G04 Created by KiCad (PCBNEW (5.0.0)) date 01/27/19 03:00:44*
%MOMM*%
%LPD*%
G01*
G04 APERTURE LIST*
G04 #@! TA.AperFunction,ComponentPad*
%ADD10R,1.905000X1.905000*%
G04 #@! TD*
G04 #@! TA.AperFunction,ComponentPad*
%ADD11C,1.905000*%
G04 #@! TD*
G04 #@! TA.AperFunction,ComponentPad*
%ADD12C,2.250000*%
G04 #@! TD*
G04 #@! TA.AperFunction,Conductor*
%ADD13C,2.250000*%
G04 #@! TD*
G04 #@! TA.AperFunction,ComponentPad*
%ADD14C,1.700000*%
G04 #@! TD*
G04 #@! TA.AperFunction,ComponentPad*
%ADD15R,1.700000X1.700000*%
G04 #@! TD*
G04 #@! TA.AperFunction,ComponentPad*
%ADD16O,1.000000X1.600000*%
G04 #@! TD*
G04 #@! TA.AperFunction,ComponentPad*
%ADD17O,1.000000X2.100000*%
G04 #@! TD*
G04 #@! TA.AperFunction,ViaPad*
%ADD18C,0.600000*%
G04 #@! TD*
G04 #@! TA.AperFunction,Conductor*
%ADD19C,0.254000*%
G04 #@! TD*
G04 #@! TA.AperFunction,Conductor*
%ADD20C,0.635000*%
G04 #@! TD*
G04 #@! TA.AperFunction,Conductor*
%ADD21C,0.381000*%
G04 #@! TD*
G04 APERTURE END LIST*
D10*
G04 #@! TO.P,MX_E1,4*
G04 #@! TO.N,Net-(MX_E1-Pad4)*
X109220000Y-86042500D03*
D11*
G04 #@! TO.P,MX_E1,3*
G04 #@! TO.N,+5V*
X106680000Y-86042500D03*
D12*
G04 #@! TO.P,MX_E1,1*
G04 #@! TO.N,COL3*
X105450000Y-76962500D03*
X104795001Y-77692500D03*
D13*
G04 #@! TD*
G04 #@! TO.N,COL3*
G04 #@! TO.C,MX_E1*
X104140000Y-78422500D02*
X105450002Y-76962500D01*
D12*
G04 #@! TO.P,MX_E1,2*
G04 #@! TO.N,Net-(D38-Pad2)*
X110490000Y-75882500D03*
X110470000Y-76172500D03*
D13*
G04 #@! TD*
G04 #@! TO.N,Net-(D38-Pad2)*
G04 #@! TO.C,MX_E1*
X110450000Y-76462500D02*
X110490000Y-75882500D01*
D12*
G04 #@! TO.P,BS2,2*
G04 #@! TO.N,Net-(BS2-Pad2)*
X310495000Y-57122500D03*
D13*
G04 #@! TD*
G04 #@! TO.N,Net-(BS2-Pad2)*
G04 #@! TO.C,BS2*
X310475000Y-57412500D02*
X310515000Y-56832500D01*
D12*
G04 #@! TO.P,BS2,2*
G04 #@! TO.N,Net-(BS2-Pad2)*
X310515000Y-56832500D03*
G04 #@! TO.P,BS2,1*
G04 #@! TO.N,COL12*
X304820001Y-58642500D03*
D13*
G04 #@! TD*
G04 #@! TO.N,COL12*
G04 #@! TO.C,BS2*
X304165000Y-59372500D02*
X305475002Y-57912500D01*
D12*
G04 #@! TO.P,BS2,1*
G04 #@! TO.N,COL12*
X305475000Y-57912500D03*
D11*
G04 #@! TO.P,BS2,3*
G04 #@! TO.N,+5V*
X306705000Y-66992500D03*
D10*
G04 #@! TO.P,BS2,4*
G04 #@! TO.N,Net-(BS2-Pad4)*
X309245000Y-66992500D03*
G04 #@! TD*
D12*
G04 #@! TO.P,BS1-1,2*
G04 #@! TO.N,Net-(BS1-1-Pad2)*
X300970000Y-57122500D03*
D13*
G04 #@! TD*
G04 #@! TO.N,Net-(BS1-1-Pad2)*
G04 #@! TO.C,BS1-1*
X300950000Y-57412500D02*
X300990000Y-56832500D01*
D12*
G04 #@! TO.P,BS1-1,2*
G04 #@! TO.N,Net-(BS1-1-Pad2)*
X300990000Y-56832500D03*
G04 #@! TO.P,BS1-1,1*
G04 #@! TO.N,COL13*
X295295001Y-58642500D03*
D13*
G04 #@! TD*
G04 #@! TO.N,COL13*
G04 #@! TO.C,BS1-1*
X294640000Y-59372500D02*
X295950002Y-57912500D01*
D12*
G04 #@! TO.P,BS1-1,1*
G04 #@! TO.N,COL13*
X295950000Y-57912500D03*
D11*
G04 #@! TO.P,BS1-1,3*
G04 #@! TO.N,+5V*
X297180000Y-66992500D03*
D10*
G04 #@! TO.P,BS1-1,4*
G04 #@! TO.N,Net-(BS1-1-Pad4)*
X299720000Y-66992500D03*
G04 #@! TD*
G04 #@! TO.P,BS1-2,4*
G04 #@! TO.N,Net-(BS1-1-Pad4)*
X290195000Y-66992500D03*
D11*
G04 #@! TO.P,BS1-2,3*
G04 #@! TO.N,+5V*
X287655000Y-66992500D03*
D12*
G04 #@! TO.P,BS1-2,1*
G04 #@! TO.N,COL13*
X286425000Y-57912500D03*
X285770001Y-58642500D03*
D13*
G04 #@! TD*
G04 #@! TO.N,COL13*
G04 #@! TO.C,BS1-2*
X285115000Y-59372500D02*
X286425002Y-57912500D01*
D12*
G04 #@! TO.P,BS1-2,2*
G04 #@! TO.N,Net-(BS1-1-Pad2)*
X291465000Y-56832500D03*
X291445000Y-57122500D03*
D13*
G04 #@! TD*
G04 #@! TO.N,Net-(BS1-1-Pad2)*
G04 #@! TO.C,BS1-2*
X291425000Y-57412500D02*
X291465000Y-56832500D01*
D10*
G04 #@! TO.P,CL1-1,4*
G04 #@! TO.N,Net-(CL1-1-Pad4)*
X49688750Y-105092500D03*
D11*
G04 #@! TO.P,CL1-1,3*
G04 #@! TO.N,+5V*
X47148750Y-105092500D03*
D12*
G04 #@! TO.P,CL1-1,1*
G04 #@! TO.N,COL0*
X45918750Y-96012500D03*
X45263751Y-96742500D03*
D13*
G04 #@! TD*
G04 #@! TO.N,COL0*
G04 #@! TO.C,CL1-1*
X44608750Y-97472500D02*
X45918752Y-96012500D01*
D12*
G04 #@! TO.P,CL1-1,2*
G04 #@! TO.N,Net-(CL1-1-Pad2)*
X50958750Y-94932500D03*
X50938750Y-95222500D03*
D13*
G04 #@! TD*
G04 #@! TO.N,Net-(CL1-1-Pad2)*
G04 #@! TO.C,CL1-1*
X50918750Y-95512500D02*
X50958750Y-94932500D01*
D12*
G04 #@! TO.P,CL1-2,2*
G04 #@! TO.N,COL0*
X46176250Y-95222500D03*
D13*
G04 #@! TD*
G04 #@! TO.N,COL0*
G04 #@! TO.C,CL1-2*
X46156250Y-95512500D02*
X46196250Y-94932500D01*
D12*
G04 #@! TO.P,CL1-2,2*
G04 #@! TO.N,COL0*
X46196250Y-94932500D03*
G04 #@! TO.P,CL1-2,1*
G04 #@! TO.N,Net-(CL1-1-Pad2)*
X40501251Y-96742500D03*
D13*
G04 #@! TD*
G04 #@! TO.N,Net-(CL1-1-Pad2)*
G04 #@! TO.C,CL1-2*
X39846250Y-97472500D02*
X41156252Y-96012500D01*
D12*
G04 #@! TO.P,CL1-2,1*
G04 #@! TO.N,Net-(CL1-1-Pad2)*
X41156250Y-96012500D03*
D11*
G04 #@! TO.P,CL1-2,3*
G04 #@! TO.N,+5V*
X44926250Y-105092500D03*
D10*
G04 #@! TO.P,CL1-2,4*
G04 #@! TO.N,Net-(CL1-1-Pad4)*
X42386250Y-105092500D03*
G04 #@! TD*
D14*
G04 #@! TO.P,J1,1*
G04 #@! TO.N,MISO*
X373380000Y-50165000D03*
G04 #@! TO.P,J1,2*
G04 #@! TO.N,+5V*
X375920000Y-50165000D03*
G04 #@! TO.P,J1,3*
G04 #@! TO.N,SCK*
X373380000Y-47625000D03*
G04 #@! TO.P,J1,4*
G04 #@! TO.N,MOSI*
X375920000Y-47625000D03*
G04 #@! TO.P,J1,5*
G04 #@! TO.N,RESET*
X373380000Y-45085000D03*
D15*
G04 #@! TO.P,J1,6*
G04 #@! TO.N,GND*
X375920000Y-45085000D03*
G04 #@! TD*
D12*
G04 #@! TO.P,LM1-1,2*
G04 #@! TO.N,Net-(D84-Pad2)*
X46176250Y-133322500D03*
D13*
G04 #@! TD*
G04 #@! TO.N,Net-(D84-Pad2)*
G04 #@! TO.C,LM1-1*
X46156250Y-133612500D02*
X46196250Y-133032500D01*
D12*
G04 #@! TO.P,LM1-1,2*
G04 #@! TO.N,Net-(D84-Pad2)*
X46196250Y-133032500D03*
G04 #@! TO.P,LM1-1,1*
G04 #@! TO.N,COL0*
X40501251Y-134842500D03*
D13*
G04 #@! TD*
G04 #@! TO.N,COL0*
G04 #@! TO.C,LM1-1*
X39846250Y-135572500D02*
X41156252Y-134112500D01*
D12*
G04 #@! TO.P,LM1-1,1*
G04 #@! TO.N,COL0*
X41156250Y-134112500D03*
D11*
G04 #@! TO.P,LM1-1,3*
G04 #@! TO.N,+5V*
X42386250Y-143192500D03*
D10*
G04 #@! TO.P,LM1-1,4*
G04 #@! TO.N,Net-(LM1-1-Pad4)*
X44926250Y-143192500D03*
G04 #@! TD*
G04 #@! TO.P,LM1-2,4*
G04 #@! TO.N,Net-(LM1-1-Pad4)*
X44767500Y-143192500D03*
D11*
G04 #@! TO.P,LM1-2,3*
G04 #@! TO.N,+5V*
X47307500Y-143192500D03*
D12*
G04 #@! TO.P,LM1-2,1*
G04 #@! TO.N,COL0*
X43537500Y-134112500D03*
X42882501Y-134842500D03*
D13*
G04 #@! TD*
G04 #@! TO.N,COL0*
G04 #@! TO.C,LM1-2*
X42227500Y-135572500D02*
X43537502Y-134112500D01*
D12*
G04 #@! TO.P,LM1-2,2*
G04 #@! TO.N,Net-(D84-Pad2)*
X48577500Y-133032500D03*
X48557500Y-133322500D03*
D13*
G04 #@! TD*
G04 #@! TO.N,Net-(D84-Pad2)*
G04 #@! TO.C,LM1-2*
X48537500Y-133612500D02*
X48577500Y-133032500D01*
D10*
G04 #@! TO.P,LM2-1,4*
G04 #@! TO.N,Net-(LM2-1-Pad4)*
X68738750Y-143192500D03*
D11*
G04 #@! TO.P,LM2-1,3*
G04 #@! TO.N,+5V*
X66198750Y-143192500D03*
D12*
G04 #@! TO.P,LM2-1,1*
G04 #@! TO.N,COL1*
X64968750Y-134112500D03*
X64313751Y-134842500D03*
D13*
G04 #@! TD*
G04 #@! TO.N,COL1*
G04 #@! TO.C,LM2-1*
X63658750Y-135572500D02*
X64968752Y-134112500D01*
D12*
G04 #@! TO.P,LM2-1,2*
G04 #@! TO.N,Net-(D85-Pad2)*
X70008750Y-133032500D03*
X69988750Y-133322500D03*
D13*
G04 #@! TD*
G04 #@! TO.N,Net-(D85-Pad2)*
G04 #@! TO.C,LM2-1*
X69968750Y-133612500D02*
X70008750Y-133032500D01*
D12*
G04 #@! TO.P,LM3-1,2*
G04 #@! TO.N,Net-(D86-Pad2)*
X93801250Y-133322500D03*
D13*
G04 #@! TD*
G04 #@! TO.N,Net-(D86-Pad2)*
G04 #@! TO.C,LM3-1*
X93781250Y-133612500D02*
X93821250Y-133032500D01*
D12*
G04 #@! TO.P,LM3-1,2*
G04 #@! TO.N,Net-(D86-Pad2)*
X93821250Y-133032500D03*
G04 #@! TO.P,LM3-1,1*
G04 #@! TO.N,COL2*
X88126251Y-134842500D03*
D13*
G04 #@! TD*
G04 #@! TO.N,COL2*
G04 #@! TO.C,LM3-1*
X87471250Y-135572500D02*
X88781252Y-134112500D01*
D12*
G04 #@! TO.P,LM3-1,1*
G04 #@! TO.N,COL2*
X88781250Y-134112500D03*
D11*
G04 #@! TO.P,LM3-1,3*
G04 #@! TO.N,+5V*
X90011250Y-143192500D03*
D10*
G04 #@! TO.P,LM3-1,4*
G04 #@! TO.N,Net-(LM3-1-Pad4)*
X92551250Y-143192500D03*
G04 #@! TD*
G04 #@! TO.P,LS1-1,4*
G04 #@! TO.N,Net-(LS1-1-Pad4)*
X54451250Y-124142500D03*
D11*
G04 #@! TO.P,LS1-1,3*
G04 #@! TO.N,+5V*
X51911250Y-124142500D03*
D12*
G04 #@! TO.P,LS1-1,1*
G04 #@! TO.N,COL0*
X50681250Y-115062500D03*
X50026251Y-115792500D03*
D13*
G04 #@! TD*
G04 #@! TO.N,COL0*
G04 #@! TO.C,LS1-1*
X49371250Y-116522500D02*
X50681252Y-115062500D01*
D12*
G04 #@! TO.P,LS1-1,2*
G04 #@! TO.N,Net-(D67-Pad2)*
X55721250Y-113982500D03*
X55701250Y-114272500D03*
D13*
G04 #@! TD*
G04 #@! TO.N,Net-(D67-Pad2)*
G04 #@! TO.C,LS1-1*
X55681250Y-114562500D02*
X55721250Y-113982500D01*
D12*
G04 #@! TO.P,MX_\002C1,2*
G04 #@! TO.N,Net-(D75-Pad2)*
X220007500Y-114272500D03*
D13*
G04 #@! TD*
G04 #@! TO.N,Net-(D75-Pad2)*
G04 #@! TO.C,MX_\002C1*
X219987500Y-114562500D02*
X220027500Y-113982500D01*
D12*
G04 #@! TO.P,MX_\002C1,2*
G04 #@! TO.N,Net-(D75-Pad2)*
X220027500Y-113982500D03*
G04 #@! TO.P,MX_\002C1,1*
G04 #@! TO.N,COL8*
X214332501Y-115792500D03*
D13*
G04 #@! TD*
G04 #@! TO.N,COL8*
G04 #@! TO.C,MX_\002C1*
X213677500Y-116522500D02*
X214987502Y-115062500D01*
D12*
G04 #@! TO.P,MX_\002C1,1*
G04 #@! TO.N,COL8*
X214987500Y-115062500D03*
D11*
G04 #@! TO.P,MX_\002C1,3*
G04 #@! TO.N,+5V*
X216217500Y-124142500D03*
D10*
G04 #@! TO.P,MX_\002C1,4*
G04 #@! TO.N,Net-(MX_\002C1-Pad4)*
X218757500Y-124142500D03*
G04 #@! TD*
G04 #@! TO.P,MX_.1,4*
G04 #@! TO.N,Net-(MX_.1-Pad4)*
X237807500Y-124142500D03*
D11*
G04 #@! TO.P,MX_.1,3*
G04 #@! TO.N,+5V*
X235267500Y-124142500D03*
D12*
G04 #@! TO.P,MX_.1,1*
G04 #@! TO.N,COL9*
X234037500Y-115062500D03*
X233382501Y-115792500D03*
D13*
G04 #@! TD*
G04 #@! TO.N,COL9*
G04 #@! TO.C,MX_.1*
X232727500Y-116522500D02*
X234037502Y-115062500D01*
D12*
G04 #@! TO.P,MX_.1,2*
G04 #@! TO.N,Net-(D76-Pad2)*
X239077500Y-113982500D03*
X239057500Y-114272500D03*
D13*
G04 #@! TD*
G04 #@! TO.N,Net-(D76-Pad2)*
G04 #@! TO.C,MX_.1*
X239037500Y-114562500D02*
X239077500Y-113982500D01*
D10*
G04 #@! TO.P,MX_#1,4*
G04 #@! TO.N,Net-(MX_#1-Pad4)*
X61595000Y-66992500D03*
D11*
G04 #@! TO.P,MX_#1,3*
G04 #@! TO.N,+5V*
X59055000Y-66992500D03*
D12*
G04 #@! TO.P,MX_#1,1*
G04 #@! TO.N,COL1*
X57825000Y-57912500D03*
X57170001Y-58642500D03*
D13*
G04 #@! TD*
G04 #@! TO.N,COL1*
G04 #@! TO.C,MX_#1*
X56515000Y-59372500D02*
X57825002Y-57912500D01*
D12*
G04 #@! TO.P,MX_#1,2*
G04 #@! TO.N,Net-(D18-Pad2)*
X62865000Y-56832500D03*
X62845000Y-57122500D03*
D13*
G04 #@! TD*
G04 #@! TO.N,Net-(D18-Pad2)*
G04 #@! TO.C,MX_#1*
X62825000Y-57412500D02*
X62865000Y-56832500D01*
D12*
G04 #@! TO.P,MX_#2,2*
G04 #@! TO.N,Net-(D19-Pad2)*
X81895000Y-57122500D03*
D13*
G04 #@! TD*
G04 #@! TO.N,Net-(D19-Pad2)*
G04 #@! TO.C,MX_#2*
X81875000Y-57412500D02*
X81915000Y-56832500D01*
D12*
G04 #@! TO.P,MX_#2,2*
G04 #@! TO.N,Net-(D19-Pad2)*
X81915000Y-56832500D03*
G04 #@! TO.P,MX_#2,1*
G04 #@! TO.N,COL2*
X76220001Y-58642500D03*
D13*
G04 #@! TD*
G04 #@! TO.N,COL2*
G04 #@! TO.C,MX_#2*
X75565000Y-59372500D02*
X76875002Y-57912500D01*
D12*
G04 #@! TO.P,MX_#2,1*
G04 #@! TO.N,COL2*
X76875000Y-57912500D03*
D11*
G04 #@! TO.P,MX_#2,3*
G04 #@! TO.N,+5V*
X78105000Y-66992500D03*
D10*
G04 #@! TO.P,MX_#2,4*
G04 #@! TO.N,Net-(MX_#2-Pad4)*
X80645000Y-66992500D03*
G04 #@! TD*
D12*
G04 #@! TO.P,MX_#3,2*
G04 #@! TO.N,Net-(D20-Pad2)*
X100945000Y-57122500D03*
D13*
G04 #@! TD*
G04 #@! TO.N,Net-(D20-Pad2)*
G04 #@! TO.C,MX_#3*
X100925000Y-57412500D02*
X100965000Y-56832500D01*
D12*
G04 #@! TO.P,MX_#3,2*
G04 #@! TO.N,Net-(D20-Pad2)*
X100965000Y-56832500D03*
G04 #@! TO.P,MX_#3,1*
G04 #@! TO.N,COL3*
X95270001Y-58642500D03*
D13*
G04 #@! TD*
G04 #@! TO.N,COL3*
G04 #@! TO.C,MX_#3*
X94615000Y-59372500D02*
X95925002Y-57912500D01*
D12*
G04 #@! TO.P,MX_#3,1*
G04 #@! TO.N,COL3*
X95925000Y-57912500D03*
D11*
G04 #@! TO.P,MX_#3,3*
G04 #@! TO.N,+5V*
X97155000Y-66992500D03*
D10*
G04 #@! TO.P,MX_#3,4*
G04 #@! TO.N,Net-(MX_#3-Pad4)*
X99695000Y-66992500D03*
G04 #@! TD*
G04 #@! TO.P,MX_#4,4*
G04 #@! TO.N,Net-(MX_#4-Pad4)*
X118745000Y-66992500D03*
D11*
G04 #@! TO.P,MX_#4,3*
G04 #@! TO.N,+5V*
X116205000Y-66992500D03*
D12*
G04 #@! TO.P,MX_#4,1*
G04 #@! TO.N,COL4*
X114975000Y-57912500D03*
X114320001Y-58642500D03*
D13*
G04 #@! TD*
G04 #@! TO.N,COL4*
G04 #@! TO.C,MX_#4*
X113665000Y-59372500D02*
X114975002Y-57912500D01*
D12*
G04 #@! TO.P,MX_#4,2*
G04 #@! TO.N,Net-(D21-Pad2)*
X120015000Y-56832500D03*
X119995000Y-57122500D03*
D13*
G04 #@! TD*
G04 #@! TO.N,Net-(D21-Pad2)*
G04 #@! TO.C,MX_#4*
X119975000Y-57412500D02*
X120015000Y-56832500D01*
D12*
G04 #@! TO.P,MX_#5,2*
G04 #@! TO.N,Net-(D22-Pad2)*
X139045000Y-57122500D03*
D13*
G04 #@! TD*
G04 #@! TO.N,Net-(D22-Pad2)*
G04 #@! TO.C,MX_#5*
X139025000Y-57412500D02*
X139065000Y-56832500D01*
D12*
G04 #@! TO.P,MX_#5,2*
G04 #@! TO.N,Net-(D22-Pad2)*
X139065000Y-56832500D03*
G04 #@! TO.P,MX_#5,1*
G04 #@! TO.N,COL5*
X133370001Y-58642500D03*
D13*
G04 #@! TD*
G04 #@! TO.N,COL5*
G04 #@! TO.C,MX_#5*
X132715000Y-59372500D02*
X134025002Y-57912500D01*
D12*
G04 #@! TO.P,MX_#5,1*
G04 #@! TO.N,COL5*
X134025000Y-57912500D03*
D11*
G04 #@! TO.P,MX_#5,3*
G04 #@! TO.N,+5V*
X135255000Y-66992500D03*
D10*
G04 #@! TO.P,MX_#5,4*
G04 #@! TO.N,Net-(MX_#5-Pad4)*
X137795000Y-66992500D03*
G04 #@! TD*
D12*
G04 #@! TO.P,MX_#6,2*
G04 #@! TO.N,Net-(D23-Pad2)*
X158095000Y-57122500D03*
D13*
G04 #@! TD*
G04 #@! TO.N,Net-(D23-Pad2)*
G04 #@! TO.C,MX_#6*
X158075000Y-57412500D02*
X158115000Y-56832500D01*
D12*
G04 #@! TO.P,MX_#6,2*
G04 #@! TO.N,Net-(D23-Pad2)*
X158115000Y-56832500D03*
G04 #@! TO.P,MX_#6,1*
G04 #@! TO.N,COL6*
X152420001Y-58642500D03*
D13*
G04 #@! TD*
G04 #@! TO.N,COL6*
G04 #@! TO.C,MX_#6*
X151765000Y-59372500D02*
X153075002Y-57912500D01*
D12*
G04 #@! TO.P,MX_#6,1*
G04 #@! TO.N,COL6*
X153075000Y-57912500D03*
D11*
G04 #@! TO.P,MX_#6,3*
G04 #@! TO.N,+5V*
X154305000Y-66992500D03*
D10*
G04 #@! TO.P,MX_#6,4*
G04 #@! TO.N,Net-(MX_#6-Pad4)*
X156845000Y-66992500D03*
G04 #@! TD*
G04 #@! TO.P,MX_#7,4*
G04 #@! TO.N,Net-(MX_#7-Pad4)*
X175895000Y-66992500D03*
D11*
G04 #@! TO.P,MX_#7,3*
G04 #@! TO.N,+5V*
X173355000Y-66992500D03*
D12*
G04 #@! TO.P,MX_#7,1*
G04 #@! TO.N,COL7*
X172125000Y-57912500D03*
X171470001Y-58642500D03*
D13*
G04 #@! TD*
G04 #@! TO.N,COL7*
G04 #@! TO.C,MX_#7*
X170815000Y-59372500D02*
X172125002Y-57912500D01*
D12*
G04 #@! TO.P,MX_#7,2*
G04 #@! TO.N,Net-(D24-Pad2)*
X177165000Y-56832500D03*
X177145000Y-57122500D03*
D13*
G04 #@! TD*
G04 #@! TO.N,Net-(D24-Pad2)*
G04 #@! TO.C,MX_#7*
X177125000Y-57412500D02*
X177165000Y-56832500D01*
D10*
G04 #@! TO.P,MX_#8,4*
G04 #@! TO.N,Net-(MX_#8-Pad4)*
X194945000Y-66992500D03*
D11*
G04 #@! TO.P,MX_#8,3*
G04 #@! TO.N,+5V*
X192405000Y-66992500D03*
D12*
G04 #@! TO.P,MX_#8,1*
G04 #@! TO.N,COL8*
X191175000Y-57912500D03*
X190520001Y-58642500D03*
D13*
G04 #@! TD*
G04 #@! TO.N,COL8*
G04 #@! TO.C,MX_#8*
X189865000Y-59372500D02*
X191175002Y-57912500D01*
D12*
G04 #@! TO.P,MX_#8,2*
G04 #@! TO.N,Net-(D25-Pad2)*
X196215000Y-56832500D03*
X196195000Y-57122500D03*
D13*
G04 #@! TD*
G04 #@! TO.N,Net-(D25-Pad2)*
G04 #@! TO.C,MX_#8*
X196175000Y-57412500D02*
X196215000Y-56832500D01*
D10*
G04 #@! TO.P,MX_#9,4*
G04 #@! TO.N,Net-(MX_#9-Pad4)*
X213995000Y-66992500D03*
D11*
G04 #@! TO.P,MX_#9,3*
G04 #@! TO.N,+5V*
X211455000Y-66992500D03*
D12*
G04 #@! TO.P,MX_#9,1*
G04 #@! TO.N,COL9*
X210225000Y-57912500D03*
X209570001Y-58642500D03*
D13*
G04 #@! TD*
G04 #@! TO.N,COL9*
G04 #@! TO.C,MX_#9*
X208915000Y-59372500D02*
X210225002Y-57912500D01*
D12*
G04 #@! TO.P,MX_#9,2*
G04 #@! TO.N,Net-(D26-Pad2)*
X215265000Y-56832500D03*
X215245000Y-57122500D03*
D13*
G04 #@! TD*
G04 #@! TO.N,Net-(D26-Pad2)*
G04 #@! TO.C,MX_#9*
X215225000Y-57412500D02*
X215265000Y-56832500D01*
D10*
G04 #@! TO.P,MX_#0_1,4*
G04 #@! TO.N,Net-(MX_#0_1-Pad4)*
X233045000Y-66992500D03*
D11*
G04 #@! TO.P,MX_#0_1,3*
G04 #@! TO.N,+5V*
X230505000Y-66992500D03*
D12*
G04 #@! TO.P,MX_#0_1,1*
G04 #@! TO.N,COL10*
X229275000Y-57912500D03*
X228620001Y-58642500D03*
D13*
G04 #@! TD*
G04 #@! TO.N,COL10*
G04 #@! TO.C,MX_#0_1*
X227965000Y-59372500D02*
X229275002Y-57912500D01*
D12*
G04 #@! TO.P,MX_#0_1,2*
G04 #@! TO.N,Net-(D27-Pad2)*
X234315000Y-56832500D03*
X234295000Y-57122500D03*
D13*
G04 #@! TD*
G04 #@! TO.N,Net-(D27-Pad2)*
G04 #@! TO.C,MX_#0_1*
X234275000Y-57412500D02*
X234315000Y-56832500D01*
D10*
G04 #@! TO.P,MX_'1,4*
G04 #@! TO.N,Net-(MX_'1-Pad4)*
X266382500Y-105092500D03*
D11*
G04 #@! TO.P,MX_'1,3*
G04 #@! TO.N,+5V*
X263842500Y-105092500D03*
D12*
G04 #@! TO.P,MX_'1,1*
G04 #@! TO.N,COL11*
X262612500Y-96012500D03*
X261957501Y-96742500D03*
D13*
G04 #@! TD*
G04 #@! TO.N,COL11*
G04 #@! TO.C,MX_'1*
X261302500Y-97472500D02*
X262612502Y-96012500D01*
D12*
G04 #@! TO.P,MX_'1,2*
G04 #@! TO.N,Net-(D63-Pad2)*
X267652500Y-94932500D03*
X267632500Y-95222500D03*
D13*
G04 #@! TD*
G04 #@! TO.N,Net-(D63-Pad2)*
G04 #@! TO.C,MX_'1*
X267612500Y-95512500D02*
X267652500Y-94932500D01*
D12*
G04 #@! TO.P,MX_-1,2*
G04 #@! TO.N,Net-(D28-Pad2)*
X253345000Y-57122500D03*
D13*
G04 #@! TD*
G04 #@! TO.N,Net-(D28-Pad2)*
G04 #@! TO.C,MX_-1*
X253325000Y-57412500D02*
X253365000Y-56832500D01*
D12*
G04 #@! TO.P,MX_-1,2*
G04 #@! TO.N,Net-(D28-Pad2)*
X253365000Y-56832500D03*
G04 #@! TO.P,MX_-1,1*
G04 #@! TO.N,COL11*
X247670001Y-58642500D03*
D13*
G04 #@! TD*
G04 #@! TO.N,COL11*
G04 #@! TO.C,MX_-1*
X247015000Y-59372500D02*
X248325002Y-57912500D01*
D12*
G04 #@! TO.P,MX_-1,1*
G04 #@! TO.N,COL11*
X248325000Y-57912500D03*
D11*
G04 #@! TO.P,MX_-1,3*
G04 #@! TO.N,+5V*
X249555000Y-66992500D03*
D10*
G04 #@! TO.P,MX_-1,4*
G04 #@! TO.N,Net-(MX_-1-Pad4)*
X252095000Y-66992500D03*
G04 #@! TD*
G04 #@! TO.P,MX_/1,4*
G04 #@! TO.N,Net-(MX_/1-Pad4)*
X256857500Y-124142500D03*
D11*
G04 #@! TO.P,MX_/1,3*
G04 #@! TO.N,+5V*
X254317500Y-124142500D03*
D12*
G04 #@! TO.P,MX_/1,1*
G04 #@! TO.N,COL10*
X253087500Y-115062500D03*
X252432501Y-115792500D03*
D13*
G04 #@! TD*
G04 #@! TO.N,COL10*
G04 #@! TO.C,MX_/1*
X251777500Y-116522500D02*
X253087502Y-115062500D01*
D12*
G04 #@! TO.P,MX_/1,2*
G04 #@! TO.N,Net-(D77-Pad2)*
X258127500Y-113982500D03*
X258107500Y-114272500D03*
D13*
G04 #@! TD*
G04 #@! TO.N,Net-(D77-Pad2)*
G04 #@! TO.C,MX_/1*
X258087500Y-114562500D02*
X258127500Y-113982500D01*
D10*
G04 #@! TO.P,MX_;1,4*
G04 #@! TO.N,Net-(MX_;1-Pad4)*
X247332500Y-105092500D03*
D11*
G04 #@! TO.P,MX_;1,3*
G04 #@! TO.N,+5V*
X244792500Y-105092500D03*
D12*
G04 #@! TO.P,MX_;1,1*
G04 #@! TO.N,COL10*
X243562500Y-96012500D03*
X242907501Y-96742500D03*
D13*
G04 #@! TD*
G04 #@! TO.N,COL10*
G04 #@! TO.C,MX_;1*
X242252500Y-97472500D02*
X243562502Y-96012500D01*
D12*
G04 #@! TO.P,MX_;1,2*
G04 #@! TO.N,Net-(D62-Pad2)*
X248602500Y-94932500D03*
X248582500Y-95222500D03*
D13*
G04 #@! TD*
G04 #@! TO.N,Net-(D62-Pad2)*
G04 #@! TO.C,MX_;1*
X248562500Y-95512500D02*
X248602500Y-94932500D01*
D12*
G04 #@! TO.P,MX_=1,2*
G04 #@! TO.N,Net-(D29-Pad2)*
X272395000Y-57122500D03*
D13*
G04 #@! TD*
G04 #@! TO.N,Net-(D29-Pad2)*
G04 #@! TO.C,MX_=1*
X272375000Y-57412500D02*
X272415000Y-56832500D01*
D12*
G04 #@! TO.P,MX_=1,2*
G04 #@! TO.N,Net-(D29-Pad2)*
X272415000Y-56832500D03*
G04 #@! TO.P,MX_=1,1*
G04 #@! TO.N,COL12*
X266720001Y-58642500D03*
D13*
G04 #@! TD*
G04 #@! TO.N,COL12*
G04 #@! TO.C,MX_=1*
X266065000Y-59372500D02*
X267375002Y-57912500D01*
D12*
G04 #@! TO.P,MX_=1,1*
G04 #@! TO.N,COL12*
X267375000Y-57912500D03*
D11*
G04 #@! TO.P,MX_=1,3*
G04 #@! TO.N,+5V*
X268605000Y-66992500D03*
D10*
G04 #@! TO.P,MX_=1,4*
G04 #@! TO.N,Net-(MX_=1-Pad4)*
X271145000Y-66992500D03*
G04 #@! TD*
D12*
G04 #@! TO.P,MX_[1,2*
G04 #@! TO.N,Net-(D46-Pad2)*
X262870000Y-76172500D03*
D13*
G04 #@! TD*
G04 #@! TO.N,Net-(D46-Pad2)*
G04 #@! TO.C,MX_[1*
X262850000Y-76462500D02*
X262890000Y-75882500D01*
D12*
G04 #@! TO.P,MX_[1,2*
G04 #@! TO.N,Net-(D46-Pad2)*
X262890000Y-75882500D03*
G04 #@! TO.P,MX_[1,1*
G04 #@! TO.N,COL11*
X257195001Y-77692500D03*
D13*
G04 #@! TD*
G04 #@! TO.N,COL11*
G04 #@! TO.C,MX_[1*
X256540000Y-78422500D02*
X257850002Y-76962500D01*
D12*
G04 #@! TO.P,MX_[1,1*
G04 #@! TO.N,COL11*
X257850000Y-76962500D03*
D11*
G04 #@! TO.P,MX_[1,3*
G04 #@! TO.N,+5V*
X259080000Y-86042500D03*
D10*
G04 #@! TO.P,MX_[1,4*
G04 #@! TO.N,Net-(MX_[1-Pad4)*
X261620000Y-86042500D03*
G04 #@! TD*
G04 #@! TO.P,MX_\005C1,4*
G04 #@! TO.N,Net-(MX_\005C1-Pad4)*
X304482500Y-86042500D03*
D11*
G04 #@! TO.P,MX_\005C1,3*
G04 #@! TO.N,+5V*
X301942500Y-86042500D03*
D12*
G04 #@! TO.P,MX_\005C1,1*
G04 #@! TO.N,COL13*
X300712500Y-76962500D03*
X300057501Y-77692500D03*
D13*
G04 #@! TD*
G04 #@! TO.N,COL13*
G04 #@! TO.C,MX_\005C1*
X299402500Y-78422500D02*
X300712502Y-76962500D01*
D12*
G04 #@! TO.P,MX_\005C1,2*
G04 #@! TO.N,Net-(D48-Pad2)*
X305752500Y-75882500D03*
X305732500Y-76172500D03*
D13*
G04 #@! TD*
G04 #@! TO.N,Net-(D48-Pad2)*
G04 #@! TO.C,MX_\005C1*
X305712500Y-76462500D02*
X305752500Y-75882500D01*
D12*
G04 #@! TO.P,MX_]1,2*
G04 #@! TO.N,Net-(D47-Pad2)*
X281920000Y-76172500D03*
D13*
G04 #@! TD*
G04 #@! TO.N,Net-(D47-Pad2)*
G04 #@! TO.C,MX_]1*
X281900000Y-76462500D02*
X281940000Y-75882500D01*
D12*
G04 #@! TO.P,MX_]1,2*
G04 #@! TO.N,Net-(D47-Pad2)*
X281940000Y-75882500D03*
G04 #@! TO.P,MX_]1,1*
G04 #@! TO.N,COL12*
X276245001Y-77692500D03*
D13*
G04 #@! TD*
G04 #@! TO.N,COL12*
G04 #@! TO.C,MX_]1*
X275590000Y-78422500D02*
X276900002Y-76962500D01*
D12*
G04 #@! TO.P,MX_]1,1*
G04 #@! TO.N,COL12*
X276900000Y-76962500D03*
D11*
G04 #@! TO.P,MX_]1,3*
G04 #@! TO.N,+5V*
X278130000Y-86042500D03*
D10*
G04 #@! TO.P,MX_]1,4*
G04 #@! TO.N,Net-(MX_]1-Pad4)*
X280670000Y-86042500D03*
G04 #@! TD*
D12*
G04 #@! TO.P,MX_`1,2*
G04 #@! TO.N,Net-(D17-Pad2)*
X43795000Y-57122500D03*
D13*
G04 #@! TD*
G04 #@! TO.N,Net-(D17-Pad2)*
G04 #@! TO.C,MX_`1*
X43775000Y-57412500D02*
X43815000Y-56832500D01*
D12*
G04 #@! TO.P,MX_`1,2*
G04 #@! TO.N,Net-(D17-Pad2)*
X43815000Y-56832500D03*
G04 #@! TO.P,MX_`1,1*
G04 #@! TO.N,COL0*
X38120001Y-58642500D03*
D13*
G04 #@! TD*
G04 #@! TO.N,COL0*
G04 #@! TO.C,MX_`1*
X37465000Y-59372500D02*
X38775002Y-57912500D01*
D12*
G04 #@! TO.P,MX_`1,1*
G04 #@! TO.N,COL0*
X38775000Y-57912500D03*
D11*
G04 #@! TO.P,MX_`1,3*
G04 #@! TO.N,+5V*
X40005000Y-66992500D03*
D10*
G04 #@! TO.P,MX_`1,4*
G04 #@! TO.N,Net-(MX_`1-Pad4)*
X42545000Y-66992500D03*
G04 #@! TD*
D12*
G04 #@! TO.P,MX_A1,2*
G04 #@! TO.N,Net-(D53-Pad2)*
X77132500Y-95222500D03*
D13*
G04 #@! TD*
G04 #@! TO.N,Net-(D53-Pad2)*
G04 #@! TO.C,MX_A1*
X77112500Y-95512500D02*
X77152500Y-94932500D01*
D12*
G04 #@! TO.P,MX_A1,2*
G04 #@! TO.N,Net-(D53-Pad2)*
X77152500Y-94932500D03*
G04 #@! TO.P,MX_A1,1*
G04 #@! TO.N,COL1*
X71457501Y-96742500D03*
D13*
G04 #@! TD*
G04 #@! TO.N,COL1*
G04 #@! TO.C,MX_A1*
X70802500Y-97472500D02*
X72112502Y-96012500D01*
D12*
G04 #@! TO.P,MX_A1,1*
G04 #@! TO.N,COL1*
X72112500Y-96012500D03*
D11*
G04 #@! TO.P,MX_A1,3*
G04 #@! TO.N,+5V*
X73342500Y-105092500D03*
D10*
G04 #@! TO.P,MX_A1,4*
G04 #@! TO.N,Net-(MX_A1-Pad4)*
X75882500Y-105092500D03*
G04 #@! TD*
D12*
G04 #@! TO.P,MX_B1,2*
G04 #@! TO.N,Net-(D72-Pad2)*
X162857500Y-114272500D03*
D13*
G04 #@! TD*
G04 #@! TO.N,Net-(D72-Pad2)*
G04 #@! TO.C,MX_B1*
X162837500Y-114562500D02*
X162877500Y-113982500D01*
D12*
G04 #@! TO.P,MX_B1,2*
G04 #@! TO.N,Net-(D72-Pad2)*
X162877500Y-113982500D03*
G04 #@! TO.P,MX_B1,1*
G04 #@! TO.N,COL5*
X157182501Y-115792500D03*
D13*
G04 #@! TD*
G04 #@! TO.N,COL5*
G04 #@! TO.C,MX_B1*
X156527500Y-116522500D02*
X157837502Y-115062500D01*
D12*
G04 #@! TO.P,MX_B1,1*
G04 #@! TO.N,COL5*
X157837500Y-115062500D03*
D11*
G04 #@! TO.P,MX_B1,3*
G04 #@! TO.N,+5V*
X159067500Y-124142500D03*
D10*
G04 #@! TO.P,MX_B1,4*
G04 #@! TO.N,Net-(MX_B1-Pad4)*
X161607500Y-124142500D03*
G04 #@! TD*
D12*
G04 #@! TO.P,MX_C1,2*
G04 #@! TO.N,Net-(D70-Pad2)*
X124757500Y-114272500D03*
D13*
G04 #@! TD*
G04 #@! TO.N,Net-(D70-Pad2)*
G04 #@! TO.C,MX_C1*
X124737500Y-114562500D02*
X124777500Y-113982500D01*
D12*
G04 #@! TO.P,MX_C1,2*
G04 #@! TO.N,Net-(D70-Pad2)*
X124777500Y-113982500D03*
G04 #@! TO.P,MX_C1,1*
G04 #@! TO.N,COL3*
X119082501Y-115792500D03*
D13*
G04 #@! TD*
G04 #@! TO.N,COL3*
G04 #@! TO.C,MX_C1*
X118427500Y-116522500D02*
X119737502Y-115062500D01*
D12*
G04 #@! TO.P,MX_C1,1*
G04 #@! TO.N,COL3*
X119737500Y-115062500D03*
D11*
G04 #@! TO.P,MX_C1,3*
G04 #@! TO.N,+5V*
X120967500Y-124142500D03*
D10*
G04 #@! TO.P,MX_C1,4*
G04 #@! TO.N,Net-(MX_C1-Pad4)*
X123507500Y-124142500D03*
G04 #@! TD*
G04 #@! TO.P,MX_D1,4*
G04 #@! TO.N,Net-(MX_D1-Pad4)*
X113982500Y-105092500D03*
D11*
G04 #@! TO.P,MX_D1,3*
G04 #@! TO.N,+5V*
X111442500Y-105092500D03*
D12*
G04 #@! TO.P,MX_D1,1*
G04 #@! TO.N,COL3*
X110212500Y-96012500D03*
X109557501Y-96742500D03*
D13*
G04 #@! TD*
G04 #@! TO.N,COL3*
G04 #@! TO.C,MX_D1*
X108902500Y-97472500D02*
X110212502Y-96012500D01*
D12*
G04 #@! TO.P,MX_D1,2*
G04 #@! TO.N,Net-(D55-Pad2)*
X115252500Y-94932500D03*
X115232500Y-95222500D03*
D13*
G04 #@! TD*
G04 #@! TO.N,Net-(D55-Pad2)*
G04 #@! TO.C,MX_D1*
X115212500Y-95512500D02*
X115252500Y-94932500D01*
D12*
G04 #@! TO.P,MX_DOWN1,2*
G04 #@! TO.N,Net-(D82-Pad2)*
X310495000Y-133322500D03*
D13*
G04 #@! TD*
G04 #@! TO.N,Net-(D82-Pad2)*
G04 #@! TO.C,MX_DOWN1*
X310475000Y-133612500D02*
X310515000Y-133032500D01*
D12*
G04 #@! TO.P,MX_DOWN1,2*
G04 #@! TO.N,Net-(D82-Pad2)*
X310515000Y-133032500D03*
G04 #@! TO.P,MX_DOWN1,1*
G04 #@! TO.N,COL13*
X304820001Y-134842500D03*
D13*
G04 #@! TD*
G04 #@! TO.N,COL13*
G04 #@! TO.C,MX_DOWN1*
X304165000Y-135572500D02*
X305475002Y-134112500D01*
D12*
G04 #@! TO.P,MX_DOWN1,1*
G04 #@! TO.N,COL13*
X305475000Y-134112500D03*
D11*
G04 #@! TO.P,MX_DOWN1,3*
G04 #@! TO.N,+5V*
X306705000Y-143192500D03*
D10*
G04 #@! TO.P,MX_DOWN1,4*
G04 #@! TO.N,Net-(MX_DOWN1-Pad4)*
X309245000Y-143192500D03*
G04 #@! TD*
G04 #@! TO.P,MX_ESC1,4*
G04 #@! TO.N,Net-(MX_ESC1-Pad4)*
X42545000Y-38417500D03*
D11*
G04 #@! TO.P,MX_ESC1,3*
G04 #@! TO.N,+5V*
X40005000Y-38417500D03*
D12*
G04 #@! TO.P,MX_ESC1,1*
G04 #@! TO.N,COL0*
X38775000Y-29337500D03*
X38120001Y-30067500D03*
D13*
G04 #@! TD*
G04 #@! TO.N,COL0*
G04 #@! TO.C,MX_ESC1*
X37465000Y-30797500D02*
X38775002Y-29337500D01*
D12*
G04 #@! TO.P,MX_ESC1,2*
G04 #@! TO.N,Net-(D1-Pad2)*
X43815000Y-28257500D03*
X43795000Y-28547500D03*
D13*
G04 #@! TD*
G04 #@! TO.N,Net-(D1-Pad2)*
G04 #@! TO.C,MX_ESC1*
X43775000Y-28837500D02*
X43815000Y-28257500D01*
D12*
G04 #@! TO.P,MX_EX1,2*
G04 #@! TO.N,Net-(D14-Pad2)*
X329545000Y-57122500D03*
D13*
G04 #@! TD*
G04 #@! TO.N,Net-(D14-Pad2)*
G04 #@! TO.C,MX_EX1*
X329525000Y-57412500D02*
X329565000Y-56832500D01*
D12*
G04 #@! TO.P,MX_EX1,2*
G04 #@! TO.N,Net-(D14-Pad2)*
X329565000Y-56832500D03*
G04 #@! TO.P,MX_EX1,1*
G04 #@! TO.N,COL14*
X323870001Y-58642500D03*
D13*
G04 #@! TD*
G04 #@! TO.N,COL14*
G04 #@! TO.C,MX_EX1*
X323215000Y-59372500D02*
X324525002Y-57912500D01*
D12*
G04 #@! TO.P,MX_EX1,1*
G04 #@! TO.N,COL14*
X324525000Y-57912500D03*
D11*
G04 #@! TO.P,MX_EX1,3*
G04 #@! TO.N,+5V*
X325755000Y-66992500D03*
D10*
G04 #@! TO.P,MX_EX1,4*
G04 #@! TO.N,Net-(MX_EX1-Pad4)*
X328295000Y-66992500D03*
G04 #@! TD*
D12*
G04 #@! TO.P,MX_EX2,2*
G04 #@! TO.N,Net-(D32-Pad2)*
X329545000Y-76172500D03*
D13*
G04 #@! TD*
G04 #@! TO.N,Net-(D32-Pad2)*
G04 #@! TO.C,MX_EX2*
X329525000Y-76462500D02*
X329565000Y-75882500D01*
D12*
G04 #@! TO.P,MX_EX2,2*
G04 #@! TO.N,Net-(D32-Pad2)*
X329565000Y-75882500D03*
G04 #@! TO.P,MX_EX2,1*
G04 #@! TO.N,COL14*
X323870001Y-77692500D03*
D13*
G04 #@! TD*
G04 #@! TO.N,COL14*
G04 #@! TO.C,MX_EX2*
X323215000Y-78422500D02*
X324525002Y-76962500D01*
D12*
G04 #@! TO.P,MX_EX2,1*
G04 #@! TO.N,COL14*
X324525000Y-76962500D03*
D11*
G04 #@! TO.P,MX_EX2,3*
G04 #@! TO.N,+5V*
X325755000Y-86042500D03*
D10*
G04 #@! TO.P,MX_EX2,4*
G04 #@! TO.N,Net-(MX_EX2-Pad4)*
X328295000Y-86042500D03*
G04 #@! TD*
G04 #@! TO.P,MX_EX3,4*
G04 #@! TO.N,Net-(MX_EX3-Pad4)*
X328295000Y-105092500D03*
D11*
G04 #@! TO.P,MX_EX3,3*
G04 #@! TO.N,+5V*
X325755000Y-105092500D03*
D12*
G04 #@! TO.P,MX_EX3,1*
G04 #@! TO.N,COL14*
X324525000Y-96012500D03*
X323870001Y-96742500D03*
D13*
G04 #@! TD*
G04 #@! TO.N,COL14*
G04 #@! TO.C,MX_EX3*
X323215000Y-97472500D02*
X324525002Y-96012500D01*
D12*
G04 #@! TO.P,MX_EX3,2*
G04 #@! TO.N,Net-(D33-Pad2)*
X329565000Y-94932500D03*
X329545000Y-95222500D03*
D13*
G04 #@! TD*
G04 #@! TO.N,Net-(D33-Pad2)*
G04 #@! TO.C,MX_EX3*
X329525000Y-95512500D02*
X329565000Y-94932500D01*
D10*
G04 #@! TO.P,MX_EX4,4*
G04 #@! TO.N,Net-(MX_EX4-Pad4)*
X328295000Y-124142500D03*
D11*
G04 #@! TO.P,MX_EX4,3*
G04 #@! TO.N,+5V*
X325755000Y-124142500D03*
D12*
G04 #@! TO.P,MX_EX4,1*
G04 #@! TO.N,COL14*
X324525000Y-115062500D03*
X323870001Y-115792500D03*
D13*
G04 #@! TD*
G04 #@! TO.N,COL14*
G04 #@! TO.C,MX_EX4*
X323215000Y-116522500D02*
X324525002Y-115062500D01*
D12*
G04 #@! TO.P,MX_EX4,2*
G04 #@! TO.N,Net-(D80-Pad2)*
X329565000Y-113982500D03*
X329545000Y-114272500D03*
D13*
G04 #@! TD*
G04 #@! TO.N,Net-(D80-Pad2)*
G04 #@! TO.C,MX_EX4*
X329525000Y-114562500D02*
X329565000Y-113982500D01*
D10*
G04 #@! TO.P,MX_F1,4*
G04 #@! TO.N,Net-(MX_F1-Pad4)*
X133032500Y-105092500D03*
D11*
G04 #@! TO.P,MX_F1,3*
G04 #@! TO.N,+5V*
X130492500Y-105092500D03*
D12*
G04 #@! TO.P,MX_F1,1*
G04 #@! TO.N,COL4*
X129262500Y-96012500D03*
X128607501Y-96742500D03*
D13*
G04 #@! TD*
G04 #@! TO.N,COL4*
G04 #@! TO.C,MX_F1*
X127952500Y-97472500D02*
X129262502Y-96012500D01*
D12*
G04 #@! TO.P,MX_F1,2*
G04 #@! TO.N,Net-(D56-Pad2)*
X134302500Y-94932500D03*
X134282500Y-95222500D03*
D13*
G04 #@! TD*
G04 #@! TO.N,Net-(D56-Pad2)*
G04 #@! TO.C,MX_F1*
X134262500Y-95512500D02*
X134302500Y-94932500D01*
D12*
G04 #@! TO.P,MX_FN1,2*
G04 #@! TO.N,Net-(D2-Pad2)*
X72370000Y-28547500D03*
D13*
G04 #@! TD*
G04 #@! TO.N,Net-(D2-Pad2)*
G04 #@! TO.C,MX_FN1*
X72350000Y-28837500D02*
X72390000Y-28257500D01*
D12*
G04 #@! TO.P,MX_FN1,2*
G04 #@! TO.N,Net-(D2-Pad2)*
X72390000Y-28257500D03*
G04 #@! TO.P,MX_FN1,1*
G04 #@! TO.N,COL2*
X66695001Y-30067500D03*
D13*
G04 #@! TD*
G04 #@! TO.N,COL2*
G04 #@! TO.C,MX_FN1*
X66040000Y-30797500D02*
X67350002Y-29337500D01*
D12*
G04 #@! TO.P,MX_FN1,1*
G04 #@! TO.N,COL2*
X67350000Y-29337500D03*
D11*
G04 #@! TO.P,MX_FN1,3*
G04 #@! TO.N,+5V*
X68580000Y-38417500D03*
D10*
G04 #@! TO.P,MX_FN1,4*
G04 #@! TO.N,Net-(MX_FN1-Pad4)*
X71120000Y-38417500D03*
G04 #@! TD*
D12*
G04 #@! TO.P,MX_FN2,2*
G04 #@! TO.N,Net-(D3-Pad2)*
X91420000Y-28547500D03*
D13*
G04 #@! TD*
G04 #@! TO.N,Net-(D3-Pad2)*
G04 #@! TO.C,MX_FN2*
X91400000Y-28837500D02*
X91440000Y-28257500D01*
D12*
G04 #@! TO.P,MX_FN2,2*
G04 #@! TO.N,Net-(D3-Pad2)*
X91440000Y-28257500D03*
G04 #@! TO.P,MX_FN2,1*
G04 #@! TO.N,COL3*
X85745001Y-30067500D03*
D13*
G04 #@! TD*
G04 #@! TO.N,COL3*
G04 #@! TO.C,MX_FN2*
X85090000Y-30797500D02*
X86400002Y-29337500D01*
D12*
G04 #@! TO.P,MX_FN2,1*
G04 #@! TO.N,COL3*
X86400000Y-29337500D03*
D11*
G04 #@! TO.P,MX_FN2,3*
G04 #@! TO.N,+5V*
X87630000Y-38417500D03*
D10*
G04 #@! TO.P,MX_FN2,4*
G04 #@! TO.N,Net-(MX_FN2-Pad4)*
X90170000Y-38417500D03*
G04 #@! TD*
G04 #@! TO.P,MX_FN3,4*
G04 #@! TO.N,Net-(MX_FN3-Pad4)*
X109220000Y-38417500D03*
D11*
G04 #@! TO.P,MX_FN3,3*
G04 #@! TO.N,+5V*
X106680000Y-38417500D03*
D12*
G04 #@! TO.P,MX_FN3,1*
G04 #@! TO.N,COL4*
X105450000Y-29337500D03*
X104795001Y-30067500D03*
D13*
G04 #@! TD*
G04 #@! TO.N,COL4*
G04 #@! TO.C,MX_FN3*
X104140000Y-30797500D02*
X105450002Y-29337500D01*
D12*
G04 #@! TO.P,MX_FN3,2*
G04 #@! TO.N,Net-(D4-Pad2)*
X110490000Y-28257500D03*
X110470000Y-28547500D03*
D13*
G04 #@! TD*
G04 #@! TO.N,Net-(D4-Pad2)*
G04 #@! TO.C,MX_FN3*
X110450000Y-28837500D02*
X110490000Y-28257500D01*
D10*
G04 #@! TO.P,MX_FN4,4*
G04 #@! TO.N,Net-(MX_FN4-Pad4)*
X128270000Y-38417500D03*
D11*
G04 #@! TO.P,MX_FN4,3*
G04 #@! TO.N,+5V*
X125730000Y-38417500D03*
D12*
G04 #@! TO.P,MX_FN4,1*
G04 #@! TO.N,COL5*
X124500000Y-29337500D03*
X123845001Y-30067500D03*
D13*
G04 #@! TD*
G04 #@! TO.N,COL5*
G04 #@! TO.C,MX_FN4*
X123190000Y-30797500D02*
X124500002Y-29337500D01*
D12*
G04 #@! TO.P,MX_FN4,2*
G04 #@! TO.N,Net-(D5-Pad2)*
X129540000Y-28257500D03*
X129520000Y-28547500D03*
D13*
G04 #@! TD*
G04 #@! TO.N,Net-(D5-Pad2)*
G04 #@! TO.C,MX_FN4*
X129500000Y-28837500D02*
X129540000Y-28257500D01*
D10*
G04 #@! TO.P,MX_FN5,4*
G04 #@! TO.N,Net-(MX_FN5-Pad4)*
X156845000Y-38417500D03*
D11*
G04 #@! TO.P,MX_FN5,3*
G04 #@! TO.N,+5V*
X154305000Y-38417500D03*
D12*
G04 #@! TO.P,MX_FN5,1*
G04 #@! TO.N,COL6*
X153075000Y-29337500D03*
X152420001Y-30067500D03*
D13*
G04 #@! TD*
G04 #@! TO.N,COL6*
G04 #@! TO.C,MX_FN5*
X151765000Y-30797500D02*
X153075002Y-29337500D01*
D12*
G04 #@! TO.P,MX_FN5,2*
G04 #@! TO.N,Net-(D6-Pad2)*
X158115000Y-28257500D03*
X158095000Y-28547500D03*
D13*
G04 #@! TD*
G04 #@! TO.N,Net-(D6-Pad2)*
G04 #@! TO.C,MX_FN5*
X158075000Y-28837500D02*
X158115000Y-28257500D01*
D12*
G04 #@! TO.P,MX_FN6,2*
G04 #@! TO.N,Net-(D7-Pad2)*
X177145000Y-28547500D03*
D13*
G04 #@! TD*
G04 #@! TO.N,Net-(D7-Pad2)*
G04 #@! TO.C,MX_FN6*
X177125000Y-28837500D02*
X177165000Y-28257500D01*
D12*
G04 #@! TO.P,MX_FN6,2*
G04 #@! TO.N,Net-(D7-Pad2)*
X177165000Y-28257500D03*
G04 #@! TO.P,MX_FN6,1*
G04 #@! TO.N,COL7*
X171470001Y-30067500D03*
D13*
G04 #@! TD*
G04 #@! TO.N,COL7*
G04 #@! TO.C,MX_FN6*
X170815000Y-30797500D02*
X172125002Y-29337500D01*
D12*
G04 #@! TO.P,MX_FN6,1*
G04 #@! TO.N,COL7*
X172125000Y-29337500D03*
D11*
G04 #@! TO.P,MX_FN6,3*
G04 #@! TO.N,+5V*
X173355000Y-38417500D03*
D10*
G04 #@! TO.P,MX_FN6,4*
G04 #@! TO.N,Net-(MX_FN6-Pad4)*
X175895000Y-38417500D03*
G04 #@! TD*
G04 #@! TO.P,MX_FN7,4*
G04 #@! TO.N,Net-(MX_FN7-Pad4)*
X194945000Y-38417500D03*
D11*
G04 #@! TO.P,MX_FN7,3*
G04 #@! TO.N,+5V*
X192405000Y-38417500D03*
D12*
G04 #@! TO.P,MX_FN7,1*
G04 #@! TO.N,COL8*
X191175000Y-29337500D03*
X190520001Y-30067500D03*
D13*
G04 #@! TD*
G04 #@! TO.N,COL8*
G04 #@! TO.C,MX_FN7*
X189865000Y-30797500D02*
X191175002Y-29337500D01*
D12*
G04 #@! TO.P,MX_FN7,2*
G04 #@! TO.N,Net-(D8-Pad2)*
X196215000Y-28257500D03*
X196195000Y-28547500D03*
D13*
G04 #@! TD*
G04 #@! TO.N,Net-(D8-Pad2)*
G04 #@! TO.C,MX_FN7*
X196175000Y-28837500D02*
X196215000Y-28257500D01*
D12*
G04 #@! TO.P,MX_FN8,2*
G04 #@! TO.N,Net-(D9-Pad2)*
X215245000Y-28547500D03*
D13*
G04 #@! TD*
G04 #@! TO.N,Net-(D9-Pad2)*
G04 #@! TO.C,MX_FN8*
X215225000Y-28837500D02*
X215265000Y-28257500D01*
D12*
G04 #@! TO.P,MX_FN8,2*
G04 #@! TO.N,Net-(D9-Pad2)*
X215265000Y-28257500D03*
G04 #@! TO.P,MX_FN8,1*
G04 #@! TO.N,COL9*
X209570001Y-30067500D03*
D13*
G04 #@! TD*
G04 #@! TO.N,COL9*
G04 #@! TO.C,MX_FN8*
X208915000Y-30797500D02*
X210225002Y-29337500D01*
D12*
G04 #@! TO.P,MX_FN8,1*
G04 #@! TO.N,COL9*
X210225000Y-29337500D03*
D11*
G04 #@! TO.P,MX_FN8,3*
G04 #@! TO.N,+5V*
X211455000Y-38417500D03*
D10*
G04 #@! TO.P,MX_FN8,4*
G04 #@! TO.N,Net-(MX_FN8-Pad4)*
X213995000Y-38417500D03*
G04 #@! TD*
D12*
G04 #@! TO.P,MX_FN9,2*
G04 #@! TO.N,Net-(D10-Pad2)*
X243820000Y-28547500D03*
D13*
G04 #@! TD*
G04 #@! TO.N,Net-(D10-Pad2)*
G04 #@! TO.C,MX_FN9*
X243800000Y-28837500D02*
X243840000Y-28257500D01*
D12*
G04 #@! TO.P,MX_FN9,2*
G04 #@! TO.N,Net-(D10-Pad2)*
X243840000Y-28257500D03*
G04 #@! TO.P,MX_FN9,1*
G04 #@! TO.N,COL10*
X238145001Y-30067500D03*
D13*
G04 #@! TD*
G04 #@! TO.N,COL10*
G04 #@! TO.C,MX_FN9*
X237490000Y-30797500D02*
X238800002Y-29337500D01*
D12*
G04 #@! TO.P,MX_FN9,1*
G04 #@! TO.N,COL10*
X238800000Y-29337500D03*
D11*
G04 #@! TO.P,MX_FN9,3*
G04 #@! TO.N,+5V*
X240030000Y-38417500D03*
D10*
G04 #@! TO.P,MX_FN9,4*
G04 #@! TO.N,Net-(MX_FN9-Pad4)*
X242570000Y-38417500D03*
G04 #@! TD*
D12*
G04 #@! TO.P,MX_FN10,2*
G04 #@! TO.N,Net-(D11-Pad2)*
X262870000Y-28547500D03*
D13*
G04 #@! TD*
G04 #@! TO.N,Net-(D11-Pad2)*
G04 #@! TO.C,MX_FN10*
X262850000Y-28837500D02*
X262890000Y-28257500D01*
D12*
G04 #@! TO.P,MX_FN10,2*
G04 #@! TO.N,Net-(D11-Pad2)*
X262890000Y-28257500D03*
G04 #@! TO.P,MX_FN10,1*
G04 #@! TO.N,COL11*
X257195001Y-30067500D03*
D13*
G04 #@! TD*
G04 #@! TO.N,COL11*
G04 #@! TO.C,MX_FN10*
X256540000Y-30797500D02*
X257850002Y-29337500D01*
D12*
G04 #@! TO.P,MX_FN10,1*
G04 #@! TO.N,COL11*
X257850000Y-29337500D03*
D11*
G04 #@! TO.P,MX_FN10,3*
G04 #@! TO.N,+5V*
X259080000Y-38417500D03*
D10*
G04 #@! TO.P,MX_FN10,4*
G04 #@! TO.N,Net-(MX_FN10-Pad4)*
X261620000Y-38417500D03*
G04 #@! TD*
D12*
G04 #@! TO.P,MX_FN11,2*
G04 #@! TO.N,Net-(D12-Pad2)*
X281920000Y-28547500D03*
D13*
G04 #@! TD*
G04 #@! TO.N,Net-(D12-Pad2)*
G04 #@! TO.C,MX_FN11*
X281900000Y-28837500D02*
X281940000Y-28257500D01*
D12*
G04 #@! TO.P,MX_FN11,2*
G04 #@! TO.N,Net-(D12-Pad2)*
X281940000Y-28257500D03*
G04 #@! TO.P,MX_FN11,1*
G04 #@! TO.N,COL12*
X276245001Y-30067500D03*
D13*
G04 #@! TD*
G04 #@! TO.N,COL12*
G04 #@! TO.C,MX_FN11*
X275590000Y-30797500D02*
X276900002Y-29337500D01*
D12*
G04 #@! TO.P,MX_FN11,1*
G04 #@! TO.N,COL12*
X276900000Y-29337500D03*
D11*
G04 #@! TO.P,MX_FN11,3*
G04 #@! TO.N,+5V*
X278130000Y-38417500D03*
D10*
G04 #@! TO.P,MX_FN11,4*
G04 #@! TO.N,Net-(MX_FN11-Pad4)*
X280670000Y-38417500D03*
G04 #@! TD*
D12*
G04 #@! TO.P,MX_FN12,2*
G04 #@! TO.N,Net-(D13-Pad2)*
X300970000Y-28547500D03*
D13*
G04 #@! TD*
G04 #@! TO.N,Net-(D13-Pad2)*
G04 #@! TO.C,MX_FN12*
X300950000Y-28837500D02*
X300990000Y-28257500D01*
D12*
G04 #@! TO.P,MX_FN12,2*
G04 #@! TO.N,Net-(D13-Pad2)*
X300990000Y-28257500D03*
G04 #@! TO.P,MX_FN12,1*
G04 #@! TO.N,COL13*
X295295001Y-30067500D03*
D13*
G04 #@! TD*
G04 #@! TO.N,COL13*
G04 #@! TO.C,MX_FN12*
X294640000Y-30797500D02*
X295950002Y-29337500D01*
D12*
G04 #@! TO.P,MX_FN12,1*
G04 #@! TO.N,COL13*
X295950000Y-29337500D03*
D11*
G04 #@! TO.P,MX_FN12,3*
G04 #@! TO.N,+5V*
X297180000Y-38417500D03*
D10*
G04 #@! TO.P,MX_FN12,4*
G04 #@! TO.N,Net-(MX_FN12-Pad4)*
X299720000Y-38417500D03*
G04 #@! TD*
D12*
G04 #@! TO.P,MX_G1,2*
G04 #@! TO.N,Net-(D57-Pad2)*
X153332500Y-95222500D03*
D13*
G04 #@! TD*
G04 #@! TO.N,Net-(D57-Pad2)*
G04 #@! TO.C,MX_G1*
X153312500Y-95512500D02*
X153352500Y-94932500D01*
D12*
G04 #@! TO.P,MX_G1,2*
G04 #@! TO.N,Net-(D57-Pad2)*
X153352500Y-94932500D03*
G04 #@! TO.P,MX_G1,1*
G04 #@! TO.N,COL5*
X147657501Y-96742500D03*
D13*
G04 #@! TD*
G04 #@! TO.N,COL5*
G04 #@! TO.C,MX_G1*
X147002500Y-97472500D02*
X148312502Y-96012500D01*
D12*
G04 #@! TO.P,MX_G1,1*
G04 #@! TO.N,COL5*
X148312500Y-96012500D03*
D11*
G04 #@! TO.P,MX_G1,3*
G04 #@! TO.N,+5V*
X149542500Y-105092500D03*
D10*
G04 #@! TO.P,MX_G1,4*
G04 #@! TO.N,Net-(MX_G1-Pad4)*
X152082500Y-105092500D03*
G04 #@! TD*
D12*
G04 #@! TO.P,MX_H1,2*
G04 #@! TO.N,Net-(D58-Pad2)*
X172382500Y-95222500D03*
D13*
G04 #@! TD*
G04 #@! TO.N,Net-(D58-Pad2)*
G04 #@! TO.C,MX_H1*
X172362500Y-95512500D02*
X172402500Y-94932500D01*
D12*
G04 #@! TO.P,MX_H1,2*
G04 #@! TO.N,Net-(D58-Pad2)*
X172402500Y-94932500D03*
G04 #@! TO.P,MX_H1,1*
G04 #@! TO.N,COL6*
X166707501Y-96742500D03*
D13*
G04 #@! TD*
G04 #@! TO.N,COL6*
G04 #@! TO.C,MX_H1*
X166052500Y-97472500D02*
X167362502Y-96012500D01*
D12*
G04 #@! TO.P,MX_H1,1*
G04 #@! TO.N,COL6*
X167362500Y-96012500D03*
D11*
G04 #@! TO.P,MX_H1,3*
G04 #@! TO.N,+5V*
X168592500Y-105092500D03*
D10*
G04 #@! TO.P,MX_H1,4*
G04 #@! TO.N,Net-(MX_H1-Pad4)*
X171132500Y-105092500D03*
G04 #@! TD*
G04 #@! TO.P,MX_I1,4*
G04 #@! TO.N,Net-(MX_I1-Pad4)*
X204470000Y-86042500D03*
D11*
G04 #@! TO.P,MX_I1,3*
G04 #@! TO.N,+5V*
X201930000Y-86042500D03*
D12*
G04 #@! TO.P,MX_I1,1*
G04 #@! TO.N,COL8*
X200700000Y-76962500D03*
X200045001Y-77692500D03*
D13*
G04 #@! TD*
G04 #@! TO.N,COL8*
G04 #@! TO.C,MX_I1*
X199390000Y-78422500D02*
X200700002Y-76962500D01*
D12*
G04 #@! TO.P,MX_I1,2*
G04 #@! TO.N,Net-(D43-Pad2)*
X205740000Y-75882500D03*
X205720000Y-76172500D03*
D13*
G04 #@! TD*
G04 #@! TO.N,Net-(D43-Pad2)*
G04 #@! TO.C,MX_I1*
X205700000Y-76462500D02*
X205740000Y-75882500D01*
D12*
G04 #@! TO.P,MX_J1,2*
G04 #@! TO.N,Net-(D59-Pad2)*
X191432500Y-95222500D03*
D13*
G04 #@! TD*
G04 #@! TO.N,Net-(D59-Pad2)*
G04 #@! TO.C,MX_J1*
X191412500Y-95512500D02*
X191452500Y-94932500D01*
D12*
G04 #@! TO.P,MX_J1,2*
G04 #@! TO.N,Net-(D59-Pad2)*
X191452500Y-94932500D03*
G04 #@! TO.P,MX_J1,1*
G04 #@! TO.N,COL7*
X185757501Y-96742500D03*
D13*
G04 #@! TD*
G04 #@! TO.N,COL7*
G04 #@! TO.C,MX_J1*
X185102500Y-97472500D02*
X186412502Y-96012500D01*
D12*
G04 #@! TO.P,MX_J1,1*
G04 #@! TO.N,COL7*
X186412500Y-96012500D03*
D11*
G04 #@! TO.P,MX_J1,3*
G04 #@! TO.N,+5V*
X187642500Y-105092500D03*
D10*
G04 #@! TO.P,MX_J1,4*
G04 #@! TO.N,Net-(MX_J1-Pad4)*
X190182500Y-105092500D03*
G04 #@! TD*
G04 #@! TO.P,MX_K1,4*
G04 #@! TO.N,Net-(MX_K1-Pad4)*
X209232500Y-105092500D03*
D11*
G04 #@! TO.P,MX_K1,3*
G04 #@! TO.N,+5V*
X206692500Y-105092500D03*
D12*
G04 #@! TO.P,MX_K1,1*
G04 #@! TO.N,COL8*
X205462500Y-96012500D03*
X204807501Y-96742500D03*
D13*
G04 #@! TD*
G04 #@! TO.N,COL8*
G04 #@! TO.C,MX_K1*
X204152500Y-97472500D02*
X205462502Y-96012500D01*
D12*
G04 #@! TO.P,MX_K1,2*
G04 #@! TO.N,Net-(D60-Pad2)*
X210502500Y-94932500D03*
X210482500Y-95222500D03*
D13*
G04 #@! TD*
G04 #@! TO.N,Net-(D60-Pad2)*
G04 #@! TO.C,MX_K1*
X210462500Y-95512500D02*
X210502500Y-94932500D01*
D12*
G04 #@! TO.P,MX_L1,2*
G04 #@! TO.N,Net-(D61-Pad2)*
X229532500Y-95222500D03*
D13*
G04 #@! TD*
G04 #@! TO.N,Net-(D61-Pad2)*
G04 #@! TO.C,MX_L1*
X229512500Y-95512500D02*
X229552500Y-94932500D01*
D12*
G04 #@! TO.P,MX_L1,2*
G04 #@! TO.N,Net-(D61-Pad2)*
X229552500Y-94932500D03*
G04 #@! TO.P,MX_L1,1*
G04 #@! TO.N,COL9*
X223857501Y-96742500D03*
D13*
G04 #@! TD*
G04 #@! TO.N,COL9*
G04 #@! TO.C,MX_L1*
X223202500Y-97472500D02*
X224512502Y-96012500D01*
D12*
G04 #@! TO.P,MX_L1,1*
G04 #@! TO.N,COL9*
X224512500Y-96012500D03*
D11*
G04 #@! TO.P,MX_L1,3*
G04 #@! TO.N,+5V*
X225742500Y-105092500D03*
D10*
G04 #@! TO.P,MX_L1,4*
G04 #@! TO.N,Net-(MX_L1-Pad4)*
X228282500Y-105092500D03*
G04 #@! TD*
G04 #@! TO.P,MX_LEFT1,4*
G04 #@! TO.N,Net-(MX_LEFT1-Pad4)*
X290195000Y-143192500D03*
D11*
G04 #@! TO.P,MX_LEFT1,3*
G04 #@! TO.N,+5V*
X287655000Y-143192500D03*
D12*
G04 #@! TO.P,MX_LEFT1,1*
G04 #@! TO.N,COL12*
X286425000Y-134112500D03*
X285770001Y-134842500D03*
D13*
G04 #@! TD*
G04 #@! TO.N,COL12*
G04 #@! TO.C,MX_LEFT1*
X285115000Y-135572500D02*
X286425002Y-134112500D01*
D12*
G04 #@! TO.P,MX_LEFT1,2*
G04 #@! TO.N,Net-(D81-Pad2)*
X291465000Y-133032500D03*
X291445000Y-133322500D03*
D13*
G04 #@! TD*
G04 #@! TO.N,Net-(D81-Pad2)*
G04 #@! TO.C,MX_LEFT1*
X291425000Y-133612500D02*
X291465000Y-133032500D01*
D10*
G04 #@! TO.P,MX_M1,4*
G04 #@! TO.N,Net-(MX_M1-Pad4)*
X199707500Y-124142500D03*
D11*
G04 #@! TO.P,MX_M1,3*
G04 #@! TO.N,+5V*
X197167500Y-124142500D03*
D12*
G04 #@! TO.P,MX_M1,1*
G04 #@! TO.N,COL7*
X195937500Y-115062500D03*
X195282501Y-115792500D03*
D13*
G04 #@! TD*
G04 #@! TO.N,COL7*
G04 #@! TO.C,MX_M1*
X194627500Y-116522500D02*
X195937502Y-115062500D01*
D12*
G04 #@! TO.P,MX_M1,2*
G04 #@! TO.N,Net-(D74-Pad2)*
X200977500Y-113982500D03*
X200957500Y-114272500D03*
D13*
G04 #@! TD*
G04 #@! TO.N,Net-(D74-Pad2)*
G04 #@! TO.C,MX_M1*
X200937500Y-114562500D02*
X200977500Y-113982500D01*
D10*
G04 #@! TO.P,MX_N1,4*
G04 #@! TO.N,Net-(MX_N1-Pad4)*
X180657500Y-124142500D03*
D11*
G04 #@! TO.P,MX_N1,3*
G04 #@! TO.N,+5V*
X178117500Y-124142500D03*
D12*
G04 #@! TO.P,MX_N1,1*
G04 #@! TO.N,COL6*
X176887500Y-115062500D03*
X176232501Y-115792500D03*
D13*
G04 #@! TD*
G04 #@! TO.N,COL6*
G04 #@! TO.C,MX_N1*
X175577500Y-116522500D02*
X176887502Y-115062500D01*
D12*
G04 #@! TO.P,MX_N1,2*
G04 #@! TO.N,Net-(D73-Pad2)*
X181927500Y-113982500D03*
X181907500Y-114272500D03*
D13*
G04 #@! TD*
G04 #@! TO.N,Net-(D73-Pad2)*
G04 #@! TO.C,MX_N1*
X181887500Y-114562500D02*
X181927500Y-113982500D01*
D12*
G04 #@! TO.P,MX_NUM1,2*
G04 #@! TO.N,Net-(D92-Pad2)*
X358120000Y-28547500D03*
D13*
G04 #@! TD*
G04 #@! TO.N,Net-(D92-Pad2)*
G04 #@! TO.C,MX_NUM1*
X358100000Y-28837500D02*
X358140000Y-28257500D01*
D12*
G04 #@! TO.P,MX_NUM1,2*
G04 #@! TO.N,Net-(D92-Pad2)*
X358140000Y-28257500D03*
G04 #@! TO.P,MX_NUM1,1*
G04 #@! TO.N,COL15*
X352445001Y-30067500D03*
D13*
G04 #@! TD*
G04 #@! TO.N,COL15*
G04 #@! TO.C,MX_NUM1*
X351790000Y-30797500D02*
X353100002Y-29337500D01*
D12*
G04 #@! TO.P,MX_NUM1,1*
G04 #@! TO.N,COL15*
X353100000Y-29337500D03*
D11*
G04 #@! TO.P,MX_NUM1,3*
G04 #@! TO.N,+5V*
X354330000Y-38417500D03*
D10*
G04 #@! TO.P,MX_NUM1,4*
G04 #@! TO.N,Net-(MX_NUM1-Pad4)*
X356870000Y-38417500D03*
G04 #@! TD*
G04 #@! TO.P,MX_NUM3,4*
G04 #@! TO.N,Net-(MX_NUM3-Pad4)*
X394970000Y-38417500D03*
D11*
G04 #@! TO.P,MX_NUM3,3*
G04 #@! TO.N,+5V*
X392430000Y-38417500D03*
D12*
G04 #@! TO.P,MX_NUM3,1*
G04 #@! TO.N,COL17*
X391200000Y-29337500D03*
X390545001Y-30067500D03*
D13*
G04 #@! TD*
G04 #@! TO.N,COL17*
G04 #@! TO.C,MX_NUM3*
X389890000Y-30797500D02*
X391200002Y-29337500D01*
D12*
G04 #@! TO.P,MX_NUM3,2*
G04 #@! TO.N,Net-(D94-Pad2)*
X396240000Y-28257500D03*
X396220000Y-28547500D03*
D13*
G04 #@! TD*
G04 #@! TO.N,Net-(D94-Pad2)*
G04 #@! TO.C,MX_NUM3*
X396200000Y-28837500D02*
X396240000Y-28257500D01*
D10*
G04 #@! TO.P,MX_NUM4,4*
G04 #@! TO.N,Net-(MX_NUM4-Pad4)*
X356870000Y-66992500D03*
D11*
G04 #@! TO.P,MX_NUM4,3*
G04 #@! TO.N,+5V*
X354330000Y-66992500D03*
D12*
G04 #@! TO.P,MX_NUM4,1*
G04 #@! TO.N,COL15*
X353100000Y-57912500D03*
X352445001Y-58642500D03*
D13*
G04 #@! TD*
G04 #@! TO.N,COL15*
G04 #@! TO.C,MX_NUM4*
X351790000Y-59372500D02*
X353100002Y-57912500D01*
D12*
G04 #@! TO.P,MX_NUM4,2*
G04 #@! TO.N,Net-(D95-Pad2)*
X358140000Y-56832500D03*
X358120000Y-57122500D03*
D13*
G04 #@! TD*
G04 #@! TO.N,Net-(D95-Pad2)*
G04 #@! TO.C,MX_NUM4*
X358100000Y-57412500D02*
X358140000Y-56832500D01*
D12*
G04 #@! TO.P,MX_NUM5,2*
G04 #@! TO.N,Net-(D96-Pad2)*
X377170000Y-57122500D03*
D13*
G04 #@! TD*
G04 #@! TO.N,Net-(D96-Pad2)*
G04 #@! TO.C,MX_NUM5*
X377150000Y-57412500D02*
X377190000Y-56832500D01*
D12*
G04 #@! TO.P,MX_NUM5,2*
G04 #@! TO.N,Net-(D96-Pad2)*
X377190000Y-56832500D03*
G04 #@! TO.P,MX_NUM5,1*
G04 #@! TO.N,COL16*
X371495001Y-58642500D03*
D13*
G04 #@! TD*
G04 #@! TO.N,COL16*
G04 #@! TO.C,MX_NUM5*
X370840000Y-59372500D02*
X372150002Y-57912500D01*
D12*
G04 #@! TO.P,MX_NUM5,1*
G04 #@! TO.N,COL16*
X372150000Y-57912500D03*
D11*
G04 #@! TO.P,MX_NUM5,3*
G04 #@! TO.N,+5V*
X373380000Y-66992500D03*
D10*
G04 #@! TO.P,MX_NUM5,4*
G04 #@! TO.N,Net-(MX_NUM5-Pad4)*
X375920000Y-66992500D03*
G04 #@! TD*
D12*
G04 #@! TO.P,MX_NUM6,2*
G04 #@! TO.N,Net-(D97-Pad2)*
X396220000Y-57122500D03*
D13*
G04 #@! TD*
G04 #@! TO.N,Net-(D97-Pad2)*
G04 #@! TO.C,MX_NUM6*
X396200000Y-57412500D02*
X396240000Y-56832500D01*
D12*
G04 #@! TO.P,MX_NUM6,2*
G04 #@! TO.N,Net-(D97-Pad2)*
X396240000Y-56832500D03*
G04 #@! TO.P,MX_NUM6,1*
G04 #@! TO.N,COL17*
X390545001Y-58642500D03*
D13*
G04 #@! TD*
G04 #@! TO.N,COL17*
G04 #@! TO.C,MX_NUM6*
X389890000Y-59372500D02*
X391200002Y-57912500D01*
D12*
G04 #@! TO.P,MX_NUM6,1*
G04 #@! TO.N,COL17*
X391200000Y-57912500D03*
D11*
G04 #@! TO.P,MX_NUM6,3*
G04 #@! TO.N,+5V*
X392430000Y-66992500D03*
D10*
G04 #@! TO.P,MX_NUM6,4*
G04 #@! TO.N,Net-(MX_NUM6-Pad4)*
X394970000Y-66992500D03*
G04 #@! TD*
G04 #@! TO.P,MX_NUM7,4*
G04 #@! TO.N,Net-(MX_NUM7-Pad4)*
X414020000Y-66992500D03*
D11*
G04 #@! TO.P,MX_NUM7,3*
G04 #@! TO.N,+5V*
X411480000Y-66992500D03*
D12*
G04 #@! TO.P,MX_NUM7,1*
G04 #@! TO.N,COL18*
X410250000Y-57912500D03*
X409595001Y-58642500D03*
D13*
G04 #@! TD*
G04 #@! TO.N,COL18*
G04 #@! TO.C,MX_NUM7*
X408940000Y-59372500D02*
X410250002Y-57912500D01*
D12*
G04 #@! TO.P,MX_NUM7,2*
G04 #@! TO.N,Net-(D98-Pad2)*
X415290000Y-56832500D03*
X415270000Y-57122500D03*
D13*
G04 #@! TD*
G04 #@! TO.N,Net-(D98-Pad2)*
G04 #@! TO.C,MX_NUM7*
X415250000Y-57412500D02*
X415290000Y-56832500D01*
D12*
G04 #@! TO.P,MX_NUM8,2*
G04 #@! TO.N,Net-(D99-Pad2)*
X358120000Y-76172500D03*
D13*
G04 #@! TD*
G04 #@! TO.N,Net-(D99-Pad2)*
G04 #@! TO.C,MX_NUM8*
X358100000Y-76462500D02*
X358140000Y-75882500D01*
D12*
G04 #@! TO.P,MX_NUM8,2*
G04 #@! TO.N,Net-(D99-Pad2)*
X358140000Y-75882500D03*
G04 #@! TO.P,MX_NUM8,1*
G04 #@! TO.N,COL15*
X352445001Y-77692500D03*
D13*
G04 #@! TD*
G04 #@! TO.N,COL15*
G04 #@! TO.C,MX_NUM8*
X351790000Y-78422500D02*
X353100002Y-76962500D01*
D12*
G04 #@! TO.P,MX_NUM8,1*
G04 #@! TO.N,COL15*
X353100000Y-76962500D03*
D11*
G04 #@! TO.P,MX_NUM8,3*
G04 #@! TO.N,+5V*
X354330000Y-86042500D03*
D10*
G04 #@! TO.P,MX_NUM8,4*
G04 #@! TO.N,Net-(MX_NUM8-Pad4)*
X356870000Y-86042500D03*
G04 #@! TD*
G04 #@! TO.P,MX_NUM9,4*
G04 #@! TO.N,Net-(MX_NUM9-Pad4)*
X375920000Y-86042500D03*
D11*
G04 #@! TO.P,MX_NUM9,3*
G04 #@! TO.N,+5V*
X373380000Y-86042500D03*
D12*
G04 #@! TO.P,MX_NUM9,1*
G04 #@! TO.N,COL16*
X372150000Y-76962500D03*
X371495001Y-77692500D03*
D13*
G04 #@! TD*
G04 #@! TO.N,COL16*
G04 #@! TO.C,MX_NUM9*
X370840000Y-78422500D02*
X372150002Y-76962500D01*
D12*
G04 #@! TO.P,MX_NUM9,2*
G04 #@! TO.N,Net-(D100-Pad2)*
X377190000Y-75882500D03*
X377170000Y-76172500D03*
D13*
G04 #@! TD*
G04 #@! TO.N,Net-(D100-Pad2)*
G04 #@! TO.C,MX_NUM9*
X377150000Y-76462500D02*
X377190000Y-75882500D01*
D10*
G04 #@! TO.P,MX_NUM10,4*
G04 #@! TO.N,Net-(MX_NUM10-Pad4)*
X394970000Y-86042500D03*
D11*
G04 #@! TO.P,MX_NUM10,3*
G04 #@! TO.N,+5V*
X392430000Y-86042500D03*
D12*
G04 #@! TO.P,MX_NUM10,1*
G04 #@! TO.N,COL17*
X391200000Y-76962500D03*
X390545001Y-77692500D03*
D13*
G04 #@! TD*
G04 #@! TO.N,COL17*
G04 #@! TO.C,MX_NUM10*
X389890000Y-78422500D02*
X391200002Y-76962500D01*
D12*
G04 #@! TO.P,MX_NUM10,2*
G04 #@! TO.N,Net-(D101-Pad2)*
X396240000Y-75882500D03*
X396220000Y-76172500D03*
D13*
G04 #@! TD*
G04 #@! TO.N,Net-(D101-Pad2)*
G04 #@! TO.C,MX_NUM10*
X396200000Y-76462500D02*
X396240000Y-75882500D01*
D12*
G04 #@! TO.P,MX_NUM11,2*
G04 #@! TO.N,Net-(D102-Pad2)*
X415270000Y-76172500D03*
D13*
G04 #@! TD*
G04 #@! TO.N,Net-(D102-Pad2)*
G04 #@! TO.C,MX_NUM11*
X415250000Y-76462500D02*
X415290000Y-75882500D01*
D12*
G04 #@! TO.P,MX_NUM11,2*
G04 #@! TO.N,Net-(D102-Pad2)*
X415290000Y-75882500D03*
G04 #@! TO.P,MX_NUM11,1*
G04 #@! TO.N,COL18*
X409595001Y-77692500D03*
D13*
G04 #@! TD*
G04 #@! TO.N,COL18*
G04 #@! TO.C,MX_NUM11*
X408940000Y-78422500D02*
X410250002Y-76962500D01*
D12*
G04 #@! TO.P,MX_NUM11,1*
G04 #@! TO.N,COL18*
X410250000Y-76962500D03*
D11*
G04 #@! TO.P,MX_NUM11,3*
G04 #@! TO.N,+5V*
X411480000Y-86042500D03*
D10*
G04 #@! TO.P,MX_NUM11,4*
G04 #@! TO.N,Net-(MX_NUM11-Pad4)*
X414020000Y-86042500D03*
G04 #@! TD*
D12*
G04 #@! TO.P,MX_NUM12,2*
G04 #@! TO.N,Net-(D103-Pad2)*
X358120000Y-95222500D03*
D13*
G04 #@! TD*
G04 #@! TO.N,Net-(D103-Pad2)*
G04 #@! TO.C,MX_NUM12*
X358100000Y-95512500D02*
X358140000Y-94932500D01*
D12*
G04 #@! TO.P,MX_NUM12,2*
G04 #@! TO.N,Net-(D103-Pad2)*
X358140000Y-94932500D03*
G04 #@! TO.P,MX_NUM12,1*
G04 #@! TO.N,COL15*
X352445001Y-96742500D03*
D13*
G04 #@! TD*
G04 #@! TO.N,COL15*
G04 #@! TO.C,MX_NUM12*
X351790000Y-97472500D02*
X353100002Y-96012500D01*
D12*
G04 #@! TO.P,MX_NUM12,1*
G04 #@! TO.N,COL15*
X353100000Y-96012500D03*
D11*
G04 #@! TO.P,MX_NUM12,3*
G04 #@! TO.N,+5V*
X354330000Y-105092500D03*
D10*
G04 #@! TO.P,MX_NUM12,4*
G04 #@! TO.N,Net-(MX_NUM12-Pad4)*
X356870000Y-105092500D03*
G04 #@! TD*
D12*
G04 #@! TO.P,MX_NUM13,2*
G04 #@! TO.N,Net-(D104-Pad2)*
X377170000Y-95222500D03*
D13*
G04 #@! TD*
G04 #@! TO.N,Net-(D104-Pad2)*
G04 #@! TO.C,MX_NUM13*
X377150000Y-95512500D02*
X377190000Y-94932500D01*
D12*
G04 #@! TO.P,MX_NUM13,2*
G04 #@! TO.N,Net-(D104-Pad2)*
X377190000Y-94932500D03*
G04 #@! TO.P,MX_NUM13,1*
G04 #@! TO.N,COL16*
X371495001Y-96742500D03*
D13*
G04 #@! TD*
G04 #@! TO.N,COL16*
G04 #@! TO.C,MX_NUM13*
X370840000Y-97472500D02*
X372150002Y-96012500D01*
D12*
G04 #@! TO.P,MX_NUM13,1*
G04 #@! TO.N,COL16*
X372150000Y-96012500D03*
D11*
G04 #@! TO.P,MX_NUM13,3*
G04 #@! TO.N,+5V*
X373380000Y-105092500D03*
D10*
G04 #@! TO.P,MX_NUM13,4*
G04 #@! TO.N,Net-(MX_NUM13-Pad4)*
X375920000Y-105092500D03*
G04 #@! TD*
D12*
G04 #@! TO.P,MX_NUM14,2*
G04 #@! TO.N,Net-(D105-Pad2)*
X396220000Y-95222500D03*
D13*
G04 #@! TD*
G04 #@! TO.N,Net-(D105-Pad2)*
G04 #@! TO.C,MX_NUM14*
X396200000Y-95512500D02*
X396240000Y-94932500D01*
D12*
G04 #@! TO.P,MX_NUM14,2*
G04 #@! TO.N,Net-(D105-Pad2)*
X396240000Y-94932500D03*
G04 #@! TO.P,MX_NUM14,1*
G04 #@! TO.N,COL17*
X390545001Y-96742500D03*
D13*
G04 #@! TD*
G04 #@! TO.N,COL17*
G04 #@! TO.C,MX_NUM14*
X389890000Y-97472500D02*
X391200002Y-96012500D01*
D12*
G04 #@! TO.P,MX_NUM14,1*
G04 #@! TO.N,COL17*
X391200000Y-96012500D03*
D11*
G04 #@! TO.P,MX_NUM14,3*
G04 #@! TO.N,+5V*
X392430000Y-105092500D03*
D10*
G04 #@! TO.P,MX_NUM14,4*
G04 #@! TO.N,Net-(MX_NUM14-Pad4)*
X394970000Y-105092500D03*
G04 #@! TD*
G04 #@! TO.P,MX_NUM15,4*
G04 #@! TO.N,Net-(MX_NUM15-Pad4)*
X414020000Y-105092500D03*
D11*
G04 #@! TO.P,MX_NUM15,3*
G04 #@! TO.N,+5V*
X411480000Y-105092500D03*
D12*
G04 #@! TO.P,MX_NUM15,1*
G04 #@! TO.N,COL18*
X410250000Y-96012500D03*
X409595001Y-96742500D03*
D13*
G04 #@! TD*
G04 #@! TO.N,COL18*
G04 #@! TO.C,MX_NUM15*
X408940000Y-97472500D02*
X410250002Y-96012500D01*
D12*
G04 #@! TO.P,MX_NUM15,2*
G04 #@! TO.N,Net-(D106-Pad2)*
X415290000Y-94932500D03*
X415270000Y-95222500D03*
D13*
G04 #@! TD*
G04 #@! TO.N,Net-(D106-Pad2)*
G04 #@! TO.C,MX_NUM15*
X415250000Y-95512500D02*
X415290000Y-94932500D01*
D12*
G04 #@! TO.P,MX_NUM16,2*
G04 #@! TO.N,Net-(D107-Pad2)*
X358120000Y-114272500D03*
D13*
G04 #@! TD*
G04 #@! TO.N,Net-(D107-Pad2)*
G04 #@! TO.C,MX_NUM16*
X358100000Y-114562500D02*
X358140000Y-113982500D01*
D12*
G04 #@! TO.P,MX_NUM16,2*
G04 #@! TO.N,Net-(D107-Pad2)*
X358140000Y-113982500D03*
G04 #@! TO.P,MX_NUM16,1*
G04 #@! TO.N,COL15*
X352445001Y-115792500D03*
D13*
G04 #@! TD*
G04 #@! TO.N,COL15*
G04 #@! TO.C,MX_NUM16*
X351790000Y-116522500D02*
X353100002Y-115062500D01*
D12*
G04 #@! TO.P,MX_NUM16,1*
G04 #@! TO.N,COL15*
X353100000Y-115062500D03*
D11*
G04 #@! TO.P,MX_NUM16,3*
G04 #@! TO.N,+5V*
X354330000Y-124142500D03*
D10*
G04 #@! TO.P,MX_NUM16,4*
G04 #@! TO.N,Net-(MX_NUM16-Pad4)*
X356870000Y-124142500D03*
G04 #@! TD*
D12*
G04 #@! TO.P,MX_NUM17,2*
G04 #@! TO.N,Net-(D108-Pad2)*
X377170000Y-114272500D03*
D13*
G04 #@! TD*
G04 #@! TO.N,Net-(D108-Pad2)*
G04 #@! TO.C,MX_NUM17*
X377150000Y-114562500D02*
X377190000Y-113982500D01*
D12*
G04 #@! TO.P,MX_NUM17,2*
G04 #@! TO.N,Net-(D108-Pad2)*
X377190000Y-113982500D03*
G04 #@! TO.P,MX_NUM17,1*
G04 #@! TO.N,COL16*
X371495001Y-115792500D03*
D13*
G04 #@! TD*
G04 #@! TO.N,COL16*
G04 #@! TO.C,MX_NUM17*
X370840000Y-116522500D02*
X372150002Y-115062500D01*
D12*
G04 #@! TO.P,MX_NUM17,1*
G04 #@! TO.N,COL16*
X372150000Y-115062500D03*
D11*
G04 #@! TO.P,MX_NUM17,3*
G04 #@! TO.N,+5V*
X373380000Y-124142500D03*
D10*
G04 #@! TO.P,MX_NUM17,4*
G04 #@! TO.N,Net-(MX_NUM17-Pad4)*
X375920000Y-124142500D03*
G04 #@! TD*
G04 #@! TO.P,MX_NUM18,4*
G04 #@! TO.N,Net-(MX_NUM18-Pad4)*
X394970000Y-124142500D03*
D11*
G04 #@! TO.P,MX_NUM18,3*
G04 #@! TO.N,+5V*
X392430000Y-124142500D03*
D12*
G04 #@! TO.P,MX_NUM18,1*
G04 #@! TO.N,COL17*
X391200000Y-115062500D03*
X390545001Y-115792500D03*
D13*
G04 #@! TD*
G04 #@! TO.N,COL17*
G04 #@! TO.C,MX_NUM18*
X389890000Y-116522500D02*
X391200002Y-115062500D01*
D12*
G04 #@! TO.P,MX_NUM18,2*
G04 #@! TO.N,Net-(D109-Pad2)*
X396240000Y-113982500D03*
X396220000Y-114272500D03*
D13*
G04 #@! TD*
G04 #@! TO.N,Net-(D109-Pad2)*
G04 #@! TO.C,MX_NUM18*
X396200000Y-114562500D02*
X396240000Y-113982500D01*
D12*
G04 #@! TO.P,MX_NUM19,2*
G04 #@! TO.N,Net-(D110-Pad2)*
X415270000Y-114272500D03*
D13*
G04 #@! TD*
G04 #@! TO.N,Net-(D110-Pad2)*
G04 #@! TO.C,MX_NUM19*
X415250000Y-114562500D02*
X415290000Y-113982500D01*
D12*
G04 #@! TO.P,MX_NUM19,2*
G04 #@! TO.N,Net-(D110-Pad2)*
X415290000Y-113982500D03*
G04 #@! TO.P,MX_NUM19,1*
G04 #@! TO.N,COL18*
X409595001Y-115792500D03*
D13*
G04 #@! TD*
G04 #@! TO.N,COL18*
G04 #@! TO.C,MX_NUM19*
X408940000Y-116522500D02*
X410250002Y-115062500D01*
D12*
G04 #@! TO.P,MX_NUM19,1*
G04 #@! TO.N,COL18*
X410250000Y-115062500D03*
D11*
G04 #@! TO.P,MX_NUM19,3*
G04 #@! TO.N,+5V*
X411480000Y-124142500D03*
D10*
G04 #@! TO.P,MX_NUM19,4*
G04 #@! TO.N,Net-(MX_NUM19-Pad4)*
X414020000Y-124142500D03*
G04 #@! TD*
D12*
G04 #@! TO.P,MX_NUM20,2*
G04 #@! TO.N,Net-(D111-Pad2)*
X358120000Y-133322500D03*
D13*
G04 #@! TD*
G04 #@! TO.N,Net-(D111-Pad2)*
G04 #@! TO.C,MX_NUM20*
X358100000Y-133612500D02*
X358140000Y-133032500D01*
D12*
G04 #@! TO.P,MX_NUM20,2*
G04 #@! TO.N,Net-(D111-Pad2)*
X358140000Y-133032500D03*
G04 #@! TO.P,MX_NUM20,1*
G04 #@! TO.N,COL15*
X352445001Y-134842500D03*
D13*
G04 #@! TD*
G04 #@! TO.N,COL15*
G04 #@! TO.C,MX_NUM20*
X351790000Y-135572500D02*
X353100002Y-134112500D01*
D12*
G04 #@! TO.P,MX_NUM20,1*
G04 #@! TO.N,COL15*
X353100000Y-134112500D03*
D11*
G04 #@! TO.P,MX_NUM20,3*
G04 #@! TO.N,+5V*
X354330000Y-143192500D03*
D10*
G04 #@! TO.P,MX_NUM20,4*
G04 #@! TO.N,Net-(MX_NUM20-Pad4)*
X356870000Y-143192500D03*
G04 #@! TD*
G04 #@! TO.P,MX_NUM21,4*
G04 #@! TO.N,Net-(MX_NUM21-Pad4)*
X375920000Y-143192500D03*
D11*
G04 #@! TO.P,MX_NUM21,3*
G04 #@! TO.N,+5V*
X373380000Y-143192500D03*
D12*
G04 #@! TO.P,MX_NUM21,1*
G04 #@! TO.N,COL16*
X372150000Y-134112500D03*
X371495001Y-134842500D03*
D13*
G04 #@! TD*
G04 #@! TO.N,COL16*
G04 #@! TO.C,MX_NUM21*
X370840000Y-135572500D02*
X372150002Y-134112500D01*
D12*
G04 #@! TO.P,MX_NUM21,2*
G04 #@! TO.N,Net-(D112-Pad2)*
X377190000Y-133032500D03*
X377170000Y-133322500D03*
D13*
G04 #@! TD*
G04 #@! TO.N,Net-(D112-Pad2)*
G04 #@! TO.C,MX_NUM21*
X377150000Y-133612500D02*
X377190000Y-133032500D01*
D10*
G04 #@! TO.P,MX_NUM22,4*
G04 #@! TO.N,Net-(MX_NUM22-Pad4)*
X394970000Y-143192500D03*
D11*
G04 #@! TO.P,MX_NUM22,3*
G04 #@! TO.N,+5V*
X392430000Y-143192500D03*
D12*
G04 #@! TO.P,MX_NUM22,1*
G04 #@! TO.N,COL17*
X391200000Y-134112500D03*
X390545001Y-134842500D03*
D13*
G04 #@! TD*
G04 #@! TO.N,COL17*
G04 #@! TO.C,MX_NUM22*
X389890000Y-135572500D02*
X391200002Y-134112500D01*
D12*
G04 #@! TO.P,MX_NUM22,2*
G04 #@! TO.N,Net-(D113-Pad2)*
X396240000Y-133032500D03*
X396220000Y-133322500D03*
D13*
G04 #@! TD*
G04 #@! TO.N,Net-(D113-Pad2)*
G04 #@! TO.C,MX_NUM22*
X396200000Y-133612500D02*
X396240000Y-133032500D01*
D12*
G04 #@! TO.P,MX_NUM23,2*
G04 #@! TO.N,Net-(D114-Pad2)*
X415270000Y-133322500D03*
D13*
G04 #@! TD*
G04 #@! TO.N,Net-(D114-Pad2)*
G04 #@! TO.C,MX_NUM23*
X415250000Y-133612500D02*
X415290000Y-133032500D01*
D12*
G04 #@! TO.P,MX_NUM23,2*
G04 #@! TO.N,Net-(D114-Pad2)*
X415290000Y-133032500D03*
G04 #@! TO.P,MX_NUM23,1*
G04 #@! TO.N,COL18*
X409595001Y-134842500D03*
D13*
G04 #@! TD*
G04 #@! TO.N,COL18*
G04 #@! TO.C,MX_NUM23*
X408940000Y-135572500D02*
X410250002Y-134112500D01*
D12*
G04 #@! TO.P,MX_NUM23,1*
G04 #@! TO.N,COL18*
X410250000Y-134112500D03*
D11*
G04 #@! TO.P,MX_NUM23,3*
G04 #@! TO.N,+5V*
X411480000Y-143192500D03*
D10*
G04 #@! TO.P,MX_NUM23,4*
G04 #@! TO.N,Net-(MX_NUM23-Pad4)*
X414020000Y-143192500D03*
G04 #@! TD*
G04 #@! TO.P,MX_NUM24,4*
G04 #@! TO.N,Net-(MX_NUM24-Pad4)*
X414020000Y-38417500D03*
D11*
G04 #@! TO.P,MX_NUM24,3*
G04 #@! TO.N,+5V*
X411480000Y-38417500D03*
D12*
G04 #@! TO.P,MX_NUM24,1*
G04 #@! TO.N,COL18*
X410250000Y-29337500D03*
X409595001Y-30067500D03*
D13*
G04 #@! TD*
G04 #@! TO.N,COL18*
G04 #@! TO.C,MX_NUM24*
X408940000Y-30797500D02*
X410250002Y-29337500D01*
D12*
G04 #@! TO.P,MX_NUM24,2*
G04 #@! TO.N,Net-(D16-Pad2)*
X415290000Y-28257500D03*
X415270000Y-28547500D03*
D13*
G04 #@! TD*
G04 #@! TO.N,Net-(D16-Pad2)*
G04 #@! TO.C,MX_NUM24*
X415250000Y-28837500D02*
X415290000Y-28257500D01*
D10*
G04 #@! TO.P,MX_NUMEXT2,4*
G04 #@! TO.N,Net-(MX_NUM11-Pad4)*
X417830000Y-89217500D03*
D11*
G04 #@! TO.P,MX_NUMEXT2,3*
G04 #@! TO.N,+5V*
X417830000Y-91757500D03*
D12*
G04 #@! TO.P,MX_NUMEXT2,1*
G04 #@! TO.N,COL18*
X408750000Y-92987500D03*
X409480000Y-93642499D03*
D13*
G04 #@! TD*
G04 #@! TO.N,COL18*
G04 #@! TO.C,MX_NUMEXT2*
X410210000Y-94297500D02*
X408750000Y-92987498D01*
D12*
G04 #@! TO.P,MX_NUMEXT2,2*
G04 #@! TO.N,Net-(D102-Pad2)*
X407670000Y-87947500D03*
X407960000Y-87967500D03*
D13*
G04 #@! TD*
G04 #@! TO.N,Net-(D102-Pad2)*
G04 #@! TO.C,MX_NUMEXT2*
X408250000Y-87987500D02*
X407670000Y-87947500D01*
D12*
G04 #@! TO.P,MX_NUMEXT4,2*
G04 #@! TO.N,Net-(D110-Pad2)*
X407960000Y-126067500D03*
D13*
G04 #@! TD*
G04 #@! TO.N,Net-(D110-Pad2)*
G04 #@! TO.C,MX_NUMEXT4*
X408250000Y-126087500D02*
X407670000Y-126047500D01*
D12*
G04 #@! TO.P,MX_NUMEXT4,2*
G04 #@! TO.N,Net-(D110-Pad2)*
X407670000Y-126047500D03*
G04 #@! TO.P,MX_NUMEXT4,1*
G04 #@! TO.N,COL18*
X409480000Y-131742499D03*
D13*
G04 #@! TD*
G04 #@! TO.N,COL18*
G04 #@! TO.C,MX_NUMEXT4*
X410210000Y-132397500D02*
X408750000Y-131087498D01*
D12*
G04 #@! TO.P,MX_NUMEXT4,1*
G04 #@! TO.N,COL18*
X408750000Y-131087500D03*
D11*
G04 #@! TO.P,MX_NUMEXT4,3*
G04 #@! TO.N,+5V*
X417830000Y-129857500D03*
D10*
G04 #@! TO.P,MX_NUMEXT4,4*
G04 #@! TO.N,Net-(MX_NUM19-Pad4)*
X417830000Y-127317500D03*
G04 #@! TD*
D12*
G04 #@! TO.P,MX_NUMEXT5,2*
G04 #@! TO.N,Net-(D111-Pad2)*
X367645000Y-133322500D03*
D13*
G04 #@! TD*
G04 #@! TO.N,Net-(D111-Pad2)*
G04 #@! TO.C,MX_NUMEXT5*
X367625000Y-133612500D02*
X367665000Y-133032500D01*
D12*
G04 #@! TO.P,MX_NUMEXT5,2*
G04 #@! TO.N,Net-(D111-Pad2)*
X367665000Y-133032500D03*
G04 #@! TO.P,MX_NUMEXT5,1*
G04 #@! TO.N,COL15*
X361970001Y-134842500D03*
D13*
G04 #@! TD*
G04 #@! TO.N,COL15*
G04 #@! TO.C,MX_NUMEXT5*
X361315000Y-135572500D02*
X362625002Y-134112500D01*
D12*
G04 #@! TO.P,MX_NUMEXT5,1*
G04 #@! TO.N,COL15*
X362625000Y-134112500D03*
D11*
G04 #@! TO.P,MX_NUMEXT5,3*
G04 #@! TO.N,+5V*
X363855000Y-143192500D03*
D10*
G04 #@! TO.P,MX_NUMEXT5,4*
G04 #@! TO.N,Net-(MX_NUM20-Pad4)*
X366395000Y-143192500D03*
G04 #@! TD*
D12*
G04 #@! TO.P,MX_O1,2*
G04 #@! TO.N,Net-(D44-Pad2)*
X224770000Y-76172500D03*
D13*
G04 #@! TD*
G04 #@! TO.N,Net-(D44-Pad2)*
G04 #@! TO.C,MX_O1*
X224750000Y-76462500D02*
X224790000Y-75882500D01*
D12*
G04 #@! TO.P,MX_O1,2*
G04 #@! TO.N,Net-(D44-Pad2)*
X224790000Y-75882500D03*
G04 #@! TO.P,MX_O1,1*
G04 #@! TO.N,COL9*
X219095001Y-77692500D03*
D13*
G04 #@! TD*
G04 #@! TO.N,COL9*
G04 #@! TO.C,MX_O1*
X218440000Y-78422500D02*
X219750002Y-76962500D01*
D12*
G04 #@! TO.P,MX_O1,1*
G04 #@! TO.N,COL9*
X219750000Y-76962500D03*
D11*
G04 #@! TO.P,MX_O1,3*
G04 #@! TO.N,+5V*
X220980000Y-86042500D03*
D10*
G04 #@! TO.P,MX_O1,4*
G04 #@! TO.N,Net-(MX_O1-Pad4)*
X223520000Y-86042500D03*
G04 #@! TD*
G04 #@! TO.P,MX_P1,4*
G04 #@! TO.N,Net-(MX_P1-Pad4)*
X242570000Y-86042500D03*
D11*
G04 #@! TO.P,MX_P1,3*
G04 #@! TO.N,+5V*
X240030000Y-86042500D03*
D12*
G04 #@! TO.P,MX_P1,1*
G04 #@! TO.N,COL10*
X238800000Y-76962500D03*
X238145001Y-77692500D03*
D13*
G04 #@! TD*
G04 #@! TO.N,COL10*
G04 #@! TO.C,MX_P1*
X237490000Y-78422500D02*
X238800002Y-76962500D01*
D12*
G04 #@! TO.P,MX_P1,2*
G04 #@! TO.N,Net-(D45-Pad2)*
X243840000Y-75882500D03*
X243820000Y-76172500D03*
D13*
G04 #@! TD*
G04 #@! TO.N,Net-(D45-Pad2)*
G04 #@! TO.C,MX_P1*
X243800000Y-76462500D02*
X243840000Y-75882500D01*
D10*
G04 #@! TO.P,MX_Q1,4*
G04 #@! TO.N,Net-(MX_Q1-Pad4)*
X71120000Y-86042500D03*
D11*
G04 #@! TO.P,MX_Q1,3*
G04 #@! TO.N,+5V*
X68580000Y-86042500D03*
D12*
G04 #@! TO.P,MX_Q1,1*
G04 #@! TO.N,COL1*
X67350000Y-76962500D03*
X66695001Y-77692500D03*
D13*
G04 #@! TD*
G04 #@! TO.N,COL1*
G04 #@! TO.C,MX_Q1*
X66040000Y-78422500D02*
X67350002Y-76962500D01*
D12*
G04 #@! TO.P,MX_Q1,2*
G04 #@! TO.N,Net-(D36-Pad2)*
X72390000Y-75882500D03*
X72370000Y-76172500D03*
D13*
G04 #@! TD*
G04 #@! TO.N,Net-(D36-Pad2)*
G04 #@! TO.C,MX_Q1*
X72350000Y-76462500D02*
X72390000Y-75882500D01*
D12*
G04 #@! TO.P,MX_R1,2*
G04 #@! TO.N,Net-(D39-Pad2)*
X129520000Y-76172500D03*
D13*
G04 #@! TD*
G04 #@! TO.N,Net-(D39-Pad2)*
G04 #@! TO.C,MX_R1*
X129500000Y-76462500D02*
X129540000Y-75882500D01*
D12*
G04 #@! TO.P,MX_R1,2*
G04 #@! TO.N,Net-(D39-Pad2)*
X129540000Y-75882500D03*
G04 #@! TO.P,MX_R1,1*
G04 #@! TO.N,COL4*
X123845001Y-77692500D03*
D13*
G04 #@! TD*
G04 #@! TO.N,COL4*
G04 #@! TO.C,MX_R1*
X123190000Y-78422500D02*
X124500002Y-76962500D01*
D12*
G04 #@! TO.P,MX_R1,1*
G04 #@! TO.N,COL4*
X124500000Y-76962500D03*
D11*
G04 #@! TO.P,MX_R1,3*
G04 #@! TO.N,+5V*
X125730000Y-86042500D03*
D10*
G04 #@! TO.P,MX_R1,4*
G04 #@! TO.N,Net-(MX_R1-Pad4)*
X128270000Y-86042500D03*
G04 #@! TD*
G04 #@! TO.P,MX_RESET1,4*
G04 #@! TO.N,Net-(MX_RESET1-Pad4)*
X328295000Y-38417500D03*
D11*
G04 #@! TO.P,MX_RESET1,3*
G04 #@! TO.N,+5V*
X325755000Y-38417500D03*
D12*
G04 #@! TO.P,MX_RESET1,1*
G04 #@! TO.N,COL14*
X324525000Y-29337500D03*
X323870001Y-30067500D03*
D13*
G04 #@! TD*
G04 #@! TO.N,COL14*
G04 #@! TO.C,MX_RESET1*
X323215000Y-30797500D02*
X324525002Y-29337500D01*
D12*
G04 #@! TO.P,MX_RESET1,2*
G04 #@! TO.N,Net-(D15-Pad2)*
X329565000Y-28257500D03*
X329545000Y-28547500D03*
D13*
G04 #@! TD*
G04 #@! TO.N,Net-(D15-Pad2)*
G04 #@! TO.C,MX_RESET1*
X329525000Y-28837500D02*
X329565000Y-28257500D01*
D12*
G04 #@! TO.P,MX_RETURN1,2*
G04 #@! TO.N,Net-(D65-Pad2)*
X298588750Y-95222500D03*
D13*
G04 #@! TD*
G04 #@! TO.N,Net-(D65-Pad2)*
G04 #@! TO.C,MX_RETURN1*
X298568750Y-95512500D02*
X298608750Y-94932500D01*
D12*
G04 #@! TO.P,MX_RETURN1,2*
G04 #@! TO.N,Net-(D65-Pad2)*
X298608750Y-94932500D03*
G04 #@! TO.P,MX_RETURN1,1*
G04 #@! TO.N,COL13*
X292913751Y-96742500D03*
D13*
G04 #@! TD*
G04 #@! TO.N,COL13*
G04 #@! TO.C,MX_RETURN1*
X292258750Y-97472500D02*
X293568752Y-96012500D01*
D12*
G04 #@! TO.P,MX_RETURN1,1*
G04 #@! TO.N,COL13*
X293568750Y-96012500D03*
D11*
G04 #@! TO.P,MX_RETURN1,3*
G04 #@! TO.N,+5V*
X294798750Y-105092500D03*
D10*
G04 #@! TO.P,MX_RETURN1,4*
G04 #@! TO.N,Net-(MX_RETURN1-Pad4)*
X297338750Y-105092500D03*
G04 #@! TD*
D12*
G04 #@! TO.P,MX_RIGHT1,2*
G04 #@! TO.N,Net-(D83-Pad2)*
X329545000Y-133322500D03*
D13*
G04 #@! TD*
G04 #@! TO.N,Net-(D83-Pad2)*
G04 #@! TO.C,MX_RIGHT1*
X329525000Y-133612500D02*
X329565000Y-133032500D01*
D12*
G04 #@! TO.P,MX_RIGHT1,2*
G04 #@! TO.N,Net-(D83-Pad2)*
X329565000Y-133032500D03*
G04 #@! TO.P,MX_RIGHT1,1*
G04 #@! TO.N,COL14*
X323870001Y-134842500D03*
D13*
G04 #@! TD*
G04 #@! TO.N,COL14*
G04 #@! TO.C,MX_RIGHT1*
X323215000Y-135572500D02*
X324525002Y-134112500D01*
D12*
G04 #@! TO.P,MX_RIGHT1,1*
G04 #@! TO.N,COL14*
X324525000Y-134112500D03*
D11*
G04 #@! TO.P,MX_RIGHT1,3*
G04 #@! TO.N,+5V*
X325755000Y-143192500D03*
D10*
G04 #@! TO.P,MX_RIGHT1,4*
G04 #@! TO.N,Net-(MX_RIGHT1-Pad4)*
X328295000Y-143192500D03*
G04 #@! TD*
D12*
G04 #@! TO.P,MX_RSHIFT1,2*
G04 #@! TO.N,Net-(D78-Pad2)*
X284301250Y-114272500D03*
D13*
G04 #@! TD*
G04 #@! TO.N,Net-(D78-Pad2)*
G04 #@! TO.C,MX_RSHIFT1*
X284281250Y-114562500D02*
X284321250Y-113982500D01*
D12*
G04 #@! TO.P,MX_RSHIFT1,2*
G04 #@! TO.N,Net-(D78-Pad2)*
X284321250Y-113982500D03*
G04 #@! TO.P,MX_RSHIFT1,1*
G04 #@! TO.N,COL12*
X278626251Y-115792500D03*
D13*
G04 #@! TD*
G04 #@! TO.N,COL12*
G04 #@! TO.C,MX_RSHIFT1*
X277971250Y-116522500D02*
X279281252Y-115062500D01*
D12*
G04 #@! TO.P,MX_RSHIFT1,1*
G04 #@! TO.N,COL12*
X279281250Y-115062500D03*
D11*
G04 #@! TO.P,MX_RSHIFT1,3*
G04 #@! TO.N,+5V*
X280511250Y-124142500D03*
D10*
G04 #@! TO.P,MX_RSHIFT1,4*
G04 #@! TO.N,Net-(MX_RSHIFT1-Pad4)*
X283051250Y-124142500D03*
G04 #@! TD*
G04 #@! TO.P,MX_S1,4*
G04 #@! TO.N,Net-(MX_S1-Pad4)*
X94932500Y-105092500D03*
D11*
G04 #@! TO.P,MX_S1,3*
G04 #@! TO.N,+5V*
X92392500Y-105092500D03*
D12*
G04 #@! TO.P,MX_S1,1*
G04 #@! TO.N,COL2*
X91162500Y-96012500D03*
X90507501Y-96742500D03*
D13*
G04 #@! TD*
G04 #@! TO.N,COL2*
G04 #@! TO.C,MX_S1*
X89852500Y-97472500D02*
X91162502Y-96012500D01*
D12*
G04 #@! TO.P,MX_S1,2*
G04 #@! TO.N,Net-(D54-Pad2)*
X96202500Y-94932500D03*
X96182500Y-95222500D03*
D13*
G04 #@! TD*
G04 #@! TO.N,Net-(D54-Pad2)*
G04 #@! TO.C,MX_S1*
X96162500Y-95512500D02*
X96202500Y-94932500D01*
D10*
G04 #@! TO.P,MX_T1,4*
G04 #@! TO.N,Net-(MX_T1-Pad4)*
X147320000Y-86042500D03*
D11*
G04 #@! TO.P,MX_T1,3*
G04 #@! TO.N,+5V*
X144780000Y-86042500D03*
D12*
G04 #@! TO.P,MX_T1,1*
G04 #@! TO.N,COL5*
X143550000Y-76962500D03*
X142895001Y-77692500D03*
D13*
G04 #@! TD*
G04 #@! TO.N,COL5*
G04 #@! TO.C,MX_T1*
X142240000Y-78422500D02*
X143550002Y-76962500D01*
D12*
G04 #@! TO.P,MX_T1,2*
G04 #@! TO.N,Net-(D40-Pad2)*
X148590000Y-75882500D03*
X148570000Y-76172500D03*
D13*
G04 #@! TD*
G04 #@! TO.N,Net-(D40-Pad2)*
G04 #@! TO.C,MX_T1*
X148550000Y-76462500D02*
X148590000Y-75882500D01*
D12*
G04 #@! TO.P,MX_TAB1,2*
G04 #@! TO.N,Net-(D35-Pad2)*
X48557500Y-76172500D03*
D13*
G04 #@! TD*
G04 #@! TO.N,Net-(D35-Pad2)*
G04 #@! TO.C,MX_TAB1*
X48537500Y-76462500D02*
X48577500Y-75882500D01*
D12*
G04 #@! TO.P,MX_TAB1,2*
G04 #@! TO.N,Net-(D35-Pad2)*
X48577500Y-75882500D03*
G04 #@! TO.P,MX_TAB1,1*
G04 #@! TO.N,COL0*
X42882501Y-77692500D03*
D13*
G04 #@! TD*
G04 #@! TO.N,COL0*
G04 #@! TO.C,MX_TAB1*
X42227500Y-78422500D02*
X43537502Y-76962500D01*
D12*
G04 #@! TO.P,MX_TAB1,1*
G04 #@! TO.N,COL0*
X43537500Y-76962500D03*
D11*
G04 #@! TO.P,MX_TAB1,3*
G04 #@! TO.N,+5V*
X44767500Y-86042500D03*
D10*
G04 #@! TO.P,MX_TAB1,4*
G04 #@! TO.N,Net-(MX_TAB1-Pad4)*
X47307500Y-86042500D03*
G04 #@! TD*
D12*
G04 #@! TO.P,MX_U1,2*
G04 #@! TO.N,Net-(D42-Pad2)*
X186670000Y-76172500D03*
D13*
G04 #@! TD*
G04 #@! TO.N,Net-(D42-Pad2)*
G04 #@! TO.C,MX_U1*
X186650000Y-76462500D02*
X186690000Y-75882500D01*
D12*
G04 #@! TO.P,MX_U1,2*
G04 #@! TO.N,Net-(D42-Pad2)*
X186690000Y-75882500D03*
G04 #@! TO.P,MX_U1,1*
G04 #@! TO.N,COL7*
X180995001Y-77692500D03*
D13*
G04 #@! TD*
G04 #@! TO.N,COL7*
G04 #@! TO.C,MX_U1*
X180340000Y-78422500D02*
X181650002Y-76962500D01*
D12*
G04 #@! TO.P,MX_U1,1*
G04 #@! TO.N,COL7*
X181650000Y-76962500D03*
D11*
G04 #@! TO.P,MX_U1,3*
G04 #@! TO.N,+5V*
X182880000Y-86042500D03*
D10*
G04 #@! TO.P,MX_U1,4*
G04 #@! TO.N,Net-(MX_U1-Pad4)*
X185420000Y-86042500D03*
G04 #@! TD*
D12*
G04 #@! TO.P,MX_UP1,2*
G04 #@! TO.N,Net-(D66-Pad2)*
X310495000Y-114272500D03*
D13*
G04 #@! TD*
G04 #@! TO.N,Net-(D66-Pad2)*
G04 #@! TO.C,MX_UP1*
X310475000Y-114562500D02*
X310515000Y-113982500D01*
D12*
G04 #@! TO.P,MX_UP1,2*
G04 #@! TO.N,Net-(D66-Pad2)*
X310515000Y-113982500D03*
G04 #@! TO.P,MX_UP1,1*
G04 #@! TO.N,COL13*
X304820001Y-115792500D03*
D13*
G04 #@! TD*
G04 #@! TO.N,COL13*
G04 #@! TO.C,MX_UP1*
X304165000Y-116522500D02*
X305475002Y-115062500D01*
D12*
G04 #@! TO.P,MX_UP1,1*
G04 #@! TO.N,COL13*
X305475000Y-115062500D03*
D11*
G04 #@! TO.P,MX_UP1,3*
G04 #@! TO.N,+5V*
X306705000Y-124142500D03*
D10*
G04 #@! TO.P,MX_UP1,4*
G04 #@! TO.N,Net-(MX_UP1-Pad4)*
X309245000Y-124142500D03*
G04 #@! TD*
G04 #@! TO.P,MX_V1,4*
G04 #@! TO.N,Net-(MX_V1-Pad4)*
X142557500Y-124142500D03*
D11*
G04 #@! TO.P,MX_V1,3*
G04 #@! TO.N,+5V*
X140017500Y-124142500D03*
D12*
G04 #@! TO.P,MX_V1,1*
G04 #@! TO.N,COL4*
X138787500Y-115062500D03*
X138132501Y-115792500D03*
D13*
G04 #@! TD*
G04 #@! TO.N,COL4*
G04 #@! TO.C,MX_V1*
X137477500Y-116522500D02*
X138787502Y-115062500D01*
D12*
G04 #@! TO.P,MX_V1,2*
G04 #@! TO.N,Net-(D71-Pad2)*
X143827500Y-113982500D03*
X143807500Y-114272500D03*
D13*
G04 #@! TD*
G04 #@! TO.N,Net-(D71-Pad2)*
G04 #@! TO.C,MX_V1*
X143787500Y-114562500D02*
X143827500Y-113982500D01*
D10*
G04 #@! TO.P,MX_W1,4*
G04 #@! TO.N,Net-(MX_W1-Pad4)*
X90170000Y-86042500D03*
D11*
G04 #@! TO.P,MX_W1,3*
G04 #@! TO.N,+5V*
X87630000Y-86042500D03*
D12*
G04 #@! TO.P,MX_W1,1*
G04 #@! TO.N,COL2*
X86400000Y-76962500D03*
X85745001Y-77692500D03*
D13*
G04 #@! TD*
G04 #@! TO.N,COL2*
G04 #@! TO.C,MX_W1*
X85090000Y-78422500D02*
X86400002Y-76962500D01*
D12*
G04 #@! TO.P,MX_W1,2*
G04 #@! TO.N,Net-(D37-Pad2)*
X91440000Y-75882500D03*
X91420000Y-76172500D03*
D13*
G04 #@! TD*
G04 #@! TO.N,Net-(D37-Pad2)*
G04 #@! TO.C,MX_W1*
X91400000Y-76462500D02*
X91440000Y-75882500D01*
D10*
G04 #@! TO.P,MX_X1,4*
G04 #@! TO.N,Net-(MX_X1-Pad4)*
X104457500Y-124142500D03*
D11*
G04 #@! TO.P,MX_X1,3*
G04 #@! TO.N,+5V*
X101917500Y-124142500D03*
D12*
G04 #@! TO.P,MX_X1,1*
G04 #@! TO.N,COL2*
X100687500Y-115062500D03*
X100032501Y-115792500D03*
D13*
G04 #@! TD*
G04 #@! TO.N,COL2*
G04 #@! TO.C,MX_X1*
X99377500Y-116522500D02*
X100687502Y-115062500D01*
D12*
G04 #@! TO.P,MX_X1,2*
G04 #@! TO.N,Net-(D69-Pad2)*
X105727500Y-113982500D03*
X105707500Y-114272500D03*
D13*
G04 #@! TD*
G04 #@! TO.N,Net-(D69-Pad2)*
G04 #@! TO.C,MX_X1*
X105687500Y-114562500D02*
X105727500Y-113982500D01*
D12*
G04 #@! TO.P,MX_Y1,2*
G04 #@! TO.N,Net-(D41-Pad2)*
X167620000Y-76172500D03*
D13*
G04 #@! TD*
G04 #@! TO.N,Net-(D41-Pad2)*
G04 #@! TO.C,MX_Y1*
X167600000Y-76462500D02*
X167640000Y-75882500D01*
D12*
G04 #@! TO.P,MX_Y1,2*
G04 #@! TO.N,Net-(D41-Pad2)*
X167640000Y-75882500D03*
G04 #@! TO.P,MX_Y1,1*
G04 #@! TO.N,COL6*
X161945001Y-77692500D03*
D13*
G04 #@! TD*
G04 #@! TO.N,COL6*
G04 #@! TO.C,MX_Y1*
X161290000Y-78422500D02*
X162600002Y-76962500D01*
D12*
G04 #@! TO.P,MX_Y1,1*
G04 #@! TO.N,COL6*
X162600000Y-76962500D03*
D11*
G04 #@! TO.P,MX_Y1,3*
G04 #@! TO.N,+5V*
X163830000Y-86042500D03*
D10*
G04 #@! TO.P,MX_Y1,4*
G04 #@! TO.N,Net-(MX_Y1-Pad4)*
X166370000Y-86042500D03*
G04 #@! TD*
G04 #@! TO.P,MX_Z1,4*
G04 #@! TO.N,Net-(MX_Z1-Pad4)*
X85407500Y-124142500D03*
D11*
G04 #@! TO.P,MX_Z1,3*
G04 #@! TO.N,+5V*
X82867500Y-124142500D03*
D12*
G04 #@! TO.P,MX_Z1,1*
G04 #@! TO.N,COL1*
X81637500Y-115062500D03*
X80982501Y-115792500D03*
D13*
G04 #@! TD*
G04 #@! TO.N,COL1*
G04 #@! TO.C,MX_Z1*
X80327500Y-116522500D02*
X81637502Y-115062500D01*
D12*
G04 #@! TO.P,MX_Z1,2*
G04 #@! TO.N,Net-(D68-Pad2)*
X86677500Y-113982500D03*
X86657500Y-114272500D03*
D13*
G04 #@! TD*
G04 #@! TO.N,Net-(D68-Pad2)*
G04 #@! TO.C,MX_Z1*
X86637500Y-114562500D02*
X86677500Y-113982500D01*
D12*
G04 #@! TO.P,RM1-1,2*
G04 #@! TO.N,Net-(D89-Pad2)*
X234295000Y-133322500D03*
D13*
G04 #@! TD*
G04 #@! TO.N,Net-(D89-Pad2)*
G04 #@! TO.C,RM1-1*
X234275000Y-133612500D02*
X234315000Y-133032500D01*
D12*
G04 #@! TO.P,RM1-1,2*
G04 #@! TO.N,Net-(D89-Pad2)*
X234315000Y-133032500D03*
G04 #@! TO.P,RM1-1,1*
G04 #@! TO.N,COL9*
X228620001Y-134842500D03*
D13*
G04 #@! TD*
G04 #@! TO.N,COL9*
G04 #@! TO.C,RM1-1*
X227965000Y-135572500D02*
X229275002Y-134112500D01*
D12*
G04 #@! TO.P,RM1-1,1*
G04 #@! TO.N,COL9*
X229275000Y-134112500D03*
D11*
G04 #@! TO.P,RM1-1,3*
G04 #@! TO.N,+5V*
X230505000Y-143192500D03*
D10*
G04 #@! TO.P,RM1-1,4*
G04 #@! TO.N,Net-(R89-Pad1)*
X233045000Y-143192500D03*
G04 #@! TD*
D12*
G04 #@! TO.P,RM1-2,2*
G04 #@! TO.N,COL9*
X239057500Y-133322500D03*
D13*
G04 #@! TD*
G04 #@! TO.N,COL9*
G04 #@! TO.C,RM1-2*
X239037500Y-133612500D02*
X239077500Y-133032500D01*
D12*
G04 #@! TO.P,RM1-2,2*
G04 #@! TO.N,COL9*
X239077500Y-133032500D03*
G04 #@! TO.P,RM1-2,1*
G04 #@! TO.N,Net-(D89-Pad2)*
X233382501Y-134842500D03*
D13*
G04 #@! TD*
G04 #@! TO.N,Net-(D89-Pad2)*
G04 #@! TO.C,RM1-2*
X232727500Y-135572500D02*
X234037502Y-134112500D01*
D12*
G04 #@! TO.P,RM1-2,1*
G04 #@! TO.N,Net-(D89-Pad2)*
X234037500Y-134112500D03*
D11*
G04 #@! TO.P,RM1-2,3*
G04 #@! TO.N,+5V*
X237807500Y-143192500D03*
D10*
G04 #@! TO.P,RM1-2,4*
G04 #@! TO.N,Net-(R89-Pad1)*
X235267500Y-143192500D03*
G04 #@! TD*
G04 #@! TO.P,RM2-1,4*
G04 #@! TO.N,Net-(R90-Pad1)*
X252095000Y-143192500D03*
D11*
G04 #@! TO.P,RM2-1,3*
G04 #@! TO.N,+5V*
X249555000Y-143192500D03*
D12*
G04 #@! TO.P,RM2-1,1*
G04 #@! TO.N,COL10*
X248325000Y-134112500D03*
X247670001Y-134842500D03*
D13*
G04 #@! TD*
G04 #@! TO.N,COL10*
G04 #@! TO.C,RM2-1*
X247015000Y-135572500D02*
X248325002Y-134112500D01*
D12*
G04 #@! TO.P,RM2-1,2*
G04 #@! TO.N,Net-(D90-Pad2)*
X253365000Y-133032500D03*
X253345000Y-133322500D03*
D13*
G04 #@! TD*
G04 #@! TO.N,Net-(D90-Pad2)*
G04 #@! TO.C,RM2-1*
X253325000Y-133612500D02*
X253365000Y-133032500D01*
D10*
G04 #@! TO.P,RM3-1,4*
G04 #@! TO.N,Net-(R91-Pad1)*
X271145000Y-143192500D03*
D11*
G04 #@! TO.P,RM3-1,3*
G04 #@! TO.N,+5V*
X268605000Y-143192500D03*
D12*
G04 #@! TO.P,RM3-1,1*
G04 #@! TO.N,COL11*
X267375000Y-134112500D03*
X266720001Y-134842500D03*
D13*
G04 #@! TD*
G04 #@! TO.N,COL11*
G04 #@! TO.C,RM3-1*
X266065000Y-135572500D02*
X267375002Y-134112500D01*
D12*
G04 #@! TO.P,RM3-1,2*
G04 #@! TO.N,Net-(D91-Pad2)*
X272415000Y-133032500D03*
X272395000Y-133322500D03*
D13*
G04 #@! TD*
G04 #@! TO.N,Net-(D91-Pad2)*
G04 #@! TO.C,RM3-1*
X272375000Y-133612500D02*
X272415000Y-133032500D01*
D10*
G04 #@! TO.P,RM3-2,4*
G04 #@! TO.N,Net-(R91-Pad1)*
X263842500Y-143192500D03*
D11*
G04 #@! TO.P,RM3-2,3*
G04 #@! TO.N,+5V*
X266382500Y-143192500D03*
D12*
G04 #@! TO.P,RM3-2,1*
G04 #@! TO.N,Net-(D91-Pad2)*
X262612500Y-134112500D03*
X261957501Y-134842500D03*
D13*
G04 #@! TD*
G04 #@! TO.N,Net-(D91-Pad2)*
G04 #@! TO.C,RM3-2*
X261302500Y-135572500D02*
X262612502Y-134112500D01*
D12*
G04 #@! TO.P,RM3-2,2*
G04 #@! TO.N,COL11*
X267652500Y-133032500D03*
X267632500Y-133322500D03*
D13*
G04 #@! TD*
G04 #@! TO.N,COL11*
G04 #@! TO.C,RM3-2*
X267612500Y-133612500D02*
X267652500Y-133032500D01*
D12*
G04 #@! TO.P,SP1,2*
G04 #@! TO.N,Net-(D87-Pad2)*
X165238750Y-133322500D03*
D13*
G04 #@! TD*
G04 #@! TO.N,Net-(D87-Pad2)*
G04 #@! TO.C,SP1*
X165218750Y-133612500D02*
X165258750Y-133032500D01*
D12*
G04 #@! TO.P,SP1,2*
G04 #@! TO.N,Net-(D87-Pad2)*
X165258750Y-133032500D03*
G04 #@! TO.P,SP1,1*
G04 #@! TO.N,COL5*
X159563751Y-134842500D03*
D13*
G04 #@! TD*
G04 #@! TO.N,COL5*
G04 #@! TO.C,SP1*
X158908750Y-135572500D02*
X160218752Y-134112500D01*
D12*
G04 #@! TO.P,SP1,1*
G04 #@! TO.N,COL5*
X160218750Y-134112500D03*
D11*
G04 #@! TO.P,SP1,3*
G04 #@! TO.N,+5V*
X161448750Y-143192500D03*
D10*
G04 #@! TO.P,SP1,4*
G04 #@! TO.N,Net-(R87-Pad1)*
X163988750Y-143192500D03*
G04 #@! TD*
D12*
G04 #@! TO.P,SP2,2*
G04 #@! TO.N,COL5*
X158095000Y-133322500D03*
D13*
G04 #@! TD*
G04 #@! TO.N,COL5*
G04 #@! TO.C,SP2*
X158075000Y-133612500D02*
X158115000Y-133032500D01*
D12*
G04 #@! TO.P,SP2,2*
G04 #@! TO.N,COL5*
X158115000Y-133032500D03*
G04 #@! TO.P,SP2,1*
G04 #@! TO.N,Net-(D87-Pad2)*
X152420001Y-134842500D03*
D13*
G04 #@! TD*
G04 #@! TO.N,Net-(D87-Pad2)*
G04 #@! TO.C,SP2*
X151765000Y-135572500D02*
X153075002Y-134112500D01*
D12*
G04 #@! TO.P,SP2,1*
G04 #@! TO.N,Net-(D87-Pad2)*
X153075000Y-134112500D03*
D11*
G04 #@! TO.P,SP2,3*
G04 #@! TO.N,+5V*
X154305000Y-143192500D03*
D10*
G04 #@! TO.P,SP2,4*
G04 #@! TO.N,Net-(R87-Pad1)*
X156845000Y-143192500D03*
G04 #@! TD*
D16*
G04 #@! TO.P,USB1,13*
G04 #@! TO.N,GND*
X345632500Y-25618750D03*
X336992500Y-25618750D03*
D17*
X345632500Y-29798750D03*
X336992500Y-29798750D03*
G04 #@! TD*
D12*
G04 #@! TO.P,LM3-2,2*
G04 #@! TO.N,COL1*
X77132500Y-133322500D03*
D13*
G04 #@! TD*
G04 #@! TO.N,COL1*
G04 #@! TO.C,LM3-2*
X77112500Y-133612500D02*
X77152500Y-133032500D01*
D12*
G04 #@! TO.P,LM3-2,2*
G04 #@! TO.N,COL1*
X77152500Y-133032500D03*
G04 #@! TO.P,LM3-2,1*
G04 #@! TO.N,Net-(D85-Pad2)*
X71457501Y-134842500D03*
D13*
G04 #@! TD*
G04 #@! TO.N,Net-(D85-Pad2)*
G04 #@! TO.C,LM3-2*
X70802500Y-135572500D02*
X72112502Y-134112500D01*
D12*
G04 #@! TO.P,LM3-2,1*
G04 #@! TO.N,Net-(D85-Pad2)*
X72112500Y-134112500D03*
D11*
G04 #@! TO.P,LM3-2,3*
G04 #@! TO.N,+5V*
X73342500Y-143192500D03*
D10*
G04 #@! TO.P,LM3-2,4*
G04 #@! TO.N,Net-(LM2-1-Pad4)*
X75882500Y-143192500D03*
G04 #@! TD*
D12*
G04 #@! TO.P,MX_NUM2,2*
G04 #@! TO.N,Net-(D93-Pad2)*
X377170000Y-28547500D03*
D13*
G04 #@! TD*
G04 #@! TO.N,Net-(D93-Pad2)*
G04 #@! TO.C,MX_NUM2*
X377150000Y-28837500D02*
X377190000Y-28257500D01*
D12*
G04 #@! TO.P,MX_NUM2,2*
G04 #@! TO.N,Net-(D93-Pad2)*
X377190000Y-28257500D03*
G04 #@! TO.P,MX_NUM2,1*
G04 #@! TO.N,COL16*
X371495001Y-30067500D03*
D13*
G04 #@! TD*
G04 #@! TO.N,COL16*
G04 #@! TO.C,MX_NUM2*
X370840000Y-30797500D02*
X372150002Y-29337500D01*
D12*
G04 #@! TO.P,MX_NUM2,1*
G04 #@! TO.N,COL16*
X372150000Y-29337500D03*
D11*
G04 #@! TO.P,MX_NUM2,3*
G04 #@! TO.N,+5V*
X373380000Y-38417500D03*
D10*
G04 #@! TO.P,MX_NUM2,4*
G04 #@! TO.N,Net-(MX_NUM2-Pad4)*
X375920000Y-38417500D03*
G04 #@! TD*
D18*
G04 #@! TO.N,Net-(BS1-1-Pad2)*
X297307000Y-55626000D03*
G04 #@! TO.N,+5V*
X348488000Y-40767000D03*
X335534000Y-50927000D03*
X342900000Y-66040000D03*
X347980000Y-66040000D03*
X281432000Y-105410000D03*
X353822000Y-43561000D03*
X337185000Y-44450000D03*
G04 #@! TO.N,ROW0*
X350520000Y-35560000D03*
X332105000Y-35560000D03*
X368300000Y-53340000D03*
X368046000Y-35433000D03*
G04 #@! TO.N,ROW1*
X347980000Y-64135000D03*
X342900000Y-64135000D03*
G04 #@! TO.N,ROW2*
X347980000Y-83185000D03*
X342900000Y-83185000D03*
G04 #@! TO.N,ROW3*
X342900000Y-102235000D03*
X347980000Y-102235000D03*
X314198000Y-63627000D03*
X314198000Y-102108000D03*
G04 #@! TO.N,ROW4*
X342900000Y-121285000D03*
X347980000Y-121285000D03*
G04 #@! TO.N,Net-(D63-Pad2)*
X257175000Y-93980000D03*
G04 #@! TO.N,COL2*
X84201000Y-86106000D03*
G04 #@! TO.N,COL3*
X103251000Y-86106000D03*
G04 #@! TO.N,LEDGND*
X332105000Y-36576000D03*
X350520000Y-36576000D03*
X347980000Y-65151000D03*
X342900000Y-65151000D03*
X342900000Y-84201000D03*
X347980000Y-84201000D03*
X342900000Y-103251000D03*
X347980000Y-103251000D03*
X342900000Y-122301000D03*
X347980000Y-122301000D03*
X386715000Y-65405000D03*
X387477000Y-84074000D03*
X387477000Y-103124000D03*
X387477000Y-122174000D03*
X387096000Y-141732000D03*
X384683000Y-47625000D03*
X384683000Y-37338000D03*
G04 #@! TO.N,GND*
X342138000Y-57404000D03*
X386588000Y-43434000D03*
X339598000Y-45974000D03*
G04 #@! TO.N,VCC*
X344043000Y-32512000D03*
X339217000Y-33655000D03*
G04 #@! TO.N,COL10*
X236347000Y-86106000D03*
G04 #@! TO.N,COL11*
X256540000Y-85725000D03*
G04 #@! TO.N,COL12*
X301371000Y-51435000D03*
G04 #@! TO.N,RESET*
X372110000Y-51943000D03*
G04 #@! TO.N,Net-(RC6-Pad2)*
X339979000Y-32385000D03*
X336677000Y-35433000D03*
G04 #@! TO.N,Net-(RC7-Pad2)*
X342773000Y-32385000D03*
X346202000Y-35433000D03*
G04 #@! TD*
D19*
G04 #@! TO.N,Net-(BS1-1-Pad2)*
X300950000Y-57412500D02*
X300950000Y-57364000D01*
X300950000Y-57364000D02*
X299212000Y-55626000D01*
X299212000Y-55626000D02*
X297307000Y-55626000D01*
G04 #@! TO.N,COL6*
X152273000Y-59880500D02*
X151765000Y-59372500D01*
X152273000Y-67183000D02*
X152273000Y-59880500D01*
X161290000Y-76200000D02*
X152273000Y-67183000D01*
X161290000Y-78422500D02*
X161290000Y-76200000D01*
X152273000Y-58864500D02*
X151765000Y-59372500D01*
X151765000Y-30797500D02*
X152273000Y-31305500D01*
X152273000Y-31305500D02*
X152273000Y-58864500D01*
X175577500Y-114236500D02*
X175577500Y-116522500D01*
X166624000Y-98044000D02*
X166052500Y-97472500D01*
X166624000Y-105283000D02*
X166624000Y-98044000D01*
X166624000Y-105283000D02*
X175577500Y-114236500D01*
X163552000Y-92202000D02*
X167362500Y-96012500D01*
X65024000Y-92202000D02*
X163552000Y-92202000D01*
X64008000Y-91186000D02*
X65024000Y-92202000D01*
X161290000Y-78422500D02*
X161798000Y-78930500D01*
X161798000Y-78930500D02*
X161798000Y-84709000D01*
X161798000Y-84709000D02*
X157861000Y-88646000D01*
X157861000Y-88646000D02*
X65024000Y-88646000D01*
X65024000Y-88646000D02*
X64008000Y-89662000D01*
X64008000Y-89662000D02*
X64008000Y-91186000D01*
D20*
G04 #@! TO.N,+5V*
X340868000Y-40767000D02*
X348488000Y-40767000D01*
X339852000Y-41783000D02*
X340868000Y-40767000D01*
X335534000Y-50927000D02*
X335534000Y-46101000D01*
D21*
X47148750Y-105092500D02*
X44926250Y-105092500D01*
X47148750Y-108997750D02*
X52451000Y-114300000D01*
X52451000Y-114300000D02*
X52451000Y-115951000D01*
X52451000Y-115951000D02*
X50546000Y-117856000D01*
X50546000Y-122777250D02*
X51911250Y-124142500D01*
X50546000Y-117856000D02*
X50546000Y-122777250D01*
X44926250Y-106775250D02*
X47148750Y-108997750D01*
X44926250Y-105092500D02*
X44926250Y-106775250D01*
X43434000Y-87376000D02*
X44767500Y-86042500D01*
X43434000Y-89662000D02*
X43434000Y-87376000D01*
X48006000Y-94234000D02*
X43434000Y-89662000D01*
X48006000Y-95758000D02*
X48006000Y-94234000D01*
X47148750Y-104616250D02*
X48260000Y-103505000D01*
X47148750Y-105092500D02*
X47148750Y-104616250D01*
X48260000Y-103505000D02*
X48768000Y-103505000D01*
X48768000Y-103505000D02*
X51054000Y-101219000D01*
X51054000Y-101219000D02*
X51054000Y-98806000D01*
X51054000Y-98806000D02*
X48006000Y-95758000D01*
X43434000Y-84709000D02*
X44767500Y-86042500D01*
X43434000Y-79756000D02*
X43434000Y-84709000D01*
X40005000Y-67056000D02*
X38608000Y-68453000D01*
X40005000Y-66992500D02*
X40005000Y-67056000D01*
X38608000Y-68453000D02*
X38608000Y-69469000D01*
X38608000Y-69469000D02*
X45339000Y-76200000D01*
X45339000Y-76200000D02*
X45339000Y-77851000D01*
X45339000Y-77851000D02*
X43434000Y-79756000D01*
X38608000Y-39814500D02*
X40005000Y-38417500D01*
X38608000Y-65595500D02*
X38608000Y-60706000D01*
X40005000Y-66992500D02*
X38608000Y-65595500D01*
X38608000Y-60706000D02*
X40513000Y-58801000D01*
X40513000Y-58801000D02*
X40513000Y-57023000D01*
X40513000Y-57023000D02*
X38608000Y-55118000D01*
X38608000Y-55118000D02*
X38608000Y-39814500D01*
X59055000Y-68326000D02*
X59055000Y-66992500D01*
X67183000Y-84645500D02*
X67183000Y-79883000D01*
X68580000Y-86042500D02*
X67183000Y-84645500D01*
X65913000Y-75184000D02*
X59055000Y-68326000D01*
X67183000Y-79883000D02*
X69088000Y-77978000D01*
X69088000Y-77978000D02*
X69088000Y-76200000D01*
X69088000Y-76200000D02*
X68072000Y-75184000D01*
X68072000Y-75184000D02*
X65913000Y-75184000D01*
X81534000Y-122809000D02*
X82867500Y-124142500D01*
X81534000Y-117856000D02*
X81534000Y-122809000D01*
X73342500Y-105092500D02*
X73342500Y-106362500D01*
X73342500Y-106362500D02*
X80264000Y-113284000D01*
X80264000Y-113284000D02*
X82296000Y-113284000D01*
X82296000Y-113284000D02*
X83439000Y-114427000D01*
X83439000Y-114427000D02*
X83439000Y-115951000D01*
X83439000Y-115951000D02*
X81534000Y-117856000D01*
X75882500Y-140652500D02*
X77216000Y-139319000D01*
X77216000Y-139319000D02*
X77216000Y-136017000D01*
X77216000Y-136017000D02*
X81534000Y-131699000D01*
X81534000Y-125476000D02*
X82867500Y-124142500D01*
X81534000Y-131699000D02*
X81534000Y-125476000D01*
X66198750Y-143192500D02*
X66198750Y-142589250D01*
X66198750Y-142589250D02*
X67183000Y-141605000D01*
X71755000Y-141605000D02*
X73342500Y-143192500D01*
X67183000Y-141605000D02*
X71755000Y-141605000D01*
X73342500Y-143192500D02*
X73342500Y-142684500D01*
X73342500Y-142684500D02*
X74422000Y-141605000D01*
X74930000Y-141605000D02*
X75882500Y-140652500D01*
X74422000Y-141605000D02*
X74930000Y-141605000D01*
X47307500Y-143192500D02*
X48323500Y-143192500D01*
X48323500Y-143192500D02*
X52578000Y-138938000D01*
X52578000Y-124809250D02*
X51911250Y-124142500D01*
X52578000Y-138938000D02*
X52578000Y-124809250D01*
X42386250Y-143192500D02*
X42386250Y-142525750D01*
X42386250Y-142525750D02*
X43307000Y-141605000D01*
X43307000Y-141605000D02*
X46355000Y-141605000D01*
X47307500Y-142557500D02*
X47307500Y-143192500D01*
X46355000Y-141605000D02*
X47307500Y-142557500D01*
X88138000Y-76200000D02*
X88138000Y-77851000D01*
X88138000Y-77851000D02*
X86233000Y-79756000D01*
X86233000Y-84645500D02*
X87630000Y-86042500D01*
X86233000Y-79756000D02*
X86233000Y-84645500D01*
X78105000Y-66992500D02*
X78105000Y-68199000D01*
X85090000Y-75184000D02*
X87122000Y-75184000D01*
X78105000Y-68199000D02*
X85090000Y-75184000D01*
X87122000Y-75184000D02*
X88138000Y-76200000D01*
X76708000Y-65595500D02*
X76708000Y-60706000D01*
X67691000Y-39306500D02*
X68580000Y-38417500D01*
X78105000Y-66992500D02*
X76708000Y-65595500D01*
X76708000Y-60706000D02*
X78613000Y-58801000D01*
X78613000Y-58801000D02*
X78613000Y-57150000D01*
X78613000Y-57150000D02*
X67691000Y-46228000D01*
X67691000Y-46228000D02*
X67691000Y-39306500D01*
X95758000Y-65595500D02*
X97155000Y-66992500D01*
X95758000Y-60706000D02*
X95758000Y-65595500D01*
X87630000Y-38608000D02*
X86741000Y-39497000D01*
X87630000Y-38417500D02*
X87630000Y-38608000D01*
X86741000Y-39497000D02*
X86741000Y-46101000D01*
X86741000Y-46101000D02*
X97663000Y-57023000D01*
X97663000Y-57023000D02*
X97663000Y-58801000D01*
X97663000Y-58801000D02*
X95758000Y-60706000D01*
X97155000Y-66992500D02*
X97155000Y-68326000D01*
X97155000Y-68326000D02*
X104013000Y-75184000D01*
X104013000Y-75184000D02*
X106299000Y-75184000D01*
X106299000Y-75184000D02*
X107188000Y-76073000D01*
X107188000Y-76073000D02*
X107188000Y-77851000D01*
X107188000Y-77851000D02*
X105283000Y-79756000D01*
X105283000Y-84645500D02*
X106680000Y-86042500D01*
X105283000Y-79756000D02*
X105283000Y-84645500D01*
X106680000Y-38417500D02*
X106616500Y-38417500D01*
X106616500Y-38417500D02*
X105791000Y-39243000D01*
X105791000Y-39243000D02*
X105791000Y-46228000D01*
X105791000Y-46228000D02*
X116713000Y-57150000D01*
X116713000Y-57150000D02*
X116713000Y-58801000D01*
X116713000Y-58801000D02*
X114808000Y-60706000D01*
X114808000Y-65595500D02*
X116205000Y-66992500D01*
X114808000Y-60706000D02*
X114808000Y-65595500D01*
X116205000Y-66992500D02*
X116205000Y-68326000D01*
X116205000Y-68326000D02*
X123063000Y-75184000D01*
X123063000Y-75184000D02*
X125222000Y-75184000D01*
X125222000Y-75184000D02*
X126238000Y-76200000D01*
X126238000Y-76200000D02*
X126238000Y-77851000D01*
X126238000Y-77851000D02*
X124333000Y-79756000D01*
X124333000Y-84645500D02*
X125730000Y-86042500D01*
X124333000Y-79756000D02*
X124333000Y-84645500D01*
X125730000Y-38417500D02*
X125730000Y-38481000D01*
X125730000Y-38481000D02*
X124841000Y-39370000D01*
X124841000Y-39370000D02*
X124841000Y-46228000D01*
X124841000Y-46228000D02*
X135763000Y-57150000D01*
X135763000Y-57150000D02*
X135763000Y-58928000D01*
X135763000Y-58928000D02*
X133858000Y-60833000D01*
X133858000Y-65595500D02*
X135255000Y-66992500D01*
X133858000Y-60833000D02*
X133858000Y-65595500D01*
X135255000Y-66992500D02*
X135255000Y-68326000D01*
X135255000Y-68326000D02*
X142113000Y-75184000D01*
X142113000Y-75184000D02*
X144272000Y-75184000D01*
X144272000Y-75184000D02*
X145288000Y-76200000D01*
X145288000Y-76200000D02*
X145288000Y-77851000D01*
X145288000Y-77851000D02*
X143383000Y-79756000D01*
X143383000Y-84645500D02*
X144780000Y-86042500D01*
X143383000Y-79756000D02*
X143383000Y-84645500D01*
X152908000Y-39814500D02*
X154305000Y-38417500D01*
X152908000Y-65595500D02*
X152908000Y-60706000D01*
X152908000Y-60706000D02*
X154813000Y-58801000D01*
X154813000Y-58801000D02*
X154813000Y-57150000D01*
X154813000Y-57150000D02*
X152908000Y-55245000D01*
X154305000Y-66992500D02*
X152908000Y-65595500D01*
X152908000Y-55245000D02*
X152908000Y-39814500D01*
X171958000Y-39814500D02*
X173355000Y-38417500D01*
X171958000Y-65595500D02*
X171958000Y-60706000D01*
X173355000Y-66992500D02*
X171958000Y-65595500D01*
X171958000Y-60706000D02*
X173863000Y-58801000D01*
X173863000Y-58801000D02*
X173863000Y-57150000D01*
X173863000Y-57150000D02*
X171958000Y-55245000D01*
X171958000Y-55245000D02*
X171958000Y-39814500D01*
X154305000Y-66992500D02*
X154305000Y-68326000D01*
X154305000Y-68326000D02*
X161163000Y-75184000D01*
X161163000Y-75184000D02*
X163322000Y-75184000D01*
X163322000Y-75184000D02*
X164338000Y-76200000D01*
X164338000Y-76200000D02*
X164338000Y-77851000D01*
X164338000Y-77851000D02*
X162433000Y-79756000D01*
X162433000Y-84645500D02*
X163830000Y-86042500D01*
X162433000Y-79756000D02*
X162433000Y-84645500D01*
X173355000Y-66992500D02*
X173355000Y-68326000D01*
X173355000Y-68326000D02*
X180213000Y-75184000D01*
X180213000Y-75184000D02*
X182372000Y-75184000D01*
X182372000Y-75184000D02*
X183388000Y-76200000D01*
X183388000Y-76200000D02*
X183388000Y-77851000D01*
X183388000Y-77851000D02*
X181483000Y-79756000D01*
X181483000Y-84645500D02*
X182880000Y-86042500D01*
X181483000Y-79756000D02*
X181483000Y-84645500D01*
X192405000Y-38417500D02*
X192405000Y-38481000D01*
X192405000Y-38481000D02*
X191008000Y-39878000D01*
X191008000Y-39878000D02*
X191008000Y-55245000D01*
X191008000Y-55245000D02*
X192913000Y-57150000D01*
X192913000Y-57150000D02*
X192913000Y-58801000D01*
X192913000Y-58801000D02*
X191008000Y-60706000D01*
X191008000Y-65595500D02*
X192405000Y-66992500D01*
X191008000Y-60706000D02*
X191008000Y-65595500D01*
X192405000Y-66992500D02*
X192405000Y-68326000D01*
X192405000Y-68326000D02*
X199263000Y-75184000D01*
X199263000Y-75184000D02*
X201422000Y-75184000D01*
X201422000Y-75184000D02*
X202438000Y-76200000D01*
X202438000Y-76200000D02*
X202438000Y-77851000D01*
X202438000Y-77851000D02*
X200533000Y-79756000D01*
X200533000Y-84645500D02*
X201930000Y-86042500D01*
X200533000Y-79756000D02*
X200533000Y-84645500D01*
X211455000Y-38417500D02*
X211391500Y-38417500D01*
X211391500Y-38417500D02*
X210058000Y-39751000D01*
X210058000Y-39751000D02*
X210058000Y-55245000D01*
X210058000Y-55245000D02*
X211963000Y-57150000D01*
X211963000Y-57150000D02*
X211963000Y-58801000D01*
X211963000Y-58801000D02*
X210058000Y-60706000D01*
X210058000Y-65595500D02*
X211455000Y-66992500D01*
X210058000Y-60706000D02*
X210058000Y-65595500D01*
X211455000Y-66992500D02*
X211455000Y-68326000D01*
X211455000Y-68326000D02*
X218313000Y-75184000D01*
X218313000Y-75184000D02*
X220472000Y-75184000D01*
X220472000Y-75184000D02*
X221488000Y-76200000D01*
X221488000Y-76200000D02*
X221488000Y-77851000D01*
X221488000Y-77851000D02*
X219583000Y-79756000D01*
X219583000Y-84645500D02*
X220980000Y-86042500D01*
X219583000Y-79756000D02*
X219583000Y-84645500D01*
X229108000Y-65659000D02*
X230441500Y-66992500D01*
X230441500Y-66992500D02*
X230505000Y-66992500D01*
X239014000Y-39433500D02*
X239014000Y-49276000D01*
X239014000Y-49276000D02*
X231140000Y-57150000D01*
X240030000Y-38417500D02*
X239014000Y-39433500D01*
X231140000Y-57150000D02*
X231140000Y-58801000D01*
X231140000Y-58801000D02*
X229108000Y-60833000D01*
X229108000Y-60833000D02*
X229108000Y-65659000D01*
X230505000Y-66992500D02*
X230505000Y-68326000D01*
X230505000Y-68326000D02*
X237363000Y-75184000D01*
X237363000Y-75184000D02*
X239522000Y-75184000D01*
X239522000Y-75184000D02*
X240538000Y-76200000D01*
X240538000Y-76200000D02*
X240538000Y-77851000D01*
X240538000Y-77851000D02*
X238633000Y-79756000D01*
X238633000Y-84645500D02*
X240030000Y-86042500D01*
X238633000Y-79756000D02*
X238633000Y-84645500D01*
X249555000Y-66992500D02*
X249555000Y-66929000D01*
X249555000Y-66929000D02*
X248158000Y-65532000D01*
X248158000Y-65532000D02*
X248158000Y-60706000D01*
X248158000Y-60706000D02*
X250063000Y-58801000D01*
X250063000Y-58801000D02*
X250063000Y-57277000D01*
X250063000Y-57277000D02*
X258064000Y-49276000D01*
X258064000Y-39433500D02*
X259080000Y-38417500D01*
X258064000Y-49276000D02*
X258064000Y-39433500D01*
X249555000Y-66992500D02*
X249555000Y-68326000D01*
X249555000Y-68326000D02*
X256413000Y-75184000D01*
X256413000Y-75184000D02*
X258572000Y-75184000D01*
X258572000Y-75184000D02*
X259588000Y-76200000D01*
X259588000Y-76200000D02*
X259588000Y-77851000D01*
X259588000Y-77851000D02*
X257683000Y-79756000D01*
X257683000Y-84645500D02*
X259080000Y-86042500D01*
X257683000Y-79756000D02*
X257683000Y-84645500D01*
X268605000Y-66992500D02*
X268541500Y-66992500D01*
X268541500Y-66992500D02*
X267208000Y-65659000D01*
X267208000Y-65659000D02*
X267208000Y-60706000D01*
X267208000Y-60706000D02*
X269113000Y-58801000D01*
X269113000Y-58801000D02*
X269113000Y-57150000D01*
X269113000Y-57150000D02*
X277114000Y-49149000D01*
X277114000Y-39433500D02*
X278130000Y-38417500D01*
X277114000Y-49149000D02*
X277114000Y-39433500D01*
X268605000Y-66992500D02*
X268605000Y-68326000D01*
X268605000Y-68326000D02*
X275463000Y-75184000D01*
X275463000Y-75184000D02*
X277622000Y-75184000D01*
X277622000Y-75184000D02*
X278638000Y-76200000D01*
X278638000Y-76200000D02*
X278638000Y-77851000D01*
X278638000Y-77851000D02*
X276733000Y-79756000D01*
X276733000Y-84645500D02*
X278130000Y-86042500D01*
X276733000Y-79756000D02*
X276733000Y-84645500D01*
X297180000Y-38417500D02*
X297116500Y-38417500D01*
X297116500Y-38417500D02*
X296164000Y-39370000D01*
X296164000Y-39370000D02*
X296164000Y-55626000D01*
X296164000Y-55626000D02*
X297688000Y-57150000D01*
X297688000Y-57150000D02*
X297688000Y-58801000D01*
X297688000Y-58801000D02*
X295910000Y-60579000D01*
X295910000Y-65722500D02*
X297180000Y-66992500D01*
X295910000Y-60579000D02*
X295910000Y-65722500D01*
X297180000Y-66992500D02*
X297116500Y-66992500D01*
X297116500Y-66992500D02*
X295910000Y-68199000D01*
X295910000Y-68199000D02*
X295910000Y-69596000D01*
X295910000Y-69596000D02*
X302514000Y-76200000D01*
X302514000Y-76200000D02*
X302514000Y-77724000D01*
X302514000Y-77724000D02*
X300609000Y-79629000D01*
X300609000Y-84709000D02*
X301942500Y-86042500D01*
X300609000Y-79629000D02*
X300609000Y-84709000D01*
X293370000Y-103663750D02*
X294798750Y-105092500D01*
X300609000Y-87376000D02*
X300609000Y-89916000D01*
X301942500Y-86042500D02*
X300609000Y-87376000D01*
X300609000Y-89916000D02*
X295402000Y-95123000D01*
X295402000Y-95123000D02*
X295402000Y-96901000D01*
X295402000Y-96901000D02*
X293370000Y-98933000D01*
X293370000Y-98933000D02*
X293370000Y-103663750D01*
X294798750Y-105092500D02*
X294798750Y-106203750D01*
X294798750Y-106203750D02*
X301879000Y-113284000D01*
X301879000Y-113284000D02*
X306197000Y-113284000D01*
X306197000Y-113284000D02*
X307213000Y-114300000D01*
X307213000Y-114300000D02*
X307213000Y-115951000D01*
X307213000Y-115951000D02*
X305308000Y-117856000D01*
X305308000Y-122745500D02*
X306705000Y-124142500D01*
X305308000Y-117856000D02*
X305308000Y-122745500D01*
X306705000Y-143192500D02*
X306705000Y-143129000D01*
X306705000Y-143129000D02*
X305308000Y-141732000D01*
X305308000Y-141732000D02*
X305308000Y-136906000D01*
X305308000Y-136906000D02*
X307213000Y-135001000D01*
X307213000Y-135001000D02*
X307213000Y-133350000D01*
X307213000Y-133350000D02*
X305308000Y-131445000D01*
X305308000Y-125539500D02*
X306705000Y-124142500D01*
X305308000Y-131445000D02*
X305308000Y-125539500D01*
X90011250Y-143192500D02*
X89979500Y-143192500D01*
X89979500Y-143192500D02*
X88646000Y-141859000D01*
X88646000Y-141859000D02*
X88646000Y-136906000D01*
X88646000Y-136906000D02*
X90551000Y-135001000D01*
X90551000Y-135001000D02*
X90551000Y-133223000D01*
X99631500Y-124142500D02*
X101917500Y-124142500D01*
X90551000Y-133223000D02*
X99631500Y-124142500D01*
X92392500Y-106362500D02*
X92392500Y-105092500D01*
X99314000Y-113284000D02*
X92392500Y-106362500D01*
X100584000Y-122809000D02*
X100584000Y-117856000D01*
X102489000Y-115951000D02*
X102489000Y-114300000D01*
X101917500Y-124142500D02*
X100584000Y-122809000D01*
X102489000Y-114300000D02*
X101473000Y-113284000D01*
X100584000Y-117856000D02*
X102489000Y-115951000D01*
X101473000Y-113284000D02*
X99314000Y-113284000D01*
X111442500Y-105092500D02*
X111442500Y-106362500D01*
X111442500Y-106362500D02*
X118364000Y-113284000D01*
X118364000Y-113284000D02*
X120396000Y-113284000D01*
X120396000Y-113284000D02*
X121539000Y-114427000D01*
X121539000Y-114427000D02*
X121539000Y-115824000D01*
X121539000Y-115824000D02*
X119634000Y-117729000D01*
X119634000Y-122809000D02*
X120967500Y-124142500D01*
X119634000Y-117729000D02*
X119634000Y-122809000D01*
X130492500Y-105092500D02*
X130492500Y-106362500D01*
X130492500Y-106362500D02*
X137414000Y-113284000D01*
X137414000Y-113284000D02*
X139446000Y-113284000D01*
X139446000Y-113284000D02*
X140589000Y-114427000D01*
X140589000Y-114427000D02*
X140589000Y-115951000D01*
X140589000Y-115951000D02*
X138684000Y-117856000D01*
X138684000Y-122809000D02*
X140017500Y-124142500D01*
X138684000Y-117856000D02*
X138684000Y-122809000D01*
X157734000Y-122809000D02*
X159067500Y-124142500D01*
X157734000Y-117856000D02*
X157734000Y-122809000D01*
X149542500Y-106362500D02*
X156464000Y-113284000D01*
X149542500Y-105092500D02*
X149542500Y-106362500D01*
X156464000Y-113284000D02*
X158623000Y-113284000D01*
X158623000Y-113284000D02*
X159639000Y-114300000D01*
X159639000Y-114300000D02*
X159639000Y-115951000D01*
X159639000Y-115951000D02*
X157734000Y-117856000D01*
X161448750Y-142716250D02*
X161448750Y-143192500D01*
X162560000Y-141605000D02*
X161448750Y-142716250D01*
X157734000Y-125476000D02*
X157734000Y-129159000D01*
X159067500Y-124142500D02*
X157734000Y-125476000D01*
X157734000Y-129159000D02*
X165354000Y-136779000D01*
X165354000Y-136779000D02*
X165354000Y-139192000D01*
X165354000Y-139192000D02*
X162941000Y-141605000D01*
X162941000Y-141605000D02*
X162560000Y-141605000D01*
X161448750Y-143192500D02*
X161448750Y-143160750D01*
X161448750Y-143160750D02*
X159893000Y-141605000D01*
X159893000Y-141605000D02*
X155448000Y-141605000D01*
X154305000Y-142748000D02*
X154305000Y-143192500D01*
X155448000Y-141605000D02*
X154305000Y-142748000D01*
X168592500Y-105092500D02*
X168592500Y-106362500D01*
X168592500Y-106362500D02*
X175514000Y-113284000D01*
X175514000Y-113284000D02*
X177673000Y-113284000D01*
X177673000Y-113284000D02*
X178689000Y-114300000D01*
X178689000Y-114300000D02*
X178689000Y-115951000D01*
X178689000Y-115951000D02*
X176784000Y-117856000D01*
X176784000Y-122809000D02*
X178117500Y-124142500D01*
X176784000Y-117856000D02*
X176784000Y-122809000D01*
X187642500Y-105092500D02*
X187642500Y-106362500D01*
X187642500Y-106362500D02*
X194564000Y-113284000D01*
X194564000Y-113284000D02*
X196596000Y-113284000D01*
X196596000Y-113284000D02*
X197739000Y-114427000D01*
X197739000Y-114427000D02*
X197739000Y-115951000D01*
X197739000Y-115951000D02*
X195834000Y-117856000D01*
X195834000Y-122809000D02*
X197167500Y-124142500D01*
X195834000Y-117856000D02*
X195834000Y-122809000D01*
X206692500Y-105092500D02*
X206692500Y-106362500D01*
X206692500Y-106362500D02*
X213614000Y-113284000D01*
X213614000Y-113284000D02*
X215773000Y-113284000D01*
X215773000Y-113284000D02*
X216789000Y-114300000D01*
X216789000Y-114300000D02*
X216789000Y-115824000D01*
X216789000Y-115824000D02*
X214884000Y-117729000D01*
X214884000Y-122809000D02*
X216217500Y-124142500D01*
X214884000Y-117729000D02*
X214884000Y-122809000D01*
X280511250Y-124142500D02*
X280479500Y-124142500D01*
X280511250Y-124142500D02*
X280511250Y-125444250D01*
X280511250Y-125444250D02*
X288163000Y-133096000D01*
X288163000Y-133096000D02*
X288163000Y-135001000D01*
X288163000Y-135001000D02*
X286258000Y-136906000D01*
X286258000Y-141795500D02*
X287655000Y-143192500D01*
X286258000Y-136906000D02*
X286258000Y-141795500D01*
X268605000Y-143192500D02*
X266382500Y-143192500D01*
X244792500Y-105092500D02*
X244792500Y-106362500D01*
X244792500Y-106362500D02*
X251714000Y-113284000D01*
X251714000Y-113284000D02*
X253873000Y-113284000D01*
X253873000Y-113284000D02*
X254889000Y-114300000D01*
X254889000Y-114300000D02*
X254889000Y-115951000D01*
X254889000Y-115951000D02*
X252984000Y-117856000D01*
X252984000Y-122809000D02*
X254317500Y-124142500D01*
X252984000Y-117856000D02*
X252984000Y-122809000D01*
X225742500Y-105092500D02*
X225742500Y-106362500D01*
X225742500Y-106362500D02*
X232664000Y-113284000D01*
X232664000Y-113284000D02*
X234823000Y-113284000D01*
X234823000Y-113284000D02*
X235839000Y-114300000D01*
X235839000Y-114300000D02*
X235839000Y-115951000D01*
X235839000Y-115951000D02*
X233934000Y-117856000D01*
X233934000Y-122809000D02*
X235267500Y-124142500D01*
X233934000Y-117856000D02*
X233934000Y-122809000D01*
X230505000Y-143192500D02*
X230505000Y-142748000D01*
X230505000Y-142748000D02*
X231648000Y-141605000D01*
X231648000Y-141605000D02*
X236728000Y-141605000D01*
X237807500Y-142684500D02*
X237807500Y-143192500D01*
X236728000Y-141605000D02*
X237807500Y-142684500D01*
X249555000Y-143129000D02*
X249555000Y-143192500D01*
X254317500Y-124142500D02*
X252984000Y-125476000D01*
X248158000Y-141732000D02*
X249555000Y-143129000D01*
X252984000Y-125476000D02*
X252984000Y-130429000D01*
X252984000Y-130429000D02*
X250063000Y-133350000D01*
X250063000Y-133350000D02*
X250063000Y-135128000D01*
X250063000Y-135128000D02*
X248158000Y-137033000D01*
X248158000Y-137033000D02*
X248158000Y-141732000D01*
X325755000Y-38417500D02*
X325755000Y-38481000D01*
X325755000Y-86042500D02*
X325755000Y-85979000D01*
X325755000Y-85979000D02*
X324358000Y-84582000D01*
X324358000Y-84582000D02*
X324358000Y-79756000D01*
X324358000Y-79756000D02*
X326263000Y-77851000D01*
X326263000Y-77851000D02*
X326263000Y-76200000D01*
X326263000Y-76200000D02*
X324358000Y-74295000D01*
X324358000Y-68389500D02*
X325755000Y-66992500D01*
X324358000Y-74295000D02*
X324358000Y-68389500D01*
X325755000Y-66992500D02*
X325755000Y-66929000D01*
X325755000Y-66929000D02*
X324358000Y-65532000D01*
X324358000Y-65532000D02*
X324358000Y-60706000D01*
X324358000Y-60706000D02*
X326263000Y-58801000D01*
X326263000Y-58801000D02*
X326263000Y-57150000D01*
X326263000Y-57150000D02*
X324358000Y-55245000D01*
X324358000Y-39814500D02*
X325755000Y-38417500D01*
X324358000Y-55245000D02*
X324358000Y-39814500D01*
X325755000Y-86042500D02*
X325755000Y-86106000D01*
X325755000Y-86106000D02*
X324358000Y-87503000D01*
X324358000Y-87503000D02*
X324358000Y-93345000D01*
X324358000Y-93345000D02*
X326263000Y-95250000D01*
X326263000Y-95250000D02*
X326263000Y-96901000D01*
X326263000Y-96901000D02*
X324358000Y-98806000D01*
X324358000Y-103695500D02*
X325755000Y-105092500D01*
X324358000Y-98806000D02*
X324358000Y-103695500D01*
X324358000Y-117856000D02*
X324358000Y-122745500D01*
X325755000Y-105092500D02*
X325691500Y-105092500D01*
X324358000Y-106426000D02*
X324358000Y-112395000D01*
X324358000Y-122745500D02*
X325755000Y-124142500D01*
X324358000Y-112395000D02*
X326263000Y-114300000D01*
X326263000Y-114300000D02*
X326263000Y-115951000D01*
X325691500Y-105092500D02*
X324358000Y-106426000D01*
X326263000Y-115951000D02*
X324358000Y-117856000D01*
X325755000Y-124142500D02*
X325755000Y-124206000D01*
X325755000Y-124206000D02*
X324358000Y-125603000D01*
X324358000Y-125603000D02*
X324358000Y-131445000D01*
X324358000Y-131445000D02*
X326263000Y-133350000D01*
X326263000Y-133350000D02*
X326263000Y-135001000D01*
X326263000Y-135001000D02*
X324358000Y-136906000D01*
X324358000Y-141795500D02*
X325755000Y-143192500D01*
X324358000Y-136906000D02*
X324358000Y-141795500D01*
X354330000Y-86042500D02*
X354330000Y-85979000D01*
X354330000Y-85979000D02*
X352933000Y-84582000D01*
X352933000Y-84582000D02*
X352933000Y-79756000D01*
X352933000Y-79756000D02*
X354838000Y-77851000D01*
X354838000Y-77851000D02*
X354838000Y-76200000D01*
X354838000Y-76200000D02*
X352933000Y-74295000D01*
X352933000Y-68389500D02*
X354330000Y-66992500D01*
X352933000Y-74295000D02*
X352933000Y-68389500D01*
X352933000Y-103695500D02*
X354330000Y-105092500D01*
X354330000Y-86106000D02*
X352933000Y-87503000D01*
X354330000Y-86042500D02*
X354330000Y-86106000D01*
X352933000Y-87503000D02*
X352933000Y-93345000D01*
X352933000Y-93345000D02*
X354838000Y-95250000D01*
X354838000Y-95250000D02*
X354838000Y-96901000D01*
X352933000Y-98806000D02*
X352933000Y-103695500D01*
X354838000Y-96901000D02*
X352933000Y-98806000D01*
X354330000Y-105092500D02*
X354266500Y-105092500D01*
X354266500Y-105092500D02*
X352933000Y-106426000D01*
X352933000Y-106426000D02*
X352933000Y-112395000D01*
X352933000Y-112395000D02*
X354838000Y-114300000D01*
X354838000Y-114300000D02*
X354838000Y-115951000D01*
X354838000Y-115951000D02*
X352933000Y-117856000D01*
X352933000Y-122745500D02*
X354330000Y-124142500D01*
X352933000Y-117856000D02*
X352933000Y-122745500D01*
X371983000Y-65595500D02*
X373380000Y-66992500D01*
X371983000Y-60706000D02*
X371983000Y-65595500D01*
X374015000Y-58674000D02*
X371983000Y-60706000D01*
X374015000Y-54229000D02*
X374015000Y-54991000D01*
X374015000Y-54991000D02*
X374015000Y-58674000D01*
X373380000Y-66992500D02*
X373380000Y-67056000D01*
X373380000Y-67056000D02*
X371983000Y-68453000D01*
X371983000Y-68453000D02*
X371983000Y-74295000D01*
X371983000Y-74295000D02*
X373888000Y-76200000D01*
X373888000Y-76200000D02*
X373888000Y-77851000D01*
X373888000Y-77851000D02*
X371983000Y-79756000D01*
X371983000Y-84645500D02*
X373380000Y-86042500D01*
X371983000Y-79756000D02*
X371983000Y-84645500D01*
X373380000Y-86042500D02*
X373316500Y-86042500D01*
X373316500Y-86042500D02*
X371983000Y-87376000D01*
X371983000Y-87376000D02*
X371983000Y-93345000D01*
X371983000Y-93345000D02*
X373888000Y-95250000D01*
X373888000Y-95250000D02*
X373888000Y-96901000D01*
X373888000Y-96901000D02*
X371983000Y-98806000D01*
X371983000Y-103695500D02*
X373380000Y-105092500D01*
X371983000Y-98806000D02*
X371983000Y-103695500D01*
X373380000Y-105092500D02*
X373380000Y-105156000D01*
X373380000Y-105156000D02*
X371983000Y-106553000D01*
X371983000Y-106553000D02*
X371983000Y-112395000D01*
X371983000Y-112395000D02*
X373888000Y-114300000D01*
X373888000Y-114300000D02*
X373888000Y-115951000D01*
X373888000Y-115951000D02*
X371983000Y-117856000D01*
X371983000Y-122745500D02*
X373380000Y-124142500D01*
X371983000Y-117856000D02*
X371983000Y-122745500D01*
X392430000Y-38417500D02*
X392430000Y-38481000D01*
X392430000Y-38481000D02*
X391033000Y-39878000D01*
X391033000Y-39878000D02*
X391033000Y-55245000D01*
X391033000Y-55245000D02*
X392938000Y-57150000D01*
X392938000Y-57150000D02*
X392938000Y-58801000D01*
X392938000Y-58801000D02*
X391033000Y-60706000D01*
X391033000Y-65595500D02*
X392430000Y-66992500D01*
X391033000Y-60706000D02*
X391033000Y-65595500D01*
X392430000Y-66992500D02*
X392366500Y-66992500D01*
X392366500Y-66992500D02*
X391033000Y-68326000D01*
X391033000Y-68326000D02*
X391033000Y-74295000D01*
X391033000Y-74295000D02*
X392938000Y-76200000D01*
X392938000Y-76200000D02*
X392938000Y-77851000D01*
X392938000Y-77851000D02*
X391033000Y-79756000D01*
X391033000Y-84645500D02*
X392430000Y-86042500D01*
X391033000Y-79756000D02*
X391033000Y-84645500D01*
X392430000Y-86042500D02*
X392430000Y-86106000D01*
X392430000Y-86106000D02*
X391033000Y-87503000D01*
X391033000Y-87503000D02*
X391033000Y-93345000D01*
X391033000Y-93345000D02*
X392938000Y-95250000D01*
X392938000Y-95250000D02*
X392938000Y-96901000D01*
X392938000Y-96901000D02*
X391033000Y-98806000D01*
X391033000Y-103695500D02*
X392430000Y-105092500D01*
X391033000Y-98806000D02*
X391033000Y-103695500D01*
X392430000Y-105092500D02*
X392366500Y-105092500D01*
X392366500Y-105092500D02*
X391033000Y-106426000D01*
X391033000Y-106426000D02*
X391033000Y-112395000D01*
X391033000Y-112395000D02*
X392938000Y-114300000D01*
X392938000Y-114300000D02*
X392938000Y-115951000D01*
X392938000Y-115951000D02*
X391033000Y-117856000D01*
X391033000Y-122745500D02*
X392430000Y-124142500D01*
X391033000Y-117856000D02*
X391033000Y-122745500D01*
X392430000Y-124142500D02*
X392366500Y-124142500D01*
X392366500Y-124142500D02*
X391033000Y-125476000D01*
X391033000Y-125476000D02*
X391033000Y-131445000D01*
X391033000Y-131445000D02*
X392938000Y-133350000D01*
X392938000Y-133350000D02*
X392938000Y-135001000D01*
X392938000Y-135001000D02*
X391033000Y-136906000D01*
X391033000Y-141795500D02*
X392430000Y-143192500D01*
X391033000Y-136906000D02*
X391033000Y-141795500D01*
X373380000Y-124142500D02*
X373316500Y-124142500D01*
X373316500Y-124142500D02*
X371983000Y-125476000D01*
X371983000Y-125476000D02*
X371983000Y-131445000D01*
X371983000Y-131445000D02*
X373888000Y-133350000D01*
X373888000Y-133350000D02*
X373888000Y-135001000D01*
X373888000Y-135001000D02*
X371983000Y-136906000D01*
X371983000Y-141795500D02*
X373380000Y-143192500D01*
X371983000Y-136906000D02*
X371983000Y-141795500D01*
X354330000Y-124142500D02*
X354330000Y-125476000D01*
X354330000Y-125476000D02*
X356362000Y-127508000D01*
X356362000Y-127508000D02*
X356362000Y-133604000D01*
X356362000Y-133604000D02*
X352933000Y-137033000D01*
X352933000Y-141795500D02*
X354330000Y-143192500D01*
X352933000Y-137033000D02*
X352933000Y-141795500D01*
X411480000Y-38417500D02*
X411416500Y-38417500D01*
X411416500Y-38417500D02*
X410083000Y-39751000D01*
X410083000Y-39751000D02*
X410083000Y-55245000D01*
X410083000Y-55245000D02*
X411988000Y-57150000D01*
X411988000Y-57150000D02*
X411988000Y-58801000D01*
X411988000Y-58801000D02*
X410083000Y-60706000D01*
X410083000Y-65595500D02*
X411480000Y-66992500D01*
X410083000Y-60706000D02*
X410083000Y-65595500D01*
X410083000Y-84645500D02*
X411480000Y-86042500D01*
X411416500Y-66992500D02*
X410083000Y-68326000D01*
X411480000Y-66992500D02*
X411416500Y-66992500D01*
X410083000Y-68326000D02*
X410083000Y-74295000D01*
X410083000Y-79756000D02*
X410083000Y-84645500D01*
X411988000Y-76200000D02*
X411988000Y-77851000D01*
X410083000Y-74295000D02*
X411988000Y-76200000D01*
X411988000Y-77851000D02*
X410083000Y-79756000D01*
X411480000Y-86042500D02*
X411480000Y-86233000D01*
X411480000Y-86487000D02*
X411480000Y-86042500D01*
X417830000Y-91757500D02*
X417258500Y-91757500D01*
X417258500Y-91757500D02*
X416179000Y-90678000D01*
X416179000Y-90678000D02*
X416179000Y-90170000D01*
X416179000Y-90170000D02*
X413639000Y-87630000D01*
X413639000Y-87630000D02*
X412623000Y-87630000D01*
X412623000Y-87630000D02*
X411480000Y-86487000D01*
X415417000Y-97917000D02*
X415417000Y-101092000D01*
X415417000Y-101092000D02*
X413004000Y-103505000D01*
X413004000Y-103505000D02*
X412623000Y-103505000D01*
X411480000Y-104648000D02*
X411480000Y-105092500D01*
X412623000Y-103505000D02*
X411480000Y-104648000D01*
X411480000Y-105092500D02*
X411416500Y-105092500D01*
X411416500Y-105092500D02*
X410083000Y-106426000D01*
X410083000Y-106426000D02*
X410083000Y-112395000D01*
X410083000Y-112395000D02*
X411988000Y-114300000D01*
X411988000Y-114300000D02*
X411988000Y-115951000D01*
X411988000Y-115951000D02*
X410083000Y-117856000D01*
X410083000Y-122745500D02*
X411480000Y-124142500D01*
X410083000Y-117856000D02*
X410083000Y-122745500D01*
X411480000Y-124142500D02*
X411480000Y-124587000D01*
X411480000Y-124587000D02*
X412623000Y-125730000D01*
X412623000Y-125730000D02*
X413639000Y-125730000D01*
X413639000Y-125730000D02*
X416179000Y-128270000D01*
X416179000Y-128270000D02*
X416179000Y-128778000D01*
X417258500Y-129857500D02*
X417830000Y-129857500D01*
X416179000Y-128778000D02*
X417258500Y-129857500D01*
X411480000Y-143192500D02*
X411480000Y-143129000D01*
X411480000Y-143192500D02*
X411480000Y-142748000D01*
X411480000Y-142748000D02*
X412623000Y-141605000D01*
X412623000Y-141605000D02*
X413004000Y-141605000D01*
X415417000Y-139192000D02*
X415417000Y-136017000D01*
X413004000Y-141605000D02*
X415417000Y-139192000D01*
X417068000Y-130619500D02*
X417830000Y-129857500D01*
X417068000Y-134366000D02*
X417068000Y-130619500D01*
X415417000Y-136017000D02*
X417068000Y-134366000D01*
X417068000Y-92519500D02*
X417830000Y-91757500D01*
X417068000Y-96266000D02*
X417068000Y-92519500D01*
X417068000Y-96266000D02*
X415417000Y-97917000D01*
X373380000Y-39751000D02*
X377444000Y-43815000D01*
X373380000Y-38417500D02*
X373380000Y-39751000D01*
X377444000Y-43815000D02*
X377444000Y-48260000D01*
X305117500Y-65405000D02*
X306705000Y-66992500D01*
X298323000Y-65405000D02*
X305117500Y-65405000D01*
X297180000Y-66548000D02*
X298323000Y-65405000D01*
X297180000Y-66992500D02*
X297180000Y-66548000D01*
X362267500Y-141605000D02*
X363855000Y-143192500D01*
X355473000Y-141605000D02*
X362267500Y-141605000D01*
X354330000Y-142748000D02*
X355473000Y-141605000D01*
X354330000Y-143192500D02*
X354330000Y-142748000D01*
X342900000Y-66040000D02*
X343154000Y-66040000D01*
X343154000Y-66040000D02*
X343535000Y-65659000D01*
X343535000Y-65659000D02*
X347218000Y-65659000D01*
X347218000Y-65659000D02*
X347599000Y-66040000D01*
X347599000Y-66040000D02*
X347980000Y-66040000D01*
X279146000Y-122777250D02*
X280511250Y-124142500D01*
X279146000Y-117856000D02*
X279146000Y-122777250D01*
X281051000Y-115951000D02*
X279146000Y-117856000D01*
X278130000Y-87376000D02*
X281051000Y-90297000D01*
X278130000Y-86042500D02*
X278130000Y-87376000D01*
X281432000Y-105410000D02*
X281051000Y-105410000D01*
X281051000Y-90297000D02*
X281051000Y-105410000D01*
X281051000Y-105410000D02*
X281051000Y-115951000D01*
X269367000Y-111887000D02*
X263842500Y-106362500D01*
X269367000Y-133858000D02*
X269367000Y-111887000D01*
X268605000Y-142748000D02*
X269748000Y-141605000D01*
X268605000Y-143192500D02*
X268605000Y-142748000D01*
X269748000Y-141605000D02*
X270129000Y-141605000D01*
X270129000Y-141605000D02*
X272542000Y-139192000D01*
X272542000Y-139192000D02*
X272542000Y-137033000D01*
X263842500Y-106362500D02*
X263842500Y-105092500D01*
X272542000Y-137033000D02*
X269367000Y-133858000D01*
X239141000Y-141859000D02*
X237807500Y-143192500D01*
X239141000Y-136144000D02*
X239141000Y-141859000D01*
X240792000Y-134493000D02*
X239141000Y-136144000D01*
X240792000Y-131064000D02*
X240792000Y-134493000D01*
X235267500Y-125539500D02*
X240792000Y-131064000D01*
X235267500Y-124142500D02*
X235267500Y-125539500D01*
X354330000Y-38989000D02*
X354330000Y-38417500D01*
X355346000Y-40005000D02*
X354330000Y-38989000D01*
X366522000Y-52959000D02*
X366522000Y-43180000D01*
X354330000Y-66992500D02*
X354330000Y-66548000D01*
X363347000Y-40005000D02*
X355346000Y-40005000D01*
X354330000Y-66548000D02*
X355473000Y-65405000D01*
X355473000Y-65405000D02*
X355854000Y-65405000D01*
X355854000Y-65405000D02*
X358267000Y-62992000D01*
X366522000Y-43180000D02*
X363347000Y-40005000D01*
X358267000Y-62992000D02*
X358267000Y-61214000D01*
X358267000Y-61214000D02*
X366522000Y-52959000D01*
X374015000Y-52070000D02*
X375920000Y-50165000D01*
X374015000Y-54229000D02*
X374015000Y-52070000D01*
X377444000Y-48641000D02*
X375920000Y-50165000D01*
X377444000Y-48260000D02*
X377444000Y-48641000D01*
D20*
X351028000Y-40767000D02*
X348488000Y-40767000D01*
X353822000Y-43561000D02*
X351028000Y-40767000D01*
X335534000Y-46101000D02*
X337185000Y-44450000D01*
X337185000Y-44450000D02*
X339852000Y-41783000D01*
D19*
G04 #@! TO.N,COL7*
X171323000Y-59880500D02*
X170815000Y-59372500D01*
X171323000Y-67183000D02*
X171323000Y-59880500D01*
X180340000Y-78422500D02*
X180340000Y-76200000D01*
X180340000Y-76200000D02*
X171323000Y-67183000D01*
X171323000Y-31305500D02*
X170815000Y-30797500D01*
X171323000Y-58864500D02*
X171323000Y-31305500D01*
X170815000Y-59372500D02*
X171323000Y-58864500D01*
X185102500Y-97472500D02*
X185102500Y-98615500D01*
X185102500Y-98615500D02*
X185674000Y-99187000D01*
X185674000Y-99187000D02*
X185674000Y-105283000D01*
X194627500Y-114236500D02*
X194627500Y-116522500D01*
X185674000Y-105283000D02*
X194627500Y-114236500D01*
X180848000Y-78930500D02*
X180340000Y-78422500D01*
X180848000Y-86233000D02*
X180848000Y-78930500D01*
X183261000Y-88646000D02*
X180848000Y-86233000D01*
X186412500Y-96012500D02*
X190223000Y-92202000D01*
X190223000Y-92202000D02*
X274828000Y-92202000D01*
X274828000Y-92202000D02*
X275844000Y-91186000D01*
X275844000Y-91186000D02*
X275844000Y-89662000D01*
X275844000Y-89662000D02*
X274828000Y-88646000D01*
X274828000Y-88646000D02*
X183261000Y-88646000D01*
G04 #@! TO.N,COL0*
X42608500Y-97472500D02*
X44608750Y-97472500D01*
X40894000Y-99187000D02*
X42608500Y-97472500D01*
X49911000Y-125507750D02*
X49911000Y-117062250D01*
X49911000Y-117062250D02*
X49371250Y-116522500D01*
X39846250Y-135572500D02*
X49911000Y-125507750D01*
X49371250Y-112109250D02*
X43942000Y-106680000D01*
X40894000Y-106299000D02*
X41275000Y-106680000D01*
X43942000Y-106680000D02*
X41275000Y-106680000D01*
X40894000Y-106299000D02*
X40894000Y-99187000D01*
X50681250Y-113419250D02*
X50681250Y-115062500D01*
X49371250Y-112109250D02*
X50681250Y-113419250D01*
X45918750Y-96012500D02*
X45918750Y-93035750D01*
X45918750Y-93035750D02*
X42799000Y-89916000D01*
X42799000Y-78994000D02*
X42227500Y-78422500D01*
X42799000Y-89916000D02*
X42799000Y-78994000D01*
X37973000Y-59880500D02*
X37465000Y-59372500D01*
X43537500Y-75287500D02*
X37973000Y-69723000D01*
X43537500Y-76962500D02*
X43537500Y-75287500D01*
X37973000Y-69723000D02*
X37973000Y-59880500D01*
X37973000Y-58864500D02*
X37465000Y-59372500D01*
X37973000Y-31305500D02*
X37973000Y-58864500D01*
X37465000Y-30797500D02*
X37973000Y-31305500D01*
G04 #@! TO.N,ROW0*
X350266000Y-35814000D02*
X350520000Y-35560000D01*
X349504000Y-36576000D02*
X350266000Y-35814000D01*
X332105000Y-35560000D02*
X333121000Y-36576000D01*
X333121000Y-36576000D02*
X349504000Y-36576000D01*
X368300000Y-53340000D02*
X368046000Y-53086000D01*
X368046000Y-53086000D02*
X368046000Y-35433000D01*
G04 #@! TO.N,ROW1*
X347726000Y-64389000D02*
X347472000Y-64389000D01*
X347980000Y-64135000D02*
X347726000Y-64389000D01*
X346837000Y-64389000D02*
X347472000Y-64389000D01*
X343154000Y-64389000D02*
X343535000Y-64389000D01*
X342900000Y-64135000D02*
X343154000Y-64389000D01*
X343535000Y-64389000D02*
X346837000Y-64389000D01*
G04 #@! TO.N,ROW2*
X347726000Y-83439000D02*
X347218000Y-83439000D01*
X347980000Y-83185000D02*
X347726000Y-83439000D01*
X346329000Y-83439000D02*
X347218000Y-83439000D01*
X343154000Y-83439000D02*
X344297000Y-83439000D01*
X342900000Y-83185000D02*
X343154000Y-83439000D01*
X344297000Y-83439000D02*
X346329000Y-83439000D01*
G04 #@! TO.N,ROW3*
X343154000Y-102489000D02*
X343535000Y-102489000D01*
X342900000Y-102235000D02*
X343154000Y-102489000D01*
X343535000Y-102489000D02*
X345821000Y-102489000D01*
X347726000Y-102489000D02*
X346964000Y-102489000D01*
X347980000Y-102235000D02*
X347726000Y-102489000D01*
X345821000Y-102489000D02*
X346964000Y-102489000D01*
X314198000Y-63627000D02*
X314198000Y-68072000D01*
X314198000Y-68072000D02*
X314198000Y-102108000D01*
G04 #@! TO.N,ROW4*
X343154000Y-121539000D02*
X343408000Y-121539000D01*
X342900000Y-121285000D02*
X343154000Y-121539000D01*
X343408000Y-121539000D02*
X345313000Y-121539000D01*
X347726000Y-121539000D02*
X347091000Y-121539000D01*
X347980000Y-121285000D02*
X347726000Y-121539000D01*
X345313000Y-121539000D02*
X347091000Y-121539000D01*
G04 #@! TO.N,Net-(D63-Pad2)*
X267612500Y-95512500D02*
X267612500Y-94638500D01*
X267612500Y-94638500D02*
X266700000Y-93726000D01*
X266700000Y-93726000D02*
X257429000Y-93726000D01*
X257429000Y-93726000D02*
X257175000Y-93980000D01*
G04 #@! TO.N,COL1*
X66040000Y-76200000D02*
X66040000Y-78422500D01*
X57023000Y-67183000D02*
X66040000Y-76200000D01*
X56515000Y-59372500D02*
X57023000Y-59880500D01*
X57023000Y-59880500D02*
X57023000Y-67183000D01*
X71374000Y-98044000D02*
X70802500Y-97472500D01*
X71374000Y-105283000D02*
X71374000Y-98044000D01*
X80327500Y-114236500D02*
X71374000Y-105283000D01*
X80327500Y-116522500D02*
X80327500Y-114236500D01*
X78731500Y-133612500D02*
X77112500Y-133612500D01*
X80899000Y-131445000D02*
X78731500Y-133612500D01*
X80327500Y-116522500D02*
X80899000Y-117094000D01*
X80899000Y-117094000D02*
X80899000Y-131445000D01*
X77112500Y-133612500D02*
X74049500Y-133612500D01*
X74049500Y-133612500D02*
X71755000Y-131318000D01*
X71755000Y-131318000D02*
X69342000Y-131318000D01*
X66547500Y-134112500D02*
X64968750Y-134112500D01*
X69342000Y-131318000D02*
X66547500Y-134112500D01*
X66548000Y-78930500D02*
X66040000Y-78422500D01*
X66548000Y-84836000D02*
X66548000Y-78930500D01*
X70802500Y-97345500D02*
X67183000Y-93726000D01*
X70802500Y-97472500D02*
X70802500Y-97345500D01*
X67183000Y-93726000D02*
X64262000Y-93726000D01*
X64262000Y-93726000D02*
X62484000Y-91948000D01*
X62484000Y-91948000D02*
X62484000Y-88900000D01*
X62484000Y-88900000D02*
X66548000Y-84836000D01*
G04 #@! TO.N,COL2*
X85090000Y-76073000D02*
X85090000Y-78422500D01*
X76073000Y-59880500D02*
X75565000Y-59372500D01*
X76073000Y-67056000D02*
X76073000Y-59880500D01*
X76073000Y-67056000D02*
X85090000Y-76073000D01*
X75565000Y-54991000D02*
X67056000Y-46482000D01*
X67056000Y-31813500D02*
X66040000Y-30797500D01*
X67056000Y-46482000D02*
X67056000Y-31813500D01*
X99377500Y-114236500D02*
X99377500Y-116522500D01*
X99949000Y-117094000D02*
X99377500Y-116522500D01*
X88781250Y-134112500D02*
X99949000Y-122944750D01*
X99949000Y-122944750D02*
X99949000Y-117094000D01*
X90424000Y-98044000D02*
X89852500Y-97472500D01*
X90424000Y-105283000D02*
X90424000Y-98044000D01*
X90424000Y-105283000D02*
X99377500Y-114236500D01*
X76875000Y-56301000D02*
X76875000Y-57912500D01*
X75565000Y-54991000D02*
X76875000Y-56301000D01*
X84201000Y-86106000D02*
X85598000Y-84709000D01*
X85598000Y-78930500D02*
X85090000Y-78422500D01*
X85598000Y-84709000D02*
X85598000Y-78930500D01*
G04 #@! TO.N,COL5*
X132715000Y-54991000D02*
X124206000Y-46482000D01*
X124206000Y-31813500D02*
X123190000Y-30797500D01*
X124206000Y-46482000D02*
X124206000Y-31813500D01*
X133223000Y-59880500D02*
X132715000Y-59372500D01*
X133223000Y-67183000D02*
X133223000Y-59880500D01*
X142240000Y-76200000D02*
X133223000Y-67183000D01*
X142240000Y-78422500D02*
X142240000Y-76200000D01*
X134025000Y-56301000D02*
X134025000Y-57912500D01*
X132715000Y-54991000D02*
X134025000Y-56301000D01*
X156527500Y-116522500D02*
X156527500Y-114236500D01*
X147574000Y-98044000D02*
X147002500Y-97472500D01*
X147574000Y-105283000D02*
X147574000Y-98044000D01*
X156527500Y-114236500D02*
X147574000Y-105283000D01*
X158075000Y-134738750D02*
X158908750Y-135572500D01*
X158075000Y-133612500D02*
X158075000Y-134738750D01*
X158075000Y-130389000D02*
X158075000Y-133612500D01*
X157099000Y-129413000D02*
X158075000Y-130389000D01*
X156527500Y-116522500D02*
X157099000Y-117094000D01*
X157099000Y-117094000D02*
X157099000Y-129413000D01*
X142748000Y-78930500D02*
X142240000Y-78422500D01*
X142748000Y-84709000D02*
X142748000Y-78930500D01*
X139319000Y-88138000D02*
X142748000Y-84709000D01*
X148312500Y-96012500D02*
X145010000Y-92710000D01*
X145010000Y-92710000D02*
X64770000Y-92710000D01*
X64770000Y-92710000D02*
X63500000Y-91440000D01*
X63500000Y-91440000D02*
X63500000Y-89408000D01*
X63500000Y-89408000D02*
X64770000Y-88138000D01*
X64770000Y-88138000D02*
X139319000Y-88138000D01*
G04 #@! TO.N,COL3*
X94615000Y-54864000D02*
X86106000Y-46355000D01*
X86106000Y-31813500D02*
X85090000Y-30797500D01*
X86106000Y-46355000D02*
X86106000Y-31813500D01*
X95123000Y-59880500D02*
X94615000Y-59372500D01*
X95123000Y-67183000D02*
X95123000Y-59880500D01*
X104140000Y-76200000D02*
X95123000Y-67183000D01*
X104140000Y-78422500D02*
X104140000Y-76200000D01*
X118427500Y-114236500D02*
X118427500Y-116522500D01*
X109474000Y-98044000D02*
X108902500Y-97472500D01*
X109474000Y-105283000D02*
X109474000Y-98044000D01*
X109474000Y-105283000D02*
X118427500Y-114236500D01*
X95925000Y-56174000D02*
X95925000Y-57912500D01*
X94615000Y-54864000D02*
X95925000Y-56174000D01*
X104140000Y-78422500D02*
X104648000Y-78930500D01*
X104648000Y-78930500D02*
X104648000Y-84074000D01*
X104648000Y-84074000D02*
X104648000Y-84709000D01*
X104648000Y-84709000D02*
X103251000Y-86106000D01*
G04 #@! TO.N,COL4*
X113665000Y-54991000D02*
X105156000Y-46482000D01*
X105156000Y-31813500D02*
X104140000Y-30797500D01*
X105156000Y-46482000D02*
X105156000Y-31813500D01*
X114173000Y-59880500D02*
X113665000Y-59372500D01*
X114173000Y-67183000D02*
X114173000Y-59880500D01*
X123190000Y-76200000D02*
X114173000Y-67183000D01*
X123190000Y-78422500D02*
X123190000Y-76200000D01*
X128524000Y-98044000D02*
X127952500Y-97472500D01*
X128524000Y-105283000D02*
X128524000Y-98044000D01*
X137477500Y-114236500D02*
X128524000Y-105283000D01*
X137477500Y-116522500D02*
X137477500Y-114236500D01*
X114975000Y-56301000D02*
X114975000Y-57912500D01*
X113665000Y-54991000D02*
X114975000Y-56301000D01*
X123698000Y-78930500D02*
X123190000Y-78422500D01*
X123698000Y-84709000D02*
X123698000Y-78930500D01*
X120777000Y-87630000D02*
X123698000Y-84709000D01*
X126468000Y-93218000D02*
X64516000Y-93218000D01*
X64516000Y-93218000D02*
X62992000Y-91694000D01*
X129262500Y-96012500D02*
X126468000Y-93218000D01*
X62992000Y-91694000D02*
X62992000Y-89154000D01*
X62992000Y-89154000D02*
X64516000Y-87630000D01*
X64516000Y-87630000D02*
X120777000Y-87630000D01*
G04 #@! TO.N,COL8*
X190373000Y-58864500D02*
X189865000Y-59372500D01*
X190373000Y-31305500D02*
X190373000Y-58864500D01*
X189865000Y-30797500D02*
X190373000Y-31305500D01*
X190373000Y-59880500D02*
X189865000Y-59372500D01*
X190373000Y-67183000D02*
X190373000Y-59880500D01*
X199390000Y-76200000D02*
X190373000Y-67183000D01*
X199390000Y-78422500D02*
X199390000Y-76200000D01*
X213677500Y-114236500D02*
X213677500Y-116522500D01*
X204724000Y-98044000D02*
X204152500Y-97472500D01*
X204724000Y-105283000D02*
X204724000Y-98044000D01*
X204724000Y-105283000D02*
X213677500Y-114236500D01*
X201803000Y-88138000D02*
X199898000Y-86233000D01*
X199898000Y-86233000D02*
X199898000Y-78930500D01*
X205462500Y-96012500D02*
X208765000Y-92710000D01*
X208765000Y-92710000D02*
X275082000Y-92710000D01*
X275082000Y-92710000D02*
X276352000Y-91440000D01*
X199898000Y-78930500D02*
X199390000Y-78422500D01*
X276352000Y-91440000D02*
X276352000Y-89408000D01*
X276352000Y-89408000D02*
X275082000Y-88138000D01*
X275082000Y-88138000D02*
X201803000Y-88138000D01*
D21*
G04 #@! TO.N,LEDGND*
X347980000Y-65151000D02*
X347853000Y-65024000D01*
X347853000Y-65024000D02*
X343027000Y-65024000D01*
X343027000Y-65024000D02*
X342900000Y-65151000D01*
X342900000Y-84201000D02*
X343027000Y-84074000D01*
X343027000Y-84074000D02*
X347853000Y-84074000D01*
X347853000Y-84074000D02*
X347980000Y-84201000D01*
X342900000Y-103251000D02*
X343027000Y-103124000D01*
X343027000Y-103124000D02*
X347853000Y-103124000D01*
X347853000Y-103124000D02*
X347980000Y-103251000D01*
X342900000Y-122301000D02*
X343027000Y-122174000D01*
X343027000Y-122174000D02*
X347853000Y-122174000D01*
X347853000Y-122174000D02*
X347980000Y-122301000D01*
X387096000Y-65405000D02*
X386715000Y-65405000D01*
X387096000Y-65405000D02*
X387096000Y-66548000D01*
X387096000Y-66548000D02*
X387096000Y-84074000D01*
X387096000Y-84074000D02*
X387477000Y-84074000D01*
X387096000Y-84074000D02*
X387096000Y-103124000D01*
X387096000Y-103124000D02*
X387477000Y-103124000D01*
X387096000Y-103124000D02*
X387096000Y-122174000D01*
X387096000Y-122174000D02*
X387477000Y-122174000D01*
X387096000Y-122174000D02*
X387096000Y-141732000D01*
X349885000Y-37211000D02*
X350520000Y-36576000D01*
X332105000Y-36576000D02*
X332740000Y-37211000D01*
X332740000Y-37211000D02*
X349885000Y-37211000D01*
X387096000Y-50038000D02*
X384683000Y-47625000D01*
X387096000Y-50403125D02*
X387096000Y-50038000D01*
X387096000Y-50403125D02*
X387096000Y-65405000D01*
X384683000Y-47625000D02*
X384683000Y-37338000D01*
G04 #@! TO.N,GND*
X339598000Y-54864000D02*
X339598000Y-54102000D01*
X342138000Y-57404000D02*
X339598000Y-54864000D01*
X339598000Y-45974000D02*
X339598000Y-54102000D01*
D20*
X346429750Y-26416000D02*
X345632500Y-25618750D01*
X378079000Y-26416000D02*
X346429750Y-26416000D01*
X386588000Y-43434000D02*
X386588000Y-34925000D01*
X386588000Y-34925000D02*
X378079000Y-26416000D01*
G04 #@! TO.N,VCC*
X344043000Y-32512000D02*
X342900000Y-33655000D01*
X342900000Y-33655000D02*
X339217000Y-33655000D01*
D19*
G04 #@! TO.N,COL18*
X408940000Y-131277500D02*
X408750000Y-131087500D01*
X408940000Y-135572500D02*
X408940000Y-131277500D01*
X409956000Y-126873000D02*
X409956000Y-125349000D01*
X408750000Y-128079000D02*
X409956000Y-126873000D01*
X408750000Y-131087500D02*
X408750000Y-128079000D01*
X409956000Y-87249000D02*
X409956000Y-88773000D01*
X409448000Y-77914500D02*
X408940000Y-78422500D01*
X409448000Y-59880500D02*
X409448000Y-77914500D01*
X408940000Y-59372500D02*
X409448000Y-59880500D01*
X409448000Y-58864500D02*
X408940000Y-59372500D01*
X409448000Y-31305500D02*
X409448000Y-58864500D01*
X408940000Y-30797500D02*
X409448000Y-31305500D01*
X409448000Y-78930500D02*
X408940000Y-78422500D01*
X409448000Y-86741000D02*
X409448000Y-78930500D01*
X409448000Y-86741000D02*
X409956000Y-87249000D01*
X409448000Y-92289500D02*
X408750000Y-92987500D01*
X409448000Y-89281000D02*
X409448000Y-92289500D01*
X409956000Y-88773000D02*
X409448000Y-89281000D01*
X410210000Y-96202500D02*
X408940000Y-97472500D01*
X410210000Y-94297500D02*
X410210000Y-96202500D01*
X409448000Y-97980500D02*
X408940000Y-97472500D01*
X409448000Y-116014500D02*
X409448000Y-97980500D01*
X408940000Y-116522500D02*
X409448000Y-116014500D01*
X409448000Y-117030500D02*
X408940000Y-116522500D01*
X409448000Y-124841000D02*
X409448000Y-117030500D01*
X409956000Y-125349000D02*
X409448000Y-124841000D01*
G04 #@! TO.N,COL14*
X323723000Y-135064500D02*
X323215000Y-135572500D01*
X323723000Y-117030500D02*
X323723000Y-135064500D01*
X323215000Y-116522500D02*
X323723000Y-117030500D01*
X323723000Y-116014500D02*
X323215000Y-116522500D01*
X323723000Y-97980500D02*
X323723000Y-116014500D01*
X323215000Y-97472500D02*
X323723000Y-97980500D01*
X323723000Y-96964500D02*
X323215000Y-97472500D01*
X323723000Y-78930500D02*
X323723000Y-96964500D01*
X323215000Y-78422500D02*
X323723000Y-78930500D01*
X323723000Y-77914500D02*
X323215000Y-78422500D01*
X323723000Y-59880500D02*
X323723000Y-77914500D01*
X323215000Y-59372500D02*
X323723000Y-59880500D01*
X323723000Y-58864500D02*
X323215000Y-59372500D01*
X323723000Y-31305500D02*
X323723000Y-58864500D01*
X323215000Y-30797500D02*
X323723000Y-31305500D01*
G04 #@! TO.N,COL9*
X209423000Y-58864500D02*
X208915000Y-59372500D01*
X209423000Y-31305500D02*
X209423000Y-58864500D01*
X208915000Y-30797500D02*
X209423000Y-31305500D01*
X209423000Y-59880500D02*
X208915000Y-59372500D01*
X209423000Y-67183000D02*
X209423000Y-59880500D01*
X218440000Y-76200000D02*
X209423000Y-67183000D01*
X218440000Y-78422500D02*
X218440000Y-76200000D01*
X232727500Y-114236500D02*
X232727500Y-116522500D01*
X223774000Y-98044000D02*
X223202500Y-97472500D01*
X223774000Y-105283000D02*
X223774000Y-98044000D01*
X223774000Y-105283000D02*
X232727500Y-114236500D01*
X239037500Y-133612500D02*
X237371500Y-133612500D01*
X237371500Y-133612500D02*
X235077000Y-131318000D01*
X235077000Y-131318000D02*
X233553000Y-131318000D01*
X229425500Y-134112000D02*
X227965000Y-135572500D01*
X230759000Y-134112000D02*
X229425500Y-134112000D01*
X233553000Y-131318000D02*
X230759000Y-134112000D01*
X218948000Y-86233000D02*
X218948000Y-78930500D01*
X220345000Y-87630000D02*
X218948000Y-86233000D01*
X224512500Y-96012500D02*
X227307000Y-93218000D01*
X227307000Y-93218000D02*
X275336000Y-93218000D01*
X218948000Y-78930500D02*
X218440000Y-78422500D01*
X275336000Y-93218000D02*
X276860000Y-91694000D01*
X276860000Y-91694000D02*
X276860000Y-89154000D01*
X276860000Y-89154000D02*
X275336000Y-87630000D01*
X275336000Y-87630000D02*
X220345000Y-87630000D01*
X239037500Y-131572000D02*
X239037500Y-133612500D01*
X239037500Y-130198500D02*
X239037500Y-131572000D01*
X233299000Y-124460000D02*
X239037500Y-130198500D01*
X233299000Y-117094000D02*
X233299000Y-124460000D01*
X232727500Y-116522500D02*
X233299000Y-117094000D01*
G04 #@! TO.N,COL10*
X237490000Y-49847500D02*
X227965000Y-59372500D01*
X238379000Y-48958500D02*
X237490000Y-49847500D01*
X238379000Y-31686500D02*
X238379000Y-48958500D01*
X237490000Y-30797500D02*
X238379000Y-31686500D01*
X228473000Y-59880500D02*
X227965000Y-59372500D01*
X228473000Y-67183000D02*
X228473000Y-59880500D01*
X237490000Y-76200000D02*
X228473000Y-67183000D01*
X237490000Y-78422500D02*
X237490000Y-76200000D01*
X251777500Y-114236500D02*
X251777500Y-116522500D01*
X242824000Y-98044000D02*
X242252500Y-97472500D01*
X242824000Y-105283000D02*
X242824000Y-98044000D01*
X242824000Y-105283000D02*
X251777500Y-114236500D01*
X251523500Y-131064000D02*
X247015000Y-135572500D01*
X252349000Y-130238500D02*
X251523500Y-131064000D01*
X252349000Y-117094000D02*
X252349000Y-130238500D01*
X251777500Y-116522500D02*
X252349000Y-117094000D01*
X237998000Y-78930500D02*
X237490000Y-78422500D01*
X237998000Y-83820000D02*
X237998000Y-84455000D01*
X237998000Y-83820000D02*
X237998000Y-78930500D01*
X237998000Y-84455000D02*
X236347000Y-86106000D01*
G04 #@! TO.N,COL11*
X257429000Y-31686500D02*
X256540000Y-30797500D01*
X257429000Y-48958500D02*
X257429000Y-31686500D01*
X247015000Y-59372500D02*
X257429000Y-48958500D01*
X247523000Y-59880500D02*
X247015000Y-59372500D01*
X247523000Y-67183000D02*
X247523000Y-59880500D01*
X256540000Y-78422500D02*
X256540000Y-76200000D01*
X256540000Y-76200000D02*
X247523000Y-67183000D01*
X261874000Y-98044000D02*
X261302500Y-97472500D01*
X261874000Y-105283000D02*
X261874000Y-98044000D01*
X267375000Y-110784000D02*
X261874000Y-105283000D01*
X256540000Y-85725000D02*
X257048000Y-85217000D01*
X257048000Y-78930500D02*
X256540000Y-78422500D01*
X257048000Y-85217000D02*
X257048000Y-78930500D01*
X268732000Y-132905500D02*
X266065000Y-135572500D01*
X267375000Y-110784000D02*
X268732000Y-112141000D01*
X268732000Y-112141000D02*
X268732000Y-132905500D01*
G04 #@! TO.N,COL12*
X276479000Y-31686500D02*
X275590000Y-30797500D01*
X276479000Y-48808500D02*
X276479000Y-31686500D01*
X267375000Y-57912500D02*
X276479000Y-48808500D01*
X266573000Y-59880500D02*
X266065000Y-59372500D01*
X266573000Y-67183000D02*
X266573000Y-59880500D01*
X275590000Y-76200000D02*
X266573000Y-67183000D01*
X275590000Y-78422500D02*
X275590000Y-76200000D01*
X286425000Y-132247000D02*
X286425000Y-134112500D01*
X278511000Y-117062250D02*
X277971250Y-116522500D01*
X278511000Y-124333000D02*
X278511000Y-117062250D01*
X278511000Y-124333000D02*
X286425000Y-132247000D01*
X304165000Y-59372500D02*
X304165000Y-54229000D01*
X304165000Y-54229000D02*
X301371000Y-51435000D01*
X280416000Y-113927750D02*
X279281250Y-115062500D01*
X280416000Y-90551000D02*
X280416000Y-113927750D01*
X276098000Y-86233000D02*
X280416000Y-90551000D01*
X275590000Y-78422500D02*
X276098000Y-78930500D01*
X276098000Y-78930500D02*
X276098000Y-86233000D01*
G04 #@! TO.N,COL13*
X294640000Y-59372500D02*
X285115000Y-59372500D01*
X295529000Y-58483500D02*
X294640000Y-59372500D01*
X294640000Y-30797500D02*
X295529000Y-31686500D01*
X295529000Y-31686500D02*
X295529000Y-58483500D01*
X295338500Y-60071000D02*
X294640000Y-59372500D01*
X295338500Y-69913500D02*
X295338500Y-60071000D01*
X299402500Y-73977500D02*
X295338500Y-69913500D01*
X299402500Y-78422500D02*
X299402500Y-73977500D01*
X299974000Y-78994000D02*
X299402500Y-78422500D01*
X299974000Y-89607250D02*
X299974000Y-78994000D01*
X293568750Y-96012500D02*
X299974000Y-89607250D01*
X292735000Y-97948750D02*
X292258750Y-97472500D01*
X292735000Y-105092500D02*
X292735000Y-97948750D01*
X304165000Y-116522500D02*
X292735000Y-105092500D01*
X304673000Y-117030500D02*
X304165000Y-116522500D01*
X304673000Y-135064500D02*
X304673000Y-117030500D01*
X304165000Y-135572500D02*
X304673000Y-135064500D01*
G04 #@! TO.N,COL15*
X352298000Y-77914500D02*
X351790000Y-78422500D01*
X352298000Y-59880500D02*
X352298000Y-77914500D01*
X351790000Y-59372500D02*
X352298000Y-59880500D01*
X352298000Y-78930500D02*
X351790000Y-78422500D01*
X352298000Y-96964500D02*
X352298000Y-78930500D01*
X351790000Y-97472500D02*
X352298000Y-96964500D01*
X352298000Y-116014500D02*
X351790000Y-116522500D01*
X351790000Y-97472500D02*
X352298000Y-97980500D01*
X352298000Y-97980500D02*
X352298000Y-116014500D01*
X354964500Y-134112500D02*
X353100000Y-134112500D01*
X355727000Y-133350000D02*
X354964500Y-134112500D01*
X355727000Y-127762000D02*
X355727000Y-133350000D01*
X352298000Y-124333000D02*
X355727000Y-127762000D01*
X351790000Y-116522500D02*
X352298000Y-117030500D01*
X352298000Y-117030500D02*
X352298000Y-124333000D01*
X358521000Y-59372500D02*
X358711500Y-59372500D01*
X351790000Y-59372500D02*
X358521000Y-59372500D01*
X352298000Y-38608000D02*
X352298000Y-31305500D01*
X358521000Y-59372500D02*
X359219500Y-59372500D01*
X359219500Y-59372500D02*
X365887000Y-52705000D01*
X365887000Y-52705000D02*
X365887000Y-43434000D01*
X365887000Y-43434000D02*
X363093000Y-40640000D01*
X354330000Y-40640000D02*
X352298000Y-38608000D01*
X352298000Y-31305500D02*
X351790000Y-30797500D01*
X363093000Y-40640000D02*
X354330000Y-40640000D01*
G04 #@! TO.N,COL16*
X371348000Y-77914500D02*
X370840000Y-78422500D01*
X370840000Y-59372500D02*
X371348000Y-59880500D01*
X371348000Y-78930500D02*
X370840000Y-78422500D01*
X371348000Y-96964500D02*
X371348000Y-78930500D01*
X370840000Y-97472500D02*
X371348000Y-96964500D01*
X371348000Y-97980500D02*
X370840000Y-97472500D01*
X371348000Y-116014500D02*
X371348000Y-97980500D01*
X370840000Y-116522500D02*
X371348000Y-116014500D01*
X371348000Y-117030500D02*
X370840000Y-116522500D01*
X371348000Y-135064500D02*
X371348000Y-117030500D01*
X370840000Y-135572500D02*
X371348000Y-135064500D01*
X371221000Y-58991500D02*
X370840000Y-59372500D01*
X370840000Y-30797500D02*
X371221000Y-31178500D01*
X371348000Y-31305500D02*
X370840000Y-30797500D01*
X371348000Y-61849000D02*
X371348000Y-77914500D01*
X371348000Y-59880500D02*
X371348000Y-61849000D01*
X371348000Y-58864500D02*
X370840000Y-59372500D01*
X371348000Y-56388000D02*
X371348000Y-58864500D01*
X371348000Y-56388000D02*
X371348000Y-31305500D01*
X371348000Y-61849000D02*
X371348000Y-56388000D01*
G04 #@! TO.N,COL17*
X390398000Y-96964500D02*
X389890000Y-97472500D01*
X389890000Y-78422500D02*
X390398000Y-78930500D01*
X390398000Y-78930500D02*
X390398000Y-96964500D01*
X390398000Y-77914500D02*
X389890000Y-78422500D01*
X390398000Y-59880500D02*
X390398000Y-77914500D01*
X389890000Y-59372500D02*
X390398000Y-59880500D01*
X390398000Y-58864500D02*
X389890000Y-59372500D01*
X390398000Y-31305500D02*
X390398000Y-58864500D01*
X389890000Y-30797500D02*
X390398000Y-31305500D01*
X390398000Y-116014500D02*
X389890000Y-116522500D01*
X390398000Y-97980500D02*
X390398000Y-116014500D01*
X389890000Y-97472500D02*
X390398000Y-97980500D01*
X390398000Y-117030500D02*
X389890000Y-116522500D01*
X390398000Y-135064500D02*
X390398000Y-117030500D01*
X389890000Y-135572500D02*
X390398000Y-135064500D01*
G04 #@! TO.N,RESET*
X371856000Y-46609000D02*
X373380000Y-45085000D01*
X372110000Y-51943000D02*
X371856000Y-51689000D01*
X371856000Y-51689000D02*
X371856000Y-46609000D01*
G04 #@! TO.N,Net-(RC6-Pad2)*
X336677000Y-35433000D02*
X336677000Y-35052000D01*
X336804000Y-35052000D02*
X339471000Y-32385000D01*
X336677000Y-35052000D02*
X336804000Y-35052000D01*
X339979000Y-32385000D02*
X339471000Y-32385000D01*
G04 #@! TO.N,Net-(RC7-Pad2)*
X342773000Y-32385000D02*
X343408000Y-31750000D01*
X343408000Y-31750000D02*
X344297000Y-31750000D01*
X344297000Y-31750000D02*
X346202000Y-33655000D01*
X346202000Y-33655000D02*
X346202000Y-35433000D01*
G04 #@! TD*
M02*
