G04 #@! TF.GenerationSoftware,KiCad,Pcbnew,(5.0.0)*
G04 #@! TF.CreationDate,2018-11-18T02:02:53-08:00*
G04 #@! TF.ProjectId,Voyager97,566F796167657239372E6B696361645F,rev?*
G04 #@! TF.SameCoordinates,Original*
G04 #@! TF.FileFunction,Legend,Top*
G04 #@! TF.FilePolarity,Positive*
%FSLAX46Y46*%
G04 Gerber Fmt 4.6, Leading zero omitted, Abs format (unit mm)*
G04 Created by KiCad (PCBNEW (5.0.0)) date 11/18/18 02:02:53*
%MOMM*%
%LPD*%
G01*
G04 APERTURE LIST*
%ADD10C,0.200000*%
%ADD11C,0.300000*%
%ADD12C,0.150000*%
%ADD13C,2.150000*%
%ADD14C,4.387800*%
%ADD15C,3.448000*%
%ADD16C,2.200000*%
%ADD17O,1.400000X2.000000*%
%ADD18O,1.400000X2.500000*%
%ADD19C,1.050000*%
G04 APERTURE END LIST*
D10*
X403733000Y-130429000D02*
X421513000Y-136652000D01*
X403733000Y-130429000D02*
X421513000Y-118745000D01*
X403733000Y-130429000D02*
X319405000Y-146812000D01*
X364998000Y-96520000D02*
X403733000Y-130429000D01*
X313182000Y-112649000D02*
X403733000Y-130429000D01*
X313182000Y-112649000D02*
X364998000Y-96520000D01*
X288671000Y-89408000D02*
X364998000Y-96520000D01*
D11*
X116811904Y-53673285D02*
X116716666Y-53768523D01*
X116430952Y-53863761D01*
X116240476Y-53863761D01*
X115954761Y-53768523D01*
X115764285Y-53578047D01*
X115669047Y-53387571D01*
X115573809Y-53006619D01*
X115573809Y-52720904D01*
X115669047Y-52339952D01*
X115764285Y-52149476D01*
X115954761Y-51959000D01*
X116240476Y-51863761D01*
X116430952Y-51863761D01*
X116716666Y-51959000D01*
X116811904Y-52054238D01*
X117954761Y-53863761D02*
X117764285Y-53768523D01*
X117669047Y-53673285D01*
X117573809Y-53482809D01*
X117573809Y-52911380D01*
X117669047Y-52720904D01*
X117764285Y-52625666D01*
X117954761Y-52530428D01*
X118240476Y-52530428D01*
X118430952Y-52625666D01*
X118526190Y-52720904D01*
X118621428Y-52911380D01*
X118621428Y-53482809D01*
X118526190Y-53673285D01*
X118430952Y-53768523D01*
X118240476Y-53863761D01*
X117954761Y-53863761D01*
X119478571Y-53863761D02*
X119478571Y-52530428D01*
X119478571Y-52720904D02*
X119573809Y-52625666D01*
X119764285Y-52530428D01*
X120049999Y-52530428D01*
X120240476Y-52625666D01*
X120335714Y-52816142D01*
X120335714Y-53863761D01*
X120335714Y-52816142D02*
X120430952Y-52625666D01*
X120621428Y-52530428D01*
X120907142Y-52530428D01*
X121097619Y-52625666D01*
X121192857Y-52816142D01*
X121192857Y-53863761D01*
X122145238Y-52530428D02*
X122145238Y-54530428D01*
X122145238Y-52625666D02*
X122335714Y-52530428D01*
X122716666Y-52530428D01*
X122907142Y-52625666D01*
X123002380Y-52720904D01*
X123097619Y-52911380D01*
X123097619Y-53482809D01*
X123002380Y-53673285D01*
X122907142Y-53768523D01*
X122716666Y-53863761D01*
X122335714Y-53863761D01*
X122145238Y-53768523D01*
X124811904Y-53863761D02*
X124811904Y-52816142D01*
X124716666Y-52625666D01*
X124526190Y-52530428D01*
X124145238Y-52530428D01*
X123954761Y-52625666D01*
X124811904Y-53768523D02*
X124621428Y-53863761D01*
X124145238Y-53863761D01*
X123954761Y-53768523D01*
X123859523Y-53578047D01*
X123859523Y-53387571D01*
X123954761Y-53197095D01*
X124145238Y-53101857D01*
X124621428Y-53101857D01*
X124811904Y-53006619D01*
X126621428Y-53768523D02*
X126430952Y-53863761D01*
X126049999Y-53863761D01*
X125859523Y-53768523D01*
X125764285Y-53673285D01*
X125669047Y-53482809D01*
X125669047Y-52911380D01*
X125764285Y-52720904D01*
X125859523Y-52625666D01*
X126049999Y-52530428D01*
X126430952Y-52530428D01*
X126621428Y-52625666D01*
X127192857Y-52530428D02*
X127954761Y-52530428D01*
X127478571Y-51863761D02*
X127478571Y-53578047D01*
X127573809Y-53768523D01*
X127764285Y-53863761D01*
X127954761Y-53863761D01*
X130811904Y-52816142D02*
X130145238Y-52816142D01*
X130145238Y-53863761D02*
X130145238Y-51863761D01*
X131097619Y-51863761D01*
X132716666Y-52530428D02*
X132716666Y-53863761D01*
X131859523Y-52530428D02*
X131859523Y-53578047D01*
X131954761Y-53768523D01*
X132145238Y-53863761D01*
X132430952Y-53863761D01*
X132621428Y-53768523D01*
X132716666Y-53673285D01*
X133954761Y-53863761D02*
X133764285Y-53768523D01*
X133669047Y-53578047D01*
X133669047Y-51863761D01*
X135002380Y-53863761D02*
X134811904Y-53768523D01*
X134716666Y-53578047D01*
X134716666Y-51863761D01*
X135669047Y-53768523D02*
X135859523Y-53863761D01*
X136240476Y-53863761D01*
X136430952Y-53768523D01*
X136526190Y-53578047D01*
X136526190Y-53482809D01*
X136430952Y-53292333D01*
X136240476Y-53197095D01*
X135954761Y-53197095D01*
X135764285Y-53101857D01*
X135669047Y-52911380D01*
X135669047Y-52816142D01*
X135764285Y-52625666D01*
X135954761Y-52530428D01*
X136240476Y-52530428D01*
X136430952Y-52625666D01*
X137383333Y-53863761D02*
X137383333Y-52530428D01*
X137383333Y-51863761D02*
X137288095Y-51959000D01*
X137383333Y-52054238D01*
X137478571Y-51959000D01*
X137383333Y-51863761D01*
X137383333Y-52054238D01*
X138145238Y-52530428D02*
X139192857Y-52530428D01*
X138145238Y-53863761D01*
X139192857Y-53863761D01*
X140716666Y-53768523D02*
X140526190Y-53863761D01*
X140145238Y-53863761D01*
X139954761Y-53768523D01*
X139859523Y-53578047D01*
X139859523Y-52816142D01*
X139954761Y-52625666D01*
X140145238Y-52530428D01*
X140526190Y-52530428D01*
X140716666Y-52625666D01*
X140811904Y-52816142D01*
X140811904Y-53006619D01*
X139859523Y-53197095D01*
X143192857Y-53863761D02*
X143192857Y-51863761D01*
X144335714Y-53863761D02*
X143478571Y-52720904D01*
X144335714Y-51863761D02*
X143192857Y-53006619D01*
X145954761Y-53768523D02*
X145764285Y-53863761D01*
X145383333Y-53863761D01*
X145192857Y-53768523D01*
X145097619Y-53578047D01*
X145097619Y-52816142D01*
X145192857Y-52625666D01*
X145383333Y-52530428D01*
X145764285Y-52530428D01*
X145954761Y-52625666D01*
X146050000Y-52816142D01*
X146050000Y-53006619D01*
X145097619Y-53197095D01*
X146716666Y-52530428D02*
X147192857Y-53863761D01*
X147669047Y-52530428D02*
X147192857Y-53863761D01*
X147002380Y-54339952D01*
X146907142Y-54435190D01*
X146716666Y-54530428D01*
X148430952Y-53863761D02*
X148430952Y-51863761D01*
X148430952Y-52625666D02*
X148621428Y-52530428D01*
X149002380Y-52530428D01*
X149192857Y-52625666D01*
X149288095Y-52720904D01*
X149383333Y-52911380D01*
X149383333Y-53482809D01*
X149288095Y-53673285D01*
X149192857Y-53768523D01*
X149002380Y-53863761D01*
X148621428Y-53863761D01*
X148430952Y-53768523D01*
X150526190Y-53863761D02*
X150335714Y-53768523D01*
X150240476Y-53673285D01*
X150145238Y-53482809D01*
X150145238Y-52911380D01*
X150240476Y-52720904D01*
X150335714Y-52625666D01*
X150526190Y-52530428D01*
X150811904Y-52530428D01*
X151002380Y-52625666D01*
X151097619Y-52720904D01*
X151192857Y-52911380D01*
X151192857Y-53482809D01*
X151097619Y-53673285D01*
X151002380Y-53768523D01*
X150811904Y-53863761D01*
X150526190Y-53863761D01*
X152907142Y-53863761D02*
X152907142Y-52816142D01*
X152811904Y-52625666D01*
X152621428Y-52530428D01*
X152240476Y-52530428D01*
X152050000Y-52625666D01*
X152907142Y-53768523D02*
X152716666Y-53863761D01*
X152240476Y-53863761D01*
X152050000Y-53768523D01*
X151954761Y-53578047D01*
X151954761Y-53387571D01*
X152050000Y-53197095D01*
X152240476Y-53101857D01*
X152716666Y-53101857D01*
X152907142Y-53006619D01*
X153859523Y-53863761D02*
X153859523Y-52530428D01*
X153859523Y-52911380D02*
X153954761Y-52720904D01*
X154049999Y-52625666D01*
X154240476Y-52530428D01*
X154430952Y-52530428D01*
X155954761Y-53863761D02*
X155954761Y-51863761D01*
X155954761Y-53768523D02*
X155764285Y-53863761D01*
X155383333Y-53863761D01*
X155192857Y-53768523D01*
X155097619Y-53673285D01*
X155002380Y-53482809D01*
X155002380Y-52911380D01*
X155097619Y-52720904D01*
X155192857Y-52625666D01*
X155383333Y-52530428D01*
X155764285Y-52530428D01*
X155954761Y-52625666D01*
X158430952Y-53863761D02*
X158430952Y-51863761D01*
X159192857Y-51863761D01*
X159383333Y-51959000D01*
X159478571Y-52054238D01*
X159573809Y-52244714D01*
X159573809Y-52530428D01*
X159478571Y-52720904D01*
X159383333Y-52816142D01*
X159192857Y-52911380D01*
X158430952Y-52911380D01*
X161573809Y-53673285D02*
X161478571Y-53768523D01*
X161192857Y-53863761D01*
X161002380Y-53863761D01*
X160716666Y-53768523D01*
X160526190Y-53578047D01*
X160430952Y-53387571D01*
X160335714Y-53006619D01*
X160335714Y-52720904D01*
X160430952Y-52339952D01*
X160526190Y-52149476D01*
X160716666Y-51959000D01*
X161002380Y-51863761D01*
X161192857Y-51863761D01*
X161478571Y-51959000D01*
X161573809Y-52054238D01*
X163097619Y-52816142D02*
X163383333Y-52911380D01*
X163478571Y-53006619D01*
X163573809Y-53197095D01*
X163573809Y-53482809D01*
X163478571Y-53673285D01*
X163383333Y-53768523D01*
X163192857Y-53863761D01*
X162430952Y-53863761D01*
X162430952Y-51863761D01*
X163097619Y-51863761D01*
X163288095Y-51959000D01*
X163383333Y-52054238D01*
X163478571Y-52244714D01*
X163478571Y-52435190D01*
X163383333Y-52625666D01*
X163288095Y-52720904D01*
X163097619Y-52816142D01*
X162430952Y-52816142D01*
X165954761Y-53863761D02*
X165954761Y-51863761D01*
X165954761Y-52625666D02*
X166145238Y-52530428D01*
X166526190Y-52530428D01*
X166716666Y-52625666D01*
X166811904Y-52720904D01*
X166907142Y-52911380D01*
X166907142Y-53482809D01*
X166811904Y-53673285D01*
X166716666Y-53768523D01*
X166526190Y-53863761D01*
X166145238Y-53863761D01*
X165954761Y-53768523D01*
X167573809Y-52530428D02*
X168049999Y-53863761D01*
X168526190Y-52530428D02*
X168049999Y-53863761D01*
X167859523Y-54339952D01*
X167764285Y-54435190D01*
X167573809Y-54530428D01*
X171669047Y-53863761D02*
X171669047Y-52816142D01*
X171573809Y-52625666D01*
X171383333Y-52530428D01*
X171002380Y-52530428D01*
X170811904Y-52625666D01*
X171669047Y-53768523D02*
X171478571Y-53863761D01*
X171002380Y-53863761D01*
X170811904Y-53768523D01*
X170716666Y-53578047D01*
X170716666Y-53387571D01*
X170811904Y-53197095D01*
X171002380Y-53101857D01*
X171478571Y-53101857D01*
X171669047Y-53006619D01*
X172621428Y-53863761D02*
X172621428Y-52530428D01*
X172621428Y-51863761D02*
X172526190Y-51959000D01*
X172621428Y-52054238D01*
X172716666Y-51959000D01*
X172621428Y-51863761D01*
X172621428Y-52054238D01*
X173954761Y-51863761D02*
X174145238Y-51863761D01*
X174335714Y-51959000D01*
X174430952Y-52054238D01*
X174526190Y-52244714D01*
X174621428Y-52625666D01*
X174621428Y-53101857D01*
X174526190Y-53482809D01*
X174430952Y-53673285D01*
X174335714Y-53768523D01*
X174145238Y-53863761D01*
X173954761Y-53863761D01*
X173764285Y-53768523D01*
X173669047Y-53673285D01*
X173573809Y-53482809D01*
X173478571Y-53101857D01*
X173478571Y-52625666D01*
X173573809Y-52244714D01*
X173669047Y-52054238D01*
X173764285Y-51959000D01*
X173954761Y-51863761D01*
X175288095Y-51863761D02*
X176526190Y-51863761D01*
X175859523Y-52625666D01*
X176145238Y-52625666D01*
X176335714Y-52720904D01*
X176430952Y-52816142D01*
X176526190Y-53006619D01*
X176526190Y-53482809D01*
X176430952Y-53673285D01*
X176335714Y-53768523D01*
X176145238Y-53863761D01*
X175573809Y-53863761D01*
X175383333Y-53768523D01*
X175288095Y-53673285D01*
D10*
X364998000Y-96520000D02*
X377825000Y-69342000D01*
D11*
X109204333Y-50815761D02*
X109680523Y-50815761D01*
X109918619Y-50720523D01*
X110037666Y-50625285D01*
X110275761Y-50339571D01*
X110394809Y-49958619D01*
X110394809Y-49196714D01*
X110275761Y-49006238D01*
X110156714Y-48911000D01*
X109918619Y-48815761D01*
X109442428Y-48815761D01*
X109204333Y-48911000D01*
X109085285Y-49006238D01*
X108966238Y-49196714D01*
X108966238Y-49672904D01*
X109085285Y-49863380D01*
X109204333Y-49958619D01*
X109442428Y-50053857D01*
X109918619Y-50053857D01*
X110156714Y-49958619D01*
X110275761Y-49863380D01*
X110394809Y-49672904D01*
X111228142Y-48815761D02*
X112894809Y-48815761D01*
X111823380Y-50815761D01*
X62288333Y-48823904D02*
X64621666Y-53823904D01*
X66955000Y-48823904D01*
X70621666Y-48823904D02*
X71955000Y-48823904D01*
X72621666Y-49062000D01*
X73288333Y-49538190D01*
X73621666Y-50490571D01*
X73621666Y-52157238D01*
X73288333Y-53109619D01*
X72621666Y-53585809D01*
X71955000Y-53823904D01*
X70621666Y-53823904D01*
X69955000Y-53585809D01*
X69288333Y-53109619D01*
X68955000Y-52157238D01*
X68955000Y-50490571D01*
X69288333Y-49538190D01*
X69955000Y-49062000D01*
X70621666Y-48823904D01*
X77955000Y-51442952D02*
X77955000Y-53823904D01*
X75621666Y-48823904D02*
X77955000Y-51442952D01*
X80288333Y-48823904D01*
X82288333Y-52395333D02*
X85621666Y-52395333D01*
X81621666Y-53823904D02*
X83955000Y-48823904D01*
X86288333Y-53823904D01*
X92288333Y-49062000D02*
X91621666Y-48823904D01*
X90621666Y-48823904D01*
X89621666Y-49062000D01*
X88955000Y-49538190D01*
X88621666Y-50014380D01*
X88288333Y-50966761D01*
X88288333Y-51681047D01*
X88621666Y-52633428D01*
X88955000Y-53109619D01*
X89621666Y-53585809D01*
X90621666Y-53823904D01*
X91288333Y-53823904D01*
X92288333Y-53585809D01*
X92621666Y-53347714D01*
X92621666Y-51681047D01*
X91288333Y-51681047D01*
X95621666Y-51204857D02*
X97955000Y-51204857D01*
X98955000Y-53823904D02*
X95621666Y-53823904D01*
X95621666Y-48823904D01*
X98955000Y-48823904D01*
X105955000Y-53823904D02*
X103621666Y-51442952D01*
X101955000Y-53823904D02*
X101955000Y-48823904D01*
X104621666Y-48823904D01*
X105288333Y-49062000D01*
X105621666Y-49300095D01*
X105955000Y-49776285D01*
X105955000Y-50490571D01*
X105621666Y-50966761D01*
X105288333Y-51204857D01*
X104621666Y-51442952D01*
X101955000Y-51442952D01*
D10*
X364998000Y-96520000D02*
X421513000Y-90551000D01*
X377825000Y-69342000D02*
X421386000Y-74422000D01*
X288671000Y-89408000D02*
X377825000Y-69342000D01*
X313182000Y-112649000D02*
X272923000Y-146812000D01*
X313182000Y-112649000D02*
X198501000Y-99949000D01*
X147574000Y-136652000D02*
X206883000Y-146812000D01*
X147574000Y-136652000D02*
X313182000Y-112649000D01*
X288671000Y-89408000D02*
X313182000Y-112649000D01*
X198501000Y-99949000D02*
X288671000Y-89408000D01*
X198501000Y-99949000D02*
X81026000Y-77597000D01*
X147574000Y-136652000D02*
X198501000Y-99949000D01*
X81026000Y-77597000D02*
X147574000Y-136652000D01*
X147574000Y-136652000D02*
X116078000Y-146812000D01*
X63627000Y-107442000D02*
X147574000Y-136652000D01*
X63627000Y-107442000D02*
X32512000Y-119634000D01*
X63627000Y-107442000D02*
X32512000Y-102108000D01*
X81026000Y-77597000D02*
X63627000Y-107442000D01*
X32512000Y-85344000D02*
X81026000Y-77597000D01*
D12*
G04 #@! TO.C,SW1*
X63311676Y-100012500D02*
G75*
G03X63311676Y-100012500I-1796051J0D01*
G01*
X58515625Y-103012500D02*
X58515625Y-97012500D01*
X64515625Y-103012500D02*
X58515625Y-103012500D01*
X64515625Y-97012500D02*
X64515625Y-103012500D01*
X58515625Y-97012500D02*
X64515625Y-97012500D01*
X60182291Y-104481261D02*
X60325148Y-104528880D01*
X60563244Y-104528880D01*
X60658482Y-104481261D01*
X60706101Y-104433642D01*
X60753720Y-104338404D01*
X60753720Y-104243166D01*
X60706101Y-104147928D01*
X60658482Y-104100309D01*
X60563244Y-104052690D01*
X60372767Y-104005071D01*
X60277529Y-103957452D01*
X60229910Y-103909833D01*
X60182291Y-103814595D01*
X60182291Y-103719357D01*
X60229910Y-103624119D01*
X60277529Y-103576500D01*
X60372767Y-103528880D01*
X60610863Y-103528880D01*
X60753720Y-103576500D01*
X61087053Y-103528880D02*
X61325148Y-104528880D01*
X61515625Y-103814595D01*
X61706101Y-104528880D01*
X61944196Y-103528880D01*
X62848958Y-104528880D02*
X62277529Y-104528880D01*
X62563244Y-104528880D02*
X62563244Y-103528880D01*
X62468005Y-103671738D01*
X62372767Y-103766976D01*
X62277529Y-103814595D01*
G04 #@! TD*
%LPC*%
D13*
G04 #@! TO.C,MX_E1*
X113030000Y-80962500D03*
X102870000Y-80962500D03*
D14*
X107950000Y-80962500D03*
G04 #@! TD*
G04 #@! TO.C,BS2*
X307975000Y-61912500D03*
D13*
X302895000Y-61912500D03*
X313055000Y-61912500D03*
G04 #@! TD*
D14*
G04 #@! TO.C,BS1-1*
X298450000Y-61912500D03*
D13*
X293370000Y-61912500D03*
X303530000Y-61912500D03*
D15*
X286512000Y-54927500D03*
X310388000Y-54927500D03*
D14*
X286512000Y-70167500D03*
X310388000Y-70167500D03*
G04 #@! TD*
D13*
G04 #@! TO.C,BS1-2*
X294005000Y-61912500D03*
X283845000Y-61912500D03*
D14*
X288925000Y-61912500D03*
G04 #@! TD*
D13*
G04 #@! TO.C,CL1-1*
X53498750Y-100012500D03*
X43338750Y-100012500D03*
D14*
X48418750Y-100012500D03*
G04 #@! TD*
G04 #@! TO.C,CL1-2*
X43656250Y-100012500D03*
D13*
X38576250Y-100012500D03*
X48736250Y-100012500D03*
G04 #@! TD*
D14*
G04 #@! TO.C,LM1-1*
X43656250Y-138112500D03*
D13*
X38576250Y-138112500D03*
X48736250Y-138112500D03*
G04 #@! TD*
G04 #@! TO.C,LM1-2*
X51117500Y-138112500D03*
X40957500Y-138112500D03*
D14*
X46037500Y-138112500D03*
G04 #@! TD*
D13*
G04 #@! TO.C,LM2-1*
X72548750Y-138112500D03*
X62388750Y-138112500D03*
D14*
X67468750Y-138112500D03*
G04 #@! TD*
G04 #@! TO.C,LM3-1*
X91281250Y-138112500D03*
D13*
X86201250Y-138112500D03*
X96361250Y-138112500D03*
G04 #@! TD*
D14*
G04 #@! TO.C,LS1-1*
X65119250Y-127317500D03*
X41243250Y-127317500D03*
D15*
X65119250Y-112077500D03*
X41243250Y-112077500D03*
D13*
X58261250Y-119062500D03*
X48101250Y-119062500D03*
D14*
X53181250Y-119062500D03*
G04 #@! TD*
G04 #@! TO.C,MX_\002C1*
X217487500Y-119062500D03*
D13*
X212407500Y-119062500D03*
X222567500Y-119062500D03*
G04 #@! TD*
G04 #@! TO.C,MX_.1*
X241617500Y-119062500D03*
X231457500Y-119062500D03*
D14*
X236537500Y-119062500D03*
G04 #@! TD*
D13*
G04 #@! TO.C,MX_#1*
X65405000Y-61912500D03*
X55245000Y-61912500D03*
D14*
X60325000Y-61912500D03*
G04 #@! TD*
G04 #@! TO.C,MX_#2*
X79375000Y-61912500D03*
D13*
X74295000Y-61912500D03*
X84455000Y-61912500D03*
G04 #@! TD*
D14*
G04 #@! TO.C,MX_#3*
X98425000Y-61912500D03*
D13*
X93345000Y-61912500D03*
X103505000Y-61912500D03*
G04 #@! TD*
G04 #@! TO.C,MX_#4*
X122555000Y-61912500D03*
X112395000Y-61912500D03*
D14*
X117475000Y-61912500D03*
G04 #@! TD*
G04 #@! TO.C,MX_#5*
X136525000Y-61912500D03*
D13*
X131445000Y-61912500D03*
X141605000Y-61912500D03*
G04 #@! TD*
D14*
G04 #@! TO.C,MX_#6*
X155575000Y-61912500D03*
D13*
X150495000Y-61912500D03*
X160655000Y-61912500D03*
G04 #@! TD*
G04 #@! TO.C,MX_#7*
X179705000Y-61912500D03*
X169545000Y-61912500D03*
D14*
X174625000Y-61912500D03*
G04 #@! TD*
D13*
G04 #@! TO.C,MX_#8*
X198755000Y-61912500D03*
X188595000Y-61912500D03*
D14*
X193675000Y-61912500D03*
G04 #@! TD*
D13*
G04 #@! TO.C,MX_#9*
X217805000Y-61912500D03*
X207645000Y-61912500D03*
D14*
X212725000Y-61912500D03*
G04 #@! TD*
D13*
G04 #@! TO.C,MX_#0_1*
X236855000Y-61912500D03*
X226695000Y-61912500D03*
D14*
X231775000Y-61912500D03*
G04 #@! TD*
D13*
G04 #@! TO.C,MX_'1*
X270192500Y-100012500D03*
X260032500Y-100012500D03*
D14*
X265112500Y-100012500D03*
G04 #@! TD*
G04 #@! TO.C,MX_-1*
X250825000Y-61912500D03*
D13*
X245745000Y-61912500D03*
X255905000Y-61912500D03*
G04 #@! TD*
G04 #@! TO.C,MX_/1*
X260667500Y-119062500D03*
X250507500Y-119062500D03*
D14*
X255587500Y-119062500D03*
G04 #@! TD*
D13*
G04 #@! TO.C,MX_;1*
X251142500Y-100012500D03*
X240982500Y-100012500D03*
D14*
X246062500Y-100012500D03*
G04 #@! TD*
G04 #@! TO.C,MX_=1*
X269875000Y-61912500D03*
D13*
X264795000Y-61912500D03*
X274955000Y-61912500D03*
G04 #@! TD*
D14*
G04 #@! TO.C,MX_[1*
X260350000Y-80962500D03*
D13*
X255270000Y-80962500D03*
X265430000Y-80962500D03*
G04 #@! TD*
G04 #@! TO.C,MX_\005C1*
X308292500Y-80962500D03*
X298132500Y-80962500D03*
D14*
X303212500Y-80962500D03*
G04 #@! TD*
G04 #@! TO.C,MX_]1*
X279400000Y-80962500D03*
D13*
X274320000Y-80962500D03*
X284480000Y-80962500D03*
G04 #@! TD*
D14*
G04 #@! TO.C,MX_`1*
X41275000Y-61912500D03*
D13*
X36195000Y-61912500D03*
X46355000Y-61912500D03*
G04 #@! TD*
D14*
G04 #@! TO.C,MX_A1*
X74612500Y-100012500D03*
D13*
X69532500Y-100012500D03*
X79692500Y-100012500D03*
G04 #@! TD*
D14*
G04 #@! TO.C,MX_B1*
X160337500Y-119062500D03*
D13*
X155257500Y-119062500D03*
X165417500Y-119062500D03*
G04 #@! TD*
D14*
G04 #@! TO.C,MX_C1*
X122237500Y-119062500D03*
D13*
X117157500Y-119062500D03*
X127317500Y-119062500D03*
G04 #@! TD*
G04 #@! TO.C,MX_D1*
X117792500Y-100012500D03*
X107632500Y-100012500D03*
D14*
X112712500Y-100012500D03*
G04 #@! TD*
G04 #@! TO.C,MX_DOWN1*
X307975000Y-138112500D03*
D13*
X302895000Y-138112500D03*
X313055000Y-138112500D03*
G04 #@! TD*
G04 #@! TO.C,MX_ESC1*
X46355000Y-33337500D03*
X36195000Y-33337500D03*
D14*
X41275000Y-33337500D03*
G04 #@! TD*
G04 #@! TO.C,MX_EX1*
X327025000Y-61912500D03*
D13*
X321945000Y-61912500D03*
X332105000Y-61912500D03*
G04 #@! TD*
D14*
G04 #@! TO.C,MX_EX2*
X327025000Y-80962500D03*
D13*
X321945000Y-80962500D03*
X332105000Y-80962500D03*
G04 #@! TD*
G04 #@! TO.C,MX_EX3*
X332105000Y-100012500D03*
X321945000Y-100012500D03*
D14*
X327025000Y-100012500D03*
G04 #@! TD*
D13*
G04 #@! TO.C,MX_EX4*
X332105000Y-119062500D03*
X321945000Y-119062500D03*
D14*
X327025000Y-119062500D03*
G04 #@! TD*
D13*
G04 #@! TO.C,MX_F1*
X136842500Y-100012500D03*
X126682500Y-100012500D03*
D14*
X131762500Y-100012500D03*
G04 #@! TD*
G04 #@! TO.C,MX_FN1*
X69850000Y-33337500D03*
D13*
X64770000Y-33337500D03*
X74930000Y-33337500D03*
G04 #@! TD*
D14*
G04 #@! TO.C,MX_FN2*
X88900000Y-33337500D03*
D13*
X83820000Y-33337500D03*
X93980000Y-33337500D03*
G04 #@! TD*
G04 #@! TO.C,MX_FN3*
X113030000Y-33337500D03*
X102870000Y-33337500D03*
D14*
X107950000Y-33337500D03*
G04 #@! TD*
D13*
G04 #@! TO.C,MX_FN4*
X132080000Y-33337500D03*
X121920000Y-33337500D03*
D14*
X127000000Y-33337500D03*
G04 #@! TD*
D13*
G04 #@! TO.C,MX_FN5*
X160655000Y-33337500D03*
X150495000Y-33337500D03*
D14*
X155575000Y-33337500D03*
G04 #@! TD*
G04 #@! TO.C,MX_FN6*
X174625000Y-33337500D03*
D13*
X169545000Y-33337500D03*
X179705000Y-33337500D03*
G04 #@! TD*
G04 #@! TO.C,MX_FN7*
X198755000Y-33337500D03*
X188595000Y-33337500D03*
D14*
X193675000Y-33337500D03*
G04 #@! TD*
G04 #@! TO.C,MX_FN8*
X212725000Y-33337500D03*
D13*
X207645000Y-33337500D03*
X217805000Y-33337500D03*
G04 #@! TD*
D14*
G04 #@! TO.C,MX_FN9*
X241300000Y-33337500D03*
D13*
X236220000Y-33337500D03*
X246380000Y-33337500D03*
G04 #@! TD*
D14*
G04 #@! TO.C,MX_FN10*
X260350000Y-33337500D03*
D13*
X255270000Y-33337500D03*
X265430000Y-33337500D03*
G04 #@! TD*
D14*
G04 #@! TO.C,MX_FN11*
X279400000Y-33337500D03*
D13*
X274320000Y-33337500D03*
X284480000Y-33337500D03*
G04 #@! TD*
D14*
G04 #@! TO.C,MX_FN12*
X298450000Y-33337500D03*
D13*
X293370000Y-33337500D03*
X303530000Y-33337500D03*
G04 #@! TD*
D14*
G04 #@! TO.C,MX_G1*
X150812500Y-100012500D03*
D13*
X145732500Y-100012500D03*
X155892500Y-100012500D03*
G04 #@! TD*
D14*
G04 #@! TO.C,MX_H1*
X169862500Y-100012500D03*
D13*
X164782500Y-100012500D03*
X174942500Y-100012500D03*
G04 #@! TD*
G04 #@! TO.C,MX_I1*
X208280000Y-80962500D03*
X198120000Y-80962500D03*
D14*
X203200000Y-80962500D03*
G04 #@! TD*
G04 #@! TO.C,MX_J1*
X188912500Y-100012500D03*
D13*
X183832500Y-100012500D03*
X193992500Y-100012500D03*
G04 #@! TD*
G04 #@! TO.C,MX_K1*
X213042500Y-100012500D03*
X202882500Y-100012500D03*
D14*
X207962500Y-100012500D03*
G04 #@! TD*
G04 #@! TO.C,MX_L1*
X227012500Y-100012500D03*
D13*
X221932500Y-100012500D03*
X232092500Y-100012500D03*
G04 #@! TD*
G04 #@! TO.C,MX_LEFT1*
X294005000Y-138112500D03*
X283845000Y-138112500D03*
D14*
X288925000Y-138112500D03*
G04 #@! TD*
D13*
G04 #@! TO.C,MX_M1*
X203517500Y-119062500D03*
X193357500Y-119062500D03*
D14*
X198437500Y-119062500D03*
G04 #@! TD*
D13*
G04 #@! TO.C,MX_N1*
X184467500Y-119062500D03*
X174307500Y-119062500D03*
D14*
X179387500Y-119062500D03*
G04 #@! TD*
G04 #@! TO.C,MX_NUM1*
X355600000Y-33337500D03*
D13*
X350520000Y-33337500D03*
X360680000Y-33337500D03*
G04 #@! TD*
G04 #@! TO.C,MX_NUM3*
X398780000Y-33337500D03*
X388620000Y-33337500D03*
D14*
X393700000Y-33337500D03*
G04 #@! TD*
D13*
G04 #@! TO.C,MX_NUM4*
X360680000Y-61912500D03*
X350520000Y-61912500D03*
D14*
X355600000Y-61912500D03*
G04 #@! TD*
G04 #@! TO.C,MX_NUM5*
X374650000Y-61912500D03*
D13*
X369570000Y-61912500D03*
X379730000Y-61912500D03*
G04 #@! TD*
D14*
G04 #@! TO.C,MX_NUM6*
X393700000Y-61912500D03*
D13*
X388620000Y-61912500D03*
X398780000Y-61912500D03*
G04 #@! TD*
G04 #@! TO.C,MX_NUM7*
X417830000Y-61912500D03*
X407670000Y-61912500D03*
D14*
X412750000Y-61912500D03*
G04 #@! TD*
G04 #@! TO.C,MX_NUM8*
X355600000Y-80962500D03*
D13*
X350520000Y-80962500D03*
X360680000Y-80962500D03*
G04 #@! TD*
G04 #@! TO.C,MX_NUM9*
X379730000Y-80962500D03*
X369570000Y-80962500D03*
D14*
X374650000Y-80962500D03*
G04 #@! TD*
D13*
G04 #@! TO.C,MX_NUM10*
X398780000Y-80962500D03*
X388620000Y-80962500D03*
D14*
X393700000Y-80962500D03*
G04 #@! TD*
G04 #@! TO.C,MX_NUM11*
X412750000Y-80962500D03*
D13*
X407670000Y-80962500D03*
X417830000Y-80962500D03*
G04 #@! TD*
D14*
G04 #@! TO.C,MX_NUM12*
X355600000Y-100012500D03*
D13*
X350520000Y-100012500D03*
X360680000Y-100012500D03*
G04 #@! TD*
D14*
G04 #@! TO.C,MX_NUM13*
X374650000Y-100012500D03*
D13*
X369570000Y-100012500D03*
X379730000Y-100012500D03*
G04 #@! TD*
D14*
G04 #@! TO.C,MX_NUM14*
X393700000Y-100012500D03*
D13*
X388620000Y-100012500D03*
X398780000Y-100012500D03*
G04 #@! TD*
G04 #@! TO.C,MX_NUM15*
X417830000Y-100012500D03*
X407670000Y-100012500D03*
D14*
X412750000Y-100012500D03*
G04 #@! TD*
G04 #@! TO.C,MX_NUM16*
X355600000Y-119062500D03*
D13*
X350520000Y-119062500D03*
X360680000Y-119062500D03*
G04 #@! TD*
D14*
G04 #@! TO.C,MX_NUM17*
X374650000Y-119062500D03*
D13*
X369570000Y-119062500D03*
X379730000Y-119062500D03*
G04 #@! TD*
G04 #@! TO.C,MX_NUM18*
X398780000Y-119062500D03*
X388620000Y-119062500D03*
D14*
X393700000Y-119062500D03*
G04 #@! TD*
G04 #@! TO.C,MX_NUM19*
X412750000Y-119062500D03*
D13*
X407670000Y-119062500D03*
X417830000Y-119062500D03*
G04 #@! TD*
D14*
G04 #@! TO.C,MX_NUM20*
X355600000Y-138112500D03*
D13*
X350520000Y-138112500D03*
X360680000Y-138112500D03*
G04 #@! TD*
G04 #@! TO.C,MX_NUM21*
X379730000Y-138112500D03*
X369570000Y-138112500D03*
D14*
X374650000Y-138112500D03*
G04 #@! TD*
D13*
G04 #@! TO.C,MX_NUM22*
X398780000Y-138112500D03*
X388620000Y-138112500D03*
D14*
X393700000Y-138112500D03*
G04 #@! TD*
G04 #@! TO.C,MX_NUM23*
X412750000Y-138112500D03*
D13*
X407670000Y-138112500D03*
X417830000Y-138112500D03*
G04 #@! TD*
G04 #@! TO.C,MX_NUM24*
X417830000Y-33337500D03*
X407670000Y-33337500D03*
D14*
X412750000Y-33337500D03*
G04 #@! TD*
G04 #@! TO.C,MX_NUMEXT2*
X404495000Y-78549500D03*
X404495000Y-102425500D03*
D15*
X419735000Y-78549500D03*
X419735000Y-102425500D03*
D13*
X412750000Y-85407500D03*
X412750000Y-95567500D03*
D14*
X412750000Y-90487500D03*
G04 #@! TD*
G04 #@! TO.C,MX_NUMEXT4*
X412750000Y-128587500D03*
D13*
X412750000Y-133667500D03*
X412750000Y-123507500D03*
D15*
X419735000Y-140525500D03*
X419735000Y-116649500D03*
D14*
X404495000Y-140525500D03*
X404495000Y-116649500D03*
G04 #@! TD*
G04 #@! TO.C,MX_NUMEXT5*
X365125000Y-138112500D03*
D13*
X360045000Y-138112500D03*
X370205000Y-138112500D03*
D15*
X353187000Y-145097500D03*
X377063000Y-145097500D03*
D14*
X353187000Y-129857500D03*
X377063000Y-129857500D03*
G04 #@! TD*
G04 #@! TO.C,MX_O1*
X222250000Y-80962500D03*
D13*
X217170000Y-80962500D03*
X227330000Y-80962500D03*
G04 #@! TD*
G04 #@! TO.C,MX_P1*
X246380000Y-80962500D03*
X236220000Y-80962500D03*
D14*
X241300000Y-80962500D03*
G04 #@! TD*
D13*
G04 #@! TO.C,MX_Q1*
X74930000Y-80962500D03*
X64770000Y-80962500D03*
D14*
X69850000Y-80962500D03*
G04 #@! TD*
G04 #@! TO.C,MX_R1*
X127000000Y-80962500D03*
D13*
X121920000Y-80962500D03*
X132080000Y-80962500D03*
G04 #@! TD*
G04 #@! TO.C,MX_RESET1*
X332105000Y-33337500D03*
X321945000Y-33337500D03*
D14*
X327025000Y-33337500D03*
G04 #@! TD*
G04 #@! TO.C,MX_RETURN1*
X296068750Y-100012500D03*
D13*
X290988750Y-100012500D03*
X301148750Y-100012500D03*
D15*
X284130750Y-93027500D03*
X308006750Y-93027500D03*
D14*
X284130750Y-108267500D03*
X308006750Y-108267500D03*
G04 #@! TD*
G04 #@! TO.C,MX_RIGHT1*
X327025000Y-138112500D03*
D13*
X321945000Y-138112500D03*
X332105000Y-138112500D03*
G04 #@! TD*
D14*
G04 #@! TO.C,MX_RSHIFT1*
X281781250Y-119062500D03*
D13*
X276701250Y-119062500D03*
X286861250Y-119062500D03*
G04 #@! TD*
G04 #@! TO.C,MX_S1*
X98742500Y-100012500D03*
X88582500Y-100012500D03*
D14*
X93662500Y-100012500D03*
G04 #@! TD*
D13*
G04 #@! TO.C,MX_T1*
X151130000Y-80962500D03*
X140970000Y-80962500D03*
D14*
X146050000Y-80962500D03*
G04 #@! TD*
G04 #@! TO.C,MX_TAB1*
X46037500Y-80962500D03*
D13*
X40957500Y-80962500D03*
X51117500Y-80962500D03*
G04 #@! TD*
D14*
G04 #@! TO.C,MX_U1*
X184150000Y-80962500D03*
D13*
X179070000Y-80962500D03*
X189230000Y-80962500D03*
G04 #@! TD*
D14*
G04 #@! TO.C,MX_UP1*
X307975000Y-119062500D03*
D13*
X302895000Y-119062500D03*
X313055000Y-119062500D03*
G04 #@! TD*
G04 #@! TO.C,MX_V1*
X146367500Y-119062500D03*
X136207500Y-119062500D03*
D14*
X141287500Y-119062500D03*
G04 #@! TD*
D13*
G04 #@! TO.C,MX_W1*
X93980000Y-80962500D03*
X83820000Y-80962500D03*
D14*
X88900000Y-80962500D03*
G04 #@! TD*
D13*
G04 #@! TO.C,MX_X1*
X108267500Y-119062500D03*
X98107500Y-119062500D03*
D14*
X103187500Y-119062500D03*
G04 #@! TD*
G04 #@! TO.C,MX_Y1*
X165100000Y-80962500D03*
D13*
X160020000Y-80962500D03*
X170180000Y-80962500D03*
G04 #@! TD*
G04 #@! TO.C,MX_Z1*
X89217500Y-119062500D03*
X79057500Y-119062500D03*
D14*
X84137500Y-119062500D03*
G04 #@! TD*
G04 #@! TO.C,RM1-1*
X231775000Y-138112500D03*
D13*
X226695000Y-138112500D03*
X236855000Y-138112500D03*
G04 #@! TD*
D14*
G04 #@! TO.C,RM1-2*
X236537500Y-138112500D03*
D13*
X231457500Y-138112500D03*
X241617500Y-138112500D03*
G04 #@! TD*
G04 #@! TO.C,RM2-1*
X255905000Y-138112500D03*
X245745000Y-138112500D03*
D14*
X250825000Y-138112500D03*
G04 #@! TD*
D13*
G04 #@! TO.C,RM3-1*
X274955000Y-138112500D03*
X264795000Y-138112500D03*
D14*
X269875000Y-138112500D03*
G04 #@! TD*
D13*
G04 #@! TO.C,RM3-2*
X270192500Y-138112500D03*
X260032500Y-138112500D03*
D14*
X265112500Y-138112500D03*
G04 #@! TD*
G04 #@! TO.C,SP1*
X162718750Y-138112500D03*
D13*
X157638750Y-138112500D03*
X167798750Y-138112500D03*
D15*
X112718850Y-145097500D03*
X212718650Y-145097500D03*
D14*
X112718850Y-129857500D03*
X212718650Y-129857500D03*
G04 #@! TD*
G04 #@! TO.C,SP2*
X155575000Y-138112500D03*
D13*
X150495000Y-138112500D03*
X160655000Y-138112500D03*
D15*
X98425000Y-145097500D03*
X212725000Y-145097500D03*
D14*
X98425000Y-129857500D03*
X212725000Y-129857500D03*
G04 #@! TD*
D16*
G04 #@! TO.C,SW1*
X64765625Y-97762500D03*
X58265625Y-102262500D03*
X64765625Y-102262500D03*
X58265625Y-97762500D03*
G04 #@! TD*
D17*
G04 #@! TO.C,USB1*
X345632500Y-25618750D03*
X336992500Y-25618750D03*
D18*
X345632500Y-29798750D03*
X336992500Y-29798750D03*
D19*
X338422500Y-29268750D03*
X344202500Y-29268750D03*
G04 #@! TD*
D14*
G04 #@! TO.C,LM3-2*
X74612500Y-138112500D03*
D13*
X69532500Y-138112500D03*
X79692500Y-138112500D03*
G04 #@! TD*
D14*
G04 #@! TO.C,MX_NUM2*
X374650000Y-33337500D03*
D13*
X369570000Y-33337500D03*
X379730000Y-33337500D03*
G04 #@! TD*
M02*
